<svg version="1.1" preserveAspectRatio="none" xmlns="http://www.w3.org/2000/svg" width="500" height="500" viewBox="0 0 500 500"><rect width="100%" height="100%" fill="#F9F9F9" fill-opacity="1"/><svg viewBox="77.2642 110.4766 398.5665 256.7628" width="333" height="214.52383077855265" x="83.5px" y="142.7381px" xmlns="http://www.w3.org/2000/svg" xmlns:xlink="http://www.w3.org/1999/xlink" preserveAspectRatio="none"><defs></defs><style>.companyName {fill:#F3A7DC;fill-opacity:1;}.icon1 {fill:#DBDBDB;fill-opacity:1;}.icon2 {fill:#F3A7DC;fill-opacity:1;}.icon3 {fill:#E7E7E7;fill-opacity:1;}.icon3-str {stroke:#E7E7E7;stroke-opacity:1;}</style><g opacity="1" transform="rotate(0 77.2642 327.2394)">
<svg width="398.5665" height="40" x="77.2642" y="327.2394" version="1.1" preserveAspectRatio="none" viewBox="2.24 -28.48 288.56 28.96">
  <g transform="matrix(1 0 0 1 0 0)" class="companyName"><path id="id-D6z1nYkh11" d="M12.60-0.60Q15.20-0.60 16.64-1.60Q18.08-2.60 18.08-4.48L18.08-4.48Q18.08-6 17.42-7Q16.76-8 15.40-8.84Q14.04-9.68 11.40-10.84L11.40-10.84Q8.04-12.32 6.20-13.46Q4.36-14.60 3.30-16.34Q2.24-18.08 2.24-20.76L2.24-20.76Q2.24-24.60 4.96-26.54Q7.68-28.48 13.60-28.48L13.60-28.48Q16.24-28.48 18.70-27.96Q21.16-27.44 22.84-26.64L22.84-26.64L21.88-20.52L20.80-20.52Q20.04-22.96 19.22-24.40Q18.40-25.84 17-26.62Q15.60-27.40 13.28-27.40L13.28-27.40Q8-27.40 8-23.96L8-23.96Q8-22.56 8.64-21.64Q9.28-20.72 10.56-19.98Q11.84-19.24 14.80-17.80L14.80-17.80L15.60-17.44Q19.32-15.64 21.10-14.52Q22.88-13.40 23.92-11.74Q24.96-10.08 24.96-7.44L24.96-7.44Q24.96-3.52 22.02-1.52Q19.08 0.48 12.80 0.48L12.80 0.48Q10.28 0.48 7.22-0.08Q4.16-0.64 2.48-1.44L2.48-1.44L3.56-8.48L4.60-8.48Q5.12-5.36 6.16-3.64Q7.20-1.92 8.76-1.26Q10.32-0.60 12.60-0.60L12.60-0.60Z M43.84 0Q42.72 0 42.26-0.46Q41.80-0.92 41.80-2L41.80-2L41.80-2.20Q39.12 0.40 34.16 0.40L34.16 0.40Q31.56 0.40 30.10-0.78Q28.64-1.96 28.64-4.44L28.64-4.44Q28.64-6.92 30.10-8.32Q31.56-9.72 34.36-10.32Q37.16-10.92 41.80-11.04L41.80-11.04L41.80-13.96Q41.80-16.20 40.92-17.18Q40.04-18.16 37.84-18.16L37.84-18.16Q36-18.16 34.42-17.66Q32.84-17.16 31.20-16.16L31.20-16.16L30.68-16.92Q32.60-18.28 35.30-19.10Q38-19.92 41.36-19.92L41.36-19.92Q45.88-19.92 47.80-18.14Q49.72-16.36 49.72-13L49.72-13L49.72-1.92Q49.72-1.48 49.90-1.32Q50.08-1.16 50.68-1.04L50.68-1.04L52.08-0.72L52.08 0L43.84 0ZM38.64-2.12Q40.36-2.12 41.80-3.48L41.80-3.48L41.80-9.96Q39.56-9.80 38.40-9.26Q37.24-8.72 36.82-7.72Q36.40-6.72 36.40-5L36.40-5Q36.40-3.48 36.94-2.80Q37.48-2.12 38.64-2.12L38.64-2.12Z M79.64-1.92Q79.64-1.48 79.82-1.32Q80-1.16 80.60-1.04L80.60-1.04L82-0.72L82 0L73.68 0Q72.60 0 72.12-0.56Q71.64-1.12 71.64-2.24L71.64-2.24L71.64-14.40Q71.64-16.20 71.06-16.96Q70.48-17.72 69.12-17.72L69.12-17.72Q66.72-17.72 64.20-15.72L64.20-15.72L64.20-1.92Q64.20-1.48 64.38-1.30Q64.56-1.12 65.12-1L65.12-1L66.48-0.72L66.48 0L53.84 0L53.84-0.72L55.24-1.04Q55.84-1.16 56.02-1.32Q56.20-1.48 56.20-1.92L56.20-1.92L56.20-17.04Q56.20-17.48 56.02-17.64Q55.84-17.80 55.24-17.92L55.24-17.92L53.84-18.24L53.84-18.96L63.44-20.16L64.12-20.16L64.12-16.92Q65.64-18.16 67.84-19.04Q70.04-19.92 72.72-19.92L72.72-19.92Q76.44-19.92 78.04-18.36Q79.64-16.80 79.64-13.68L79.64-13.68L79.64-1.92Z M86.36-18.40L83.76-18.40L83.76-19.44Q85-19.44 85.60-19.64Q86.20-19.84 86.80-20.36L86.80-20.36L93.92-26.76L94.28-26.76L94.28-19.44L99.44-19.44L99.44-18.40L94.28-18.40L94.28-4.96Q94.28-3.04 94.74-2.26Q95.20-1.48 96.32-1.48L96.32-1.48Q97.20-1.48 97.88-1.84Q98.56-2.20 99.36-3.08L99.36-3.08L100-2.32Q97.48 0.48 92.56 0.48L92.56 0.48Q89.24 0.48 87.80-0.92Q86.36-2.32 86.36-5.28L86.36-5.28L86.36-18.40Z M117.44 0Q116.32 0 115.86-0.46Q115.40-0.92 115.40-2L115.40-2L115.40-2.20Q112.72 0.40 107.76 0.40L107.76 0.40Q105.16 0.40 103.70-0.78Q102.24-1.96 102.24-4.44L102.24-4.44Q102.24-6.92 103.70-8.32Q105.16-9.72 107.96-10.32Q110.76-10.92 115.40-11.04L115.40-11.04L115.40-13.96Q115.40-16.20 114.52-17.18Q113.64-18.16 111.44-18.16L111.44-18.16Q109.60-18.16 108.02-17.66Q106.44-17.16 104.80-16.16L104.80-16.16L104.28-16.92Q106.20-18.28 108.90-19.10Q111.60-19.92 114.96-19.92L114.96-19.92Q119.48-19.92 121.40-18.14Q123.32-16.36 123.32-13L123.32-13L123.32-1.92Q123.32-1.48 123.50-1.32Q123.68-1.16 124.28-1.04L124.28-1.04L125.68-0.72L125.68 0L117.44 0ZM112.24-2.12Q113.96-2.12 115.40-3.48L115.40-3.48L115.40-9.96Q113.16-9.80 112-9.26Q110.84-8.72 110.42-7.72Q110-6.72 110-5L110-5Q110-3.48 110.54-2.80Q111.08-2.12 112.24-2.12L112.24-2.12Z M153.24-1.92Q153.24-1.48 153.42-1.32Q153.60-1.16 154.20-1.04L154.20-1.04L155.60-0.72L155.60 0L147.28 0Q146.20 0 145.72-0.56Q145.24-1.12 145.24-2.24L145.24-2.24L145.24-14.40Q145.24-16.20 144.66-16.96Q144.08-17.72 142.72-17.72L142.72-17.72Q140.32-17.72 137.80-15.72L137.80-15.72L137.80-1.92Q137.80-1.48 137.98-1.30Q138.16-1.12 138.72-1L138.72-1L140.08-0.72L140.08 0L127.44 0L127.44-0.72L128.84-1.04Q129.44-1.16 129.62-1.32Q129.80-1.48 129.80-1.92L129.80-1.92L129.80-17.04Q129.80-17.48 129.62-17.64Q129.44-17.80 128.84-17.92L128.84-17.92L127.44-18.24L127.44-18.96L137.04-20.16L137.72-20.16L137.72-16.92Q139.24-18.16 141.44-19.04Q143.64-19.92 146.32-19.92L146.32-19.92Q150.04-19.92 151.64-18.36Q153.24-16.80 153.24-13.68L153.24-13.68L153.24-1.92Z M173.20 0Q172.08 0 171.62-0.46Q171.16-0.92 171.16-2L171.16-2L171.16-2.20Q168.48 0.40 163.52 0.40L163.52 0.40Q160.92 0.40 159.46-0.78Q158.00-1.96 158.00-4.44L158.00-4.44Q158.00-6.92 159.46-8.32Q160.92-9.72 163.72-10.32Q166.52-10.92 171.16-11.04L171.16-11.04L171.16-13.96Q171.16-16.20 170.28-17.18Q169.40-18.16 167.20-18.16L167.20-18.16Q165.36-18.16 163.78-17.66Q162.20-17.16 160.56-16.16L160.56-16.16L160.04-16.92Q161.96-18.28 164.66-19.10Q167.36-19.92 170.72-19.92L170.72-19.92Q175.24-19.92 177.16-18.14Q179.08-16.36 179.08-13L179.08-13L179.08-1.92Q179.08-1.48 179.26-1.32Q179.44-1.16 180.04-1.04L180.04-1.04L181.44-0.72L181.44 0L173.20 0ZM168.00-2.12Q169.72-2.12 171.16-3.48L171.16-3.48L171.16-9.96Q168.92-9.80 167.76-9.26Q166.60-8.72 166.18-7.72Q165.76-6.72 165.76-5L165.76-5Q165.76-3.48 166.30-2.80Q166.84-2.12 168.00-2.12L168.00-2.12Z M187.60 0.32Q186.20 0.32 185.22-0.64Q184.24-1.60 184.24-2.96L184.24-2.96Q184.24-4.32 185.22-5.28Q186.20-6.24 187.60-6.24L187.60-6.24Q189-6.24 189.98-5.28Q190.96-4.32 190.96-2.96L190.96-2.96Q190.96-1.60 189.98-0.64Q189 0.32 187.60 0.32L187.60 0.32Z M207.92-19.92Q212.92-19.92 216.12-18.32L216.12-18.32L215.64-13.08L214.88-13.08Q214.04-16.04 212.66-17.46Q211.28-18.88 208.64-18.88L208.64-18.88Q205.72-18.88 204.50-16.84Q203.28-14.80 203.28-10.80L203.28-10.80Q203.28-7.48 203.80-5.44Q204.32-3.40 205.68-2.34Q207.04-1.28 209.52-1.28L209.52-1.28Q211.40-1.28 212.96-1.82Q214.52-2.36 216.04-3.40L216.04-3.40L216.56-2.64Q214.68-1.20 212.34-0.36Q210 0.48 206.88 0.48L206.88 0.48Q201.24 0.48 198.10-2.12Q194.96-4.72 194.96-9.96L194.96-9.96Q194.96-14.92 198.24-17.42Q201.52-19.92 207.92-19.92L207.92-19.92Z M245.36-9.72Q245.36-4.56 242.14-2.04Q238.92 0.48 232.88 0.48L232.88 0.48Q226.84 0.48 223.62-2.04Q220.40-4.56 220.40-9.72L220.40-9.72Q220.40-14.88 223.62-17.40Q226.84-19.92 232.88-19.92L232.88-19.92Q238.92-19.92 242.14-17.40Q245.36-14.88 245.36-9.72L245.36-9.72ZM228.72-9.72Q228.72-6.16 229.06-4.24Q229.40-2.32 230.28-1.44Q231.16-0.56 232.88-0.56L232.88-0.56Q234.60-0.56 235.48-1.44Q236.36-2.32 236.70-4.24Q237.04-6.16 237.04-9.72L237.04-9.72Q237.04-13.28 236.70-15.20Q236.36-17.12 235.48-18Q234.60-18.88 232.88-18.88L232.88-18.88Q231.16-18.88 230.28-18Q229.40-17.12 229.06-15.20Q228.72-13.28 228.72-9.72L228.72-9.72Z M258.60-17.36Q260.12-18.44 262.16-19.18Q264.20-19.92 266.64-19.92L266.64-19.92Q271.60-19.92 272.96-16.96L272.96-16.96Q274.48-18.20 276.66-19.06Q278.84-19.92 281.52-19.92L281.52-19.92Q285.24-19.92 286.84-18.36Q288.44-16.80 288.44-13.68L288.44-13.68L288.44-1.92Q288.44-1.48 288.62-1.32Q288.80-1.16 289.40-1.04L289.40-1.04L290.80-0.72L290.80 0L282.48 0Q281.40 0 280.92-0.56Q280.44-1.12 280.44-2.24L280.44-2.24L280.44-14.40Q280.44-16.20 279.86-16.96Q279.28-17.72 277.92-17.72L277.92-17.72Q275.76-17.72 273.32-15.96L273.32-15.96Q273.56-14.96 273.56-13.68L273.56-13.68L273.56-1.92Q273.56-1.48 273.74-1.32Q273.92-1.16 274.52-1.04L274.52-1.04L275.92-0.72L275.92 0L267.60 0Q266.52 0 266.04-0.56Q265.56-1.12 265.56-2.24L265.56-2.24L265.56-14.40Q265.56-16.20 264.98-16.96Q264.40-17.72 263.04-17.72L263.04-17.72Q260.92-17.72 258.68-16.12L258.68-16.12L258.68-1.92Q258.68-1.48 258.86-1.30Q259.04-1.12 259.60-1L259.60-1L260.96-0.72L260.96 0L248.32 0L248.32-0.72L249.72-1.04Q250.32-1.16 250.50-1.32Q250.68-1.48 250.68-1.92L250.68-1.92L250.68-17.04Q250.68-17.48 250.50-17.64Q250.32-17.80 249.72-17.92L249.72-17.92L248.32-18.24L248.32-18.96L257.92-20.16L258.60-20.16L258.60-17.36Z"/></g>
</svg>
</g><g opacity="1" transform="rotate(0 176.9058 110.4766)">
<svg width="199.2833" height="186.7628" x="176.9058" y="110.4766" version="1.1" preserveAspectRatio="none" viewBox="19.94602394104004 25.000995635986328 160.05490112304688 149.99900817871094">
  <g transform="matrix(1 0 0 1 0 0)"><g><path d="M115.415 93.989a2.913 2.913 0 0 0 4.202 0l34.665-36.117a2.914 2.914 0 0 0-2.102-4.929h-13.174v-25.03a2.913 2.913 0 0 0-2.913-2.912H98.938a2.913 2.913 0 0 0-2.913 2.912v25.03H82.851a2.912 2.912 0 0 0-2.101 4.929l34.665 36.117zM98.939 58.767a2.913 2.913 0 0 0 2.913-2.912v-25.03h31.331v25.03a2.913 2.913 0 0 0 2.913 2.912h9.255l-27.833 28.999-27.835-28.999h9.256z" data-color="1" class="icon1"></path><path d="M178.67 71.253a6.637 6.637 0 0 0-5.373-2.699h-19.469a2.913 2.913 0 1 0 0 5.824h19.469c.381 0 .602.22.699.351a.853.853 0 0 1 .136.771l-17.393 57.97h-11.553v-10.419a4.036 4.036 0 0 0-4.032-4.031h-7.662v-10.536a4.037 4.037 0 0 0-4.032-4.031h-21.148a4.035 4.035 0 0 0-4.031 4.031v2.961h-10a4.036 4.036 0 0 0-4.032 4.031v17.994H79.912l-17.94-59.092h18.193a2.913 2.913 0 1 0 0-5.824H60.203l-6.441-21.216a6.659 6.659 0 0 0-6.408-4.751H22.913a2.913 2.913 0 1 0 0 5.825h24.441c.387 0 .722.248.834.618l26.778 88.199a2.912 2.912 0 0 0 2.787 2.067h81.154c1.286 0 2.42-.844 2.79-2.075l18.016-60.046a6.64 6.64 0 0 0-1.043-5.922zm-39.309 62.218h-29.253v-8.625h29.253v8.625zm-29.253-23.193h17.56v8.743h-17.56v-8.743zm-14.031 6.993h8.206v16.201h-8.206v-16.201z" data-color="1" class="icon1"></path><path d="M82.621 146.454c-7.871 0-14.274 6.403-14.274 14.273S74.75 175 82.621 175s14.274-6.403 14.274-14.273c.001-7.87-6.403-14.273-14.274-14.273zm0 22.721c-4.659 0-8.449-3.79-8.449-8.448s3.79-8.448 8.449-8.448 8.449 3.79 8.449 8.448-3.79 8.448-8.449 8.448z" data-color="1" class="icon1"></path><path d="M152.414 146.454c-7.871 0-14.274 6.403-14.274 14.273S144.543 175 152.414 175c7.871 0 14.275-6.403 14.275-14.273s-6.404-14.273-14.275-14.273zm0 22.721c-4.659 0-8.449-3.79-8.449-8.448s3.79-8.448 8.449-8.448 8.449 3.79 8.449 8.448-3.79 8.448-8.449 8.448z" data-color="1" class="icon1"></path><path d="M130.503 149.7h-25.969a2.913 2.913 0 1 0 0 5.824h25.969a2.913 2.913 0 1 0 0-5.824z" data-color="1" class="icon1"></path></g></g>
</svg>
</g></svg></svg>