<svg version="1.1" preserveAspectRatio="none" xmlns="http://www.w3.org/2000/svg" width="500" height="500" viewBox="0 0 500 500"><rect width="100%" height="100%" fill="#121212" fill-opacity="1"/><svg viewBox="38.7214 213.2537 447.5904 40" width="333" height="29.759351407000686" x="83.5px" y="235.1203px" xmlns="http://www.w3.org/2000/svg" xmlns:xlink="http://www.w3.org/1999/xlink" preserveAspectRatio="none"><defs></defs><style>.companyName {fill:#DFDFDF;fill-opacity:1;}.icon3-str {stroke:#5D5D5D;stroke-opacity:1;}.shapeStroke-str {stroke:#DFDFDF;stroke-opacity:1;}.text {fill:#DFDFDF;fill-opacity:1;}</style><g opacity="1" transform="rotate(0 456.3118 232.2537)">
<svg width="30" height="2" x="456.3118" y="232.2537" version="1.1" preserveAspectRatio="none" viewBox="0 0 30 2">
  <defs><rect x="0" y="0" width="30" height="2" rx="0%" ry="0%" id="id-svOReAC_1705159988318"></rect></defs><use class="text shapeStroke-str" style="stroke-width:0;" xlink:href="#id-svOReAC_1705159988318"></use>
</svg>
</g><g opacity="1" transform="rotate(0 88.7214 213.2537)">
<svg width="347.5904" height="40" x="88.7214" y="213.2537" version="1.1" preserveAspectRatio="none" viewBox="2.7938 -25.44 226.0462 26.0133">
  <g transform="matrix(1 0 0 1 0 0)" class="companyName"><path id="id-D6z1nYkh11" d="M6.16-20.52Q6.16-19 6.92-17.86Q7.68-16.72 8.76-15.90Q9.84-15.08 11.76-13.92L11.76-13.92Q13.76-12.68 14.94-11.78Q16.12-10.88 16.96-9.56Q17.80-8.24 17.80-6.44L17.80-6.44Q17.80-4.48 16.78-2.90Q15.76-1.32 13.86-0.42Q11.96 0.48 9.44 0.48L9.44 0.48Q7.84 0.48 6.28 0.10Q4.72-0.28 3.56-1L3.56-1Q3.36-1.12 3.28-1.28Q3.20-1.44 3.20-1.76L3.20-1.76L2.80-7.48Q2.76-7.64 2.98-7.68Q3.20-7.72 3.24-7.56L3.24-7.56Q4.20-4.52 5.92-2.40Q7.64-0.28 10.40-0.28L10.40-0.28Q12.28-0.28 13.54-1.30Q14.80-2.32 14.80-4.64L14.80-4.64Q14.80-6.40 14-7.72Q13.20-9.04 12.06-9.94Q10.92-10.84 9-12L9-12Q7.12-13.20 6.02-14.06Q4.92-14.92 4.16-16.18Q3.40-17.44 3.40-19.12L3.40-19.12Q3.40-21.16 4.50-22.60Q5.60-24.04 7.38-24.74Q9.16-25.44 11.12-25.44L11.12-25.44Q13.80-25.44 15.96-24.52L15.96-24.52Q16.56-24.28 16.56-23.80L16.56-23.80L16.76-18.80Q16.76-18.64 16.56-18.60Q16.36-18.56 16.32-18.72L16.32-18.72Q15.88-20.88 14.44-22.82Q13-24.76 10.36-24.76L10.36-24.76Q8.36-24.76 7.26-23.56Q6.16-22.36 6.16-20.52L6.16-20.52Z M41.76-0.48Q41.96-0.48 41.96-0.24Q41.96 0 41.76 0L41.76 0Q41 0 39.40-0.08L39.40-0.08Q37.72-0.16 37-0.16L37-0.16Q36.40-0.16 35.20-0.08L35.20-0.08Q34.08 0 33.48 0L33.48 0Q33.32 0 33.32-0.24Q33.32-0.48 33.48-0.48L33.48-0.48Q34.48-0.48 34.94-0.74Q35.40-1 35.40-1.56L35.40-1.56Q35.40-2.28 34.88-3.36L34.88-3.36L32.28-8.96L26.96-8.96L25.32-4.92Q24.64-3.24 24.64-2.36L24.64-2.36Q24.64-1.36 25.34-0.92Q26.04-0.48 27.52-0.48L27.52-0.48Q27.72-0.48 27.72-0.24Q27.72 0 27.52 0L27.52 0Q26.92 0 25.88-0.08L25.88-0.08Q24.76-0.16 23.80-0.16L23.80-0.16Q22.80-0.16 21.44-0.08L21.44-0.08Q20.24 0 19.52 0L19.52 0Q19.32 0 19.32-0.24Q19.32-0.48 19.52-0.48L19.52-0.48Q20.76-0.48 21.50-0.84Q22.24-1.20 22.86-2.18Q23.48-3.16 24.36-5.28L24.36-5.28L30.20-19.32Q30.28-19.48 30.44-19.48Q30.60-19.48 30.68-19.32L30.68-19.32L37.08-5.48Q38.12-3.28 38.76-2.26Q39.40-1.24 40.06-0.86Q40.72-0.48 41.76-0.48L41.76-0.48ZM29.44-15.04L27.32-9.80L31.88-9.80L29.44-15.04Z M63.64-18.72Q63.72-18.72 63.72-18.48Q63.72-18.24 63.64-18.24L63.64-18.24Q62.12-18.24 61.44-17.28Q60.76-16.32 60.76-14.12L60.76-14.12L60.76 0.44Q60.76 0.52 60.56 0.56Q60.36 0.60 60.28 0.52L60.28 0.52L46.80-15.44L46.48-15.80L46.48-4.60Q46.48-2.40 47.12-1.44Q47.76-0.48 49.28-0.48L49.28-0.48Q49.40-0.48 49.40-0.24Q49.40 0 49.28 0L49.28 0Q48.40 0 47.92-0.04L47.92-0.04L46.12-0.08L44.36-0.04Q43.84 0 42.88 0L42.88 0Q42.76 0 42.76-0.24Q42.76-0.48 42.88-0.48L42.88-0.48Q44.40-0.48 45.06-1.44Q45.72-2.40 45.72-4.60L45.72-4.60L45.72-16.64Q44.88-17.48 44.18-17.86Q43.48-18.24 42.76-18.24L42.76-18.24Q42.68-18.24 42.68-18.48Q42.68-18.72 42.76-18.72L42.76-18.72L45-18.68Q45.40-18.68 45.92-18.70Q46.44-18.72 47.64-18.72L47.64-18.72Q47.96-18.72 48.14-18.54Q48.32-18.36 48.68-17.84L48.68-17.84Q49.04-17.28 49.56-16.64L49.56-16.64L59.96-4.20L59.96-14.12Q59.96-16.36 59.32-17.30Q58.68-18.24 57.16-18.24L57.16-18.24Q57.08-18.24 57.08-18.48Q57.08-18.72 57.16-18.72L57.16-18.72L58.56-18.68Q59.68-18.60 60.32-18.60L60.32-18.60Q61-18.60 62.12-18.68L62.12-18.68L63.64-18.72Z M70.72-18.12Q68.72-18.12 67.64-17.02Q66.56-15.92 66-13.40L66-13.40Q66-13.32 65.78-13.32Q65.56-13.32 65.56-13.40L65.56-13.40Q65.72-14.64 65.88-16.60Q66.04-18.56 66.04-19.60L66.04-19.60Q66.04-19.80 66.26-19.80Q66.48-19.80 66.48-19.60L66.48-19.60Q66.48-19.08 67.08-18.94Q67.68-18.80 68.60-18.80L68.60-18.80Q72.04-18.72 74.64-18.72L74.64-18.72L78.12-18.76Q78.80-18.80 79.96-18.80L79.96-18.80Q81.48-18.80 82.18-18.98Q82.88-19.16 83.08-19.76L83.08-19.76Q83.16-19.88 83.36-19.88Q83.56-19.88 83.56-19.76L83.56-19.76Q83.28-14.60 83.28-13.40L83.28-13.40Q83.28-13.32 83.06-13.32Q82.84-13.32 82.84-13.40L82.84-13.40Q82.68-15.84 81.64-16.98Q80.60-18.12 78.56-18.12L78.56-18.12Q77.08-18.12 76.60-17.58Q76.12-17.04 76.12-15.48L76.12-15.48L76.12-3.24Q76.12-2 76.34-1.44Q76.56-0.88 77.24-0.68Q77.92-0.48 79.40-0.48L79.40-0.48Q79.48-0.48 79.48-0.24Q79.48 0 79.40 0L79.40 0Q78.08 0 77.36-0.04L77.36-0.04L74.56-0.08L71.80-0.04Q71.04 0 69.72 0L69.72 0Q69.64 0 69.64-0.24Q69.64-0.48 69.72-0.48L69.72-0.48Q71.20-0.48 71.88-0.68Q72.56-0.88 72.82-1.46Q73.08-2.04 73.08-3.24L73.08-3.24L73.08-15.56Q73.08-16.68 72.92-17.20Q72.76-17.72 72.28-17.92Q71.80-18.12 70.72-18.12L70.72-18.12Z M105.32-0.48Q105.52-0.48 105.52-0.24Q105.52 0 105.32 0L105.32 0Q104.56 0 102.96-0.08L102.96-0.08Q101.28-0.16 100.56-0.16L100.56-0.16Q99.96-0.16 98.76-0.08L98.76-0.08Q97.64 0 97.04 0L97.04 0Q96.88 0 96.88-0.24Q96.88-0.48 97.04-0.48L97.04-0.48Q98.04-0.48 98.50-0.74Q98.96-1 98.96-1.56L98.96-1.56Q98.96-2.28 98.44-3.36L98.44-3.36L95.84-8.96L90.52-8.96L88.88-4.92Q88.20-3.24 88.20-2.36L88.20-2.36Q88.20-1.36 88.90-0.92Q89.60-0.48 91.08-0.48L91.08-0.48Q91.28-0.48 91.28-0.24Q91.28 0 91.08 0L91.08 0Q90.48 0 89.44-0.08L89.44-0.08Q88.32-0.16 87.36-0.16L87.36-0.16Q86.36-0.16 85-0.08L85-0.08Q83.80 0 83.08 0L83.08 0Q82.88 0 82.88-0.24Q82.88-0.48 83.08-0.48L83.08-0.48Q84.32-0.48 85.06-0.84Q85.80-1.20 86.42-2.18Q87.04-3.16 87.92-5.28L87.92-5.28L93.76-19.32Q93.84-19.48 94-19.48Q94.16-19.48 94.24-19.32L94.24-19.32L100.64-5.48Q101.68-3.28 102.32-2.26Q102.96-1.24 103.62-0.86Q104.28-0.48 105.32-0.48L105.32-0.48ZM93-15.04L90.88-9.80L95.44-9.80L93-15.04Z M127.20-18.72Q127.28-18.72 127.28-18.48Q127.28-18.24 127.20-18.24L127.20-18.24Q125.68-18.24 125-17.28Q124.32-16.32 124.32-14.12L124.32-14.12L124.32 0.44Q124.32 0.52 124.12 0.56Q123.92 0.60 123.84 0.52L123.84 0.52L110.36-15.44L110.04-15.80L110.04-4.60Q110.04-2.40 110.68-1.44Q111.32-0.48 112.84-0.48L112.84-0.48Q112.96-0.48 112.96-0.24Q112.96 0 112.84 0L112.84 0Q111.96 0 111.48-0.04L111.48-0.04L109.68-0.08L107.92-0.04Q107.40 0 106.44 0L106.44 0Q106.32 0 106.32-0.24Q106.32-0.48 106.44-0.48L106.44-0.48Q107.96-0.48 108.62-1.44Q109.28-2.40 109.28-4.60L109.28-4.60L109.28-16.64Q108.44-17.48 107.74-17.86Q107.04-18.24 106.32-18.24L106.32-18.24Q106.24-18.24 106.24-18.48Q106.24-18.72 106.32-18.72L106.32-18.72L108.56-18.68Q108.96-18.68 109.48-18.70Q110-18.72 111.20-18.72L111.20-18.72Q111.52-18.72 111.70-18.54Q111.88-18.36 112.24-17.84L112.24-17.84Q112.60-17.28 113.12-16.64L113.12-16.64L123.52-4.20L123.52-14.12Q123.52-16.36 122.88-17.30Q122.24-18.24 120.72-18.24L120.72-18.24Q120.64-18.24 120.64-18.48Q120.64-18.72 120.72-18.72L120.72-18.72L122.12-18.68Q123.24-18.60 123.88-18.60L123.88-18.60Q124.56-18.60 125.68-18.68L125.68-18.68L127.20-18.72Z M150.36-0.48Q150.56-0.48 150.56-0.24Q150.56 0 150.36 0L150.36 0Q149.60 0 148-0.08L148-0.08Q146.32-0.16 145.60-0.16L145.60-0.16Q145-0.16 143.80-0.08L143.80-0.08Q142.68 0 142.08 0L142.08 0Q141.92 0 141.92-0.24Q141.92-0.48 142.08-0.48L142.08-0.48Q143.08-0.48 143.54-0.74Q144-1 144-1.56L144-1.56Q144-2.28 143.48-3.36L143.48-3.36L140.88-8.96L135.56-8.96L133.92-4.92Q133.24-3.24 133.24-2.36L133.24-2.36Q133.24-1.36 133.94-0.92Q134.64-0.48 136.12-0.48L136.12-0.48Q136.32-0.48 136.32-0.24Q136.32 0 136.12 0L136.12 0Q135.52 0 134.48-0.08L134.48-0.08Q133.36-0.16 132.40-0.16L132.40-0.16Q131.40-0.16 130.04-0.08L130.04-0.08Q128.84 0 128.12 0L128.12 0Q127.92 0 127.92-0.24Q127.92-0.48 128.12-0.48L128.12-0.48Q129.36-0.48 130.10-0.84Q130.84-1.20 131.46-2.18Q132.08-3.16 132.96-5.28L132.96-5.28L138.80-19.32Q138.88-19.48 139.04-19.48Q139.20-19.48 139.28-19.32L139.28-19.32L145.68-5.48Q146.72-3.28 147.36-2.26Q148-1.24 148.66-0.86Q149.32-0.48 150.36-0.48L150.36-0.48ZM138.04-15.04L135.92-9.80L140.48-9.80L138.04-15.04Z M154.48 0.44Q153.60 0.44 153.06-0.10Q152.52-0.64 152.52-1.52L152.52-1.52Q152.52-2.40 153.04-2.90Q153.56-3.40 154.48-3.40L154.48-3.40Q155.40-3.40 155.90-2.90Q156.40-2.40 156.40-1.52L156.40-1.52Q156.40-0.60 155.90-0.08Q155.40 0.44 154.48 0.44L154.48 0.44Z M170.84-19.20Q172.36-19.20 174.10-18.90Q175.84-18.60 176.92-18.04L176.92-18.04Q177.20-17.92 177.28-17.80Q177.36-17.68 177.40-17.36L177.40-17.36L177.72-13.24Q177.72-13.12 177.50-13.08Q177.28-13.04 177.24-13.20L177.24-13.20Q175.32-18.52 170.12-18.52L170.12-18.52Q168.08-18.52 166.54-17.44Q165-16.36 164.14-14.42Q163.28-12.48 163.28-10.04L163.28-10.04Q163.28-7.56 164.14-5.30Q165-3.04 166.78-1.60Q168.56-0.16 171.12-0.16L171.12-0.16Q173.44-0.16 175.04-1.48Q176.64-2.80 177.60-5.60L177.60-5.60Q177.64-5.76 177.86-5.72Q178.08-5.68 178.08-5.56L178.08-5.56L177.64-1.32Q177.60-1 177.52-0.88Q177.44-0.76 177.08-0.60L177.08-0.60Q174 0.48 170.68 0.48L170.68 0.48Q166.88 0.48 164.42-1.04Q161.96-2.56 160.88-4.84Q159.80-7.12 159.80-9.44L159.80-9.44Q159.80-12.20 161.24-14.42Q162.68-16.64 165.22-17.92Q167.76-19.20 170.84-19.20L170.84-19.20Z M190.48 0.48Q187.68 0.48 185.48-0.84Q183.28-2.16 182.06-4.40Q180.84-6.64 180.84-9.28L180.84-9.28Q180.84-12.36 182.44-14.62Q184.04-16.88 186.54-18.04Q189.04-19.20 191.64-19.20L191.64-19.20Q194.44-19.20 196.60-17.82Q198.76-16.44 199.92-14.24Q201.08-12.04 201.08-9.64L201.08-9.64Q201.08-6.96 199.64-4.62Q198.20-2.28 195.78-0.90Q193.36 0.48 190.48 0.48L190.48 0.48ZM191.48-0.36Q194.32-0.36 196.02-2.56Q197.72-4.76 197.72-8.68L197.72-8.68Q197.72-11.32 196.84-13.52Q195.96-15.72 194.28-17.02Q192.60-18.32 190.28-18.32L190.28-18.32Q187.36-18.32 185.76-16.24Q184.16-14.16 184.16-10.36L184.16-10.36Q184.16-7.56 185.08-5.28Q186-3 187.66-1.68Q189.32-0.36 191.48-0.36L191.48-0.36Z M228.76-0.48Q228.84-0.48 228.84-0.24Q228.84 0 228.76 0L228.76 0Q227.64 0 227-0.04L227-0.04L224.64-0.08L221.92-0.04Q221.24 0 220.04 0L220.04 0Q219.96 0 219.96-0.24Q219.96-0.48 220.04-0.48L220.04-0.48Q221.40-0.48 222.06-0.70Q222.72-0.92 222.94-1.48Q223.16-2.04 223.08-3.24L223.08-3.24L222.56-16.40L215.88-0.28Q215.80-0.12 215.60-0.12L215.60-0.12Q215.36-0.12 215.28-0.28L215.28-0.28L207.60-15.28L207.32-4.60Q207.28-2.40 207.90-1.44Q208.52-0.48 210.04-0.48L210.04-0.48Q210.16-0.48 210.16-0.24Q210.16 0 210.04 0L210.04 0Q209.16 0 208.68-0.04L208.68-0.04L206.88-0.08L205.12-0.04Q204.60 0 203.64 0L203.64 0Q203.56 0 203.56-0.24Q203.56-0.48 203.64-0.48L203.64-0.48Q205.12-0.48 205.78-1.42Q206.44-2.36 206.52-4.60L206.52-4.60L206.84-16.60Q205.64-18.24 203.88-18.24L203.88-18.24Q203.76-18.24 203.76-18.48Q203.76-18.72 203.88-18.72L203.88-18.72L206.44-18.68L208.52-18.72Q209.04-18.72 209.38-18.34Q209.72-17.96 210.40-16.64L210.40-16.64L216.72-4.16L222.32-17.72Q222.48-18.16 222.82-18.44Q223.16-18.72 223.52-18.72L223.52-18.72L225.76-18.68L228.56-18.72Q228.64-18.72 228.64-18.48Q228.64-18.24 228.56-18.24L228.56-18.24Q226.88-18.24 226.16-17.70Q225.44-17.16 225.56-15.56L225.56-15.56L226.12-3.24Q226.20-2 226.38-1.44Q226.56-0.88 227.08-0.68Q227.60-0.48 228.76-0.48L228.76-0.48Z"/></g>
</svg>
</g><g opacity="1" transform="rotate(0 38.7214 232.2537)">
<svg width="30" height="2" x="38.7214" y="232.2537" version="1.1" preserveAspectRatio="none" viewBox="0 0 30 2">
  <defs><rect x="0" y="0" width="30" height="2" rx="0%" ry="0%" id="id-fxEKKCpm1705159988318"></rect></defs><use class="text shapeStroke-str" style="stroke-width:0;" xlink:href="#id-fxEKKCpm1705159988318"></use>
</svg>
</g></svg></svg>