<svg version="1.1" preserveAspectRatio="none" xmlns="http://www.w3.org/2000/svg" width="500" height="500" viewBox="0 0 500 500"><rect width="100%" height="100%" fill="#010506" fill-opacity="1"/><svg viewBox="73.6825 214.4934 461.2401 52" width="333" height="37.54226919992429" x="83.5px" y="231.2289px" xmlns="http://www.w3.org/2000/svg" xmlns:xlink="http://www.w3.org/1999/xlink" preserveAspectRatio="none"><defs></defs><style>.background {fill:#010506;fill-opacity:1;}.companyName {fill:#EEF8F7;fill-opacity:1;}.icon1 {fill:#E35F21;fill-opacity:1;}.icon2 {fill:#EEF8F7;fill-opacity:1;}.icon3 {fill:#FAAB05;fill-opacity:1;}.icon3-str {stroke:#FAAB05;stroke-opacity:1;}.shapeStroke-str {stroke:#E35F21;stroke-opacity:1;}</style><g opacity="1" transform="rotate(0 73.6825 214.4934)">
<svg width="52" height="52" x="73.6825" y="214.4934" version="1.1" preserveAspectRatio="none" viewBox="0 0 52 52">
  <defs><rect x="0" y="0" width="52" height="52" rx="150px" ry="150px" id="id-3WKIowxM31705159998181"></rect></defs><use class="icon1 shapeStroke-str" style="stroke-width:0;" xlink:href="#id-3WKIowxM31705159998181"></use>
</svg>
</g><g opacity="1" transform="rotate(0 84.5538 222.2934)">
<svg width="30.2575" height="36.4" x="84.5538" y="222.2934" version="1.1" preserveAspectRatio="none" viewBox="33.5 20 133 160">
  <g transform="matrix(1 0 0 1 0 0)"><g><path d="M165.3 81l-58.6-30.5v60.7l58.6 30.5V81z" data-color="1" class="background"></path><path d="M107.9 111.1l-74.4 38.2V58.2L107.9 20v91.1z" data-color="2" class="icon2"></path><path d="M166.5 141.8L92.1 180V88.9l74.4-38.2v91.1z" data-color="3" class="icon3"></path><path d="M92.2 119.3L33.6 88.8v60.7L92.2 180v-60.7z" data-color="1" class="background"></path></g></g>
</svg>
</g><g opacity="1" transform="rotate(0 145.6825 220.4934)">
<svg width="389.2401" height="40" x="145.6825" y="220.4934" version="1.1" preserveAspectRatio="none" viewBox="1.52 -28.72 282.20000000000005 29">
  <g transform="matrix(1 0 0 1 0 0)" class="companyName"><path id="id-D6z1nYkh11" d="M22.68-7.96Q22.68-5.72 21.54-3.84Q20.40-1.96 18.18-0.84Q15.96 0.28 12.80 0.28L12.80 0.28Q8.04 0.28 4.96-2.04Q1.88-4.36 1.60-8.52L1.60-8.52L8.88-8.52Q9.04-6.92 10.02-6Q11-5.08 12.52-5.08L12.52-5.08Q13.84-5.08 14.60-5.80Q15.36-6.52 15.36-7.72L15.36-7.72Q15.36-8.80 14.66-9.52Q13.96-10.24 12.92-10.70Q11.88-11.16 10.04-11.80L10.04-11.80Q7.36-12.72 5.66-13.58Q3.96-14.44 2.74-16.14Q1.52-17.84 1.52-20.56L1.52-20.56Q1.52-23.08 2.80-24.92Q4.08-26.76 6.34-27.74Q8.60-28.72 11.52-28.72L11.52-28.72Q16.24-28.72 19.02-26.48Q21.80-24.24 22.16-20.32L22.16-20.32L14.76-20.32Q14.56-21.72 13.74-22.54Q12.92-23.36 11.52-23.36L11.52-23.36Q10.32-23.36 9.58-22.72Q8.84-22.08 8.84-20.84L8.84-20.84Q8.84-19.84 9.50-19.14Q10.16-18.44 11.16-18Q12.16-17.56 14.04-16.88L14.04-16.88Q16.76-15.96 18.48-15.06Q20.20-14.16 21.44-12.44Q22.68-10.72 22.68-7.96L22.68-7.96Z M35.76-22.60Q38.32-22.60 40.16-21.44Q42-20.28 42.88-18.28L42.88-18.28L42.88-22.32L49.68-22.32L49.68 0L42.88 0L42.88-4.04Q42-2.04 40.16-0.88Q38.32 0.28 35.76 0.28L35.76 0.28Q33 0.28 30.82-1.10Q28.64-2.48 27.38-5.08Q26.12-7.68 26.12-11.16L26.12-11.16Q26.12-14.68 27.38-17.26Q28.64-19.84 30.82-21.22Q33-22.60 35.76-22.60L35.76-22.60ZM37.96-16.60Q35.76-16.60 34.42-15.16Q33.08-13.72 33.08-11.16L33.08-11.16Q33.08-8.60 34.42-7.16Q35.76-5.72 37.96-5.72L37.96-5.72Q40.12-5.72 41.50-7.20Q42.88-8.68 42.88-11.16L42.88-11.16Q42.88-13.68 41.50-15.14Q40.12-16.60 37.96-16.60L37.96-16.60Z M69.36-22.56Q73.20-22.56 75.46-20Q77.72-17.44 77.72-12.96L77.72-12.96L77.72 0L70.88 0L70.88-12.16Q70.88-14.40 69.70-15.66Q68.52-16.92 66.56-16.92L66.56-16.92Q64.48-16.92 63.26-15.60Q62.04-14.28 62.04-11.84L62.04-11.84L62.04 0L55.20 0L55.20-22.32L62.04-22.32L62.04-18.24Q63-20.24 64.90-21.40Q66.80-22.56 69.36-22.56L69.36-22.56Z M93.52-5.88L95.68-5.88L95.68 0L92.60 0Q88.68 0 86.50-1.94Q84.32-3.88 84.32-8.36L84.32-8.36L84.32-16.56L81.32-16.56L81.32-22.32L84.32-22.32L84.32-27.80L91.16-27.80L91.16-22.32L95.64-22.32L95.64-16.56L91.16-16.56L91.16-8.24Q91.16-6.92 91.70-6.40Q92.24-5.88 93.52-5.88L93.52-5.88Z M108.80-22.60Q111.36-22.60 113.20-21.44Q115.04-20.28 115.92-18.28L115.92-18.28L115.92-22.32L122.72-22.32L122.72 0L115.92 0L115.92-4.04Q115.04-2.04 113.20-0.88Q111.36 0.28 108.80 0.28L108.80 0.28Q106.04 0.28 103.86-1.10Q101.68-2.48 100.42-5.08Q99.16-7.68 99.16-11.16L99.16-11.16Q99.16-14.68 100.42-17.26Q101.68-19.84 103.86-21.22Q106.04-22.60 108.80-22.60L108.80-22.60ZM111-16.60Q108.80-16.60 107.46-15.16Q106.12-13.72 106.12-11.16L106.12-11.16Q106.12-8.60 107.46-7.16Q108.80-5.72 111-5.72L111-5.72Q113.16-5.72 114.54-7.20Q115.92-8.68 115.92-11.16L115.92-11.16Q115.92-13.68 114.54-15.14Q113.16-16.60 111-16.60L111-16.60Z M142.40-22.56Q146.24-22.56 148.50-20Q150.76-17.44 150.76-12.96L150.76-12.96L150.76 0L143.92 0L143.92-12.16Q143.92-14.40 142.74-15.66Q141.56-16.92 139.60-16.92L139.60-16.92Q137.52-16.92 136.30-15.60Q135.08-14.28 135.08-11.84L135.08-11.84L135.08 0L128.24 0L128.24-22.32L135.08-22.32L135.08-18.24Q136.04-20.24 137.94-21.40Q139.84-22.56 142.40-22.56L142.40-22.56Z M164.56-22.60Q167.12-22.60 168.96-21.44Q170.80-20.28 171.68-18.28L171.68-18.28L171.68-22.32L178.48-22.32L178.48 0L171.68 0L171.68-4.04Q170.80-2.04 168.96-0.88Q167.12 0.28 164.56 0.28L164.56 0.28Q161.80 0.28 159.62-1.10Q157.44-2.48 156.18-5.08Q154.92-7.68 154.92-11.16L154.92-11.16Q154.92-14.68 156.18-17.26Q157.44-19.84 159.62-21.22Q161.80-22.60 164.56-22.60L164.56-22.60ZM166.76-16.60Q164.56-16.60 163.22-15.16Q161.88-13.72 161.88-11.16L161.88-11.16Q161.88-8.60 163.22-7.16Q164.56-5.72 166.76-5.72L166.76-5.72Q168.92-5.72 170.30-7.20Q171.68-8.68 171.68-11.16L171.68-11.16Q171.68-13.68 170.30-15.14Q168.92-16.60 166.76-16.60L166.76-16.60Z M182.80-6.84L189.88-6.84L189.88 0L182.80 0L182.80-6.84Z M204.32-22.60Q208.64-22.60 211.56-20.22Q214.48-17.84 215.24-13.68L215.24-13.68L208.00-13.68Q207.68-15.12 206.68-15.92Q205.68-16.72 204.16-16.72L204.16-16.72Q202.36-16.72 201.20-15.30Q200.04-13.88 200.04-11.16L200.04-11.16Q200.04-8.44 201.20-7.02Q202.36-5.60 204.16-5.60L204.16-5.60Q205.68-5.60 206.68-6.40Q207.68-7.20 208.00-8.64L208.00-8.64L215.24-8.64Q214.48-4.48 211.56-2.10Q208.64 0.28 204.32 0.28L204.32 0.28Q201.04 0.28 198.50-1.10Q195.96-2.48 194.52-5.08Q193.08-7.68 193.08-11.16L193.08-11.16Q193.08-14.68 194.50-17.26Q195.92-19.84 198.48-21.22Q201.04-22.60 204.32-22.60L204.32-22.60Z M230.04-22.60Q233.36-22.60 235.98-21.22Q238.60-19.84 240.10-17.24Q241.60-14.64 241.60-11.16L241.60-11.16Q241.60-7.68 240.10-5.08Q238.60-2.48 235.98-1.10Q233.36 0.28 230.04 0.28L230.04 0.28Q226.72 0.28 224.08-1.10Q221.44-2.48 219.94-5.08Q218.44-7.68 218.44-11.16L218.44-11.16Q218.44-14.64 219.94-17.24Q221.44-19.84 224.08-21.22Q226.72-22.60 230.04-22.60L230.04-22.60ZM230.04-16.68Q228.08-16.68 226.74-15.26Q225.40-13.84 225.40-11.16L225.40-11.16Q225.40-8.48 226.74-7.08Q228.08-5.68 230.04-5.68L230.04-5.68Q232.00-5.68 233.32-7.08Q234.64-8.48 234.64-11.16L234.64-11.16Q234.64-13.84 233.32-15.26Q232.00-16.68 230.04-16.68L230.04-16.68Z M274.88-22.56Q279.00-22.56 281.36-20.02Q283.72-17.48 283.72-12.96L283.72-12.96L283.72 0L276.92 0L276.92-12.16Q276.92-14.28 275.78-15.46Q274.64-16.64 272.68-16.64L272.68-16.64Q270.64-16.64 269.46-15.38Q268.28-14.12 268.28-11.84L268.28-11.84L268.28 0L261.44 0L261.44-12.16Q261.44-14.28 260.32-15.46Q259.20-16.64 257.24-16.64L257.24-16.64Q255.20-16.64 254.00-15.40Q252.80-14.16 252.80-11.84L252.80-11.84L252.80 0L245.96 0L245.96-22.32L252.80-22.32L252.80-18.52Q253.68-20.40 255.50-21.48Q257.32-22.56 259.76-22.56L259.76-22.56Q262.32-22.56 264.28-21.38Q266.24-20.20 267.24-18L267.24-18Q268.40-20.08 270.42-21.32Q272.44-22.56 274.88-22.56L274.88-22.56Z"/></g>
</svg>
</g></svg></svg>