<svg version="1.1" preserveAspectRatio="none" xmlns="http://www.w3.org/2000/svg" width="500" height="500" viewBox="0 0 500 500"><rect width="100%" height="100%" fill="#111931" fill-opacity="1"/><svg viewBox="-49.2118 93.4458 395.5932 36" width="333" height="30.303857599170055" x="83.5px" y="234.8481px" xmlns="http://www.w3.org/2000/svg" xmlns:xlink="http://www.w3.org/1999/xlink" preserveAspectRatio="none"><defs></defs><style>.icon3 {fill:#DDEF3F;fill-opacity:1;}.icon3-str {stroke:#DDEF3F;stroke-opacity:1;}</style><g opacity="1" transform="rotate(0 -49.2118 93.4458)">
<svg width="395.5932" height="36" x="-49.2118" y="93.4458" version="1.1" preserveAspectRatio="none" viewBox="-0.32 -28.48 318.24 28.96">
  <g transform="matrix(1 0 0 1 0 0)" class="icon3"><path id="id-D6z1nYkh11" d="M10.92 0.48Q7.60 0.48 4.56-0.40Q1.52-1.28-0.32-2.64L-0.32-2.64L2.32-7.64Q4.24-6.24 6.64-5.48Q9.04-4.72 11.56-4.72L11.56-4.72Q14.24-4.72 15.80-5.60Q17.36-6.48 17.36-8L17.36-8Q17.36-9.24 16.12-9.90Q14.88-10.56 12.16-11.32L12.16-11.32Q9.44-12.12 7.72-12.86Q6-13.60 4.74-15.08Q3.48-16.56 3.48-19L3.48-19Q3.48-21.84 5.06-24Q6.64-26.16 9.54-27.32Q12.44-28.48 16.28-28.48L16.28-28.48Q19.12-28.48 21.64-27.86Q24.16-27.24 25.96-26.08L25.96-26.08L23.52-21.12Q21.96-22.20 20-22.74Q18.04-23.28 15.92-23.28L15.92-23.28Q13.16-23.28 11.56-22.32Q9.96-21.36 9.96-19.84L9.96-19.84Q9.96-18.92 10.64-18.30Q11.32-17.68 12.36-17.30Q13.40-16.92 15.28-16.40L15.28-16.40Q17.96-15.68 19.68-14.94Q21.40-14.20 22.62-12.78Q23.84-11.36 23.84-9.04L23.84-9.04Q23.84-6.16 22.24-4.02Q20.64-1.88 17.72-0.70Q14.80 0.48 10.92 0.48L10.92 0.48Z M47.92 0L46.60-6L33.56-6L29.92 0L23 0L41.12-28L47.52-28L54.40 0L47.92 0ZM36.56-10.92L45.52-10.92L43.16-21.72L36.56-10.92Z M82.20-28L88.60-28L83 0L77.68 0L67.24-17.52L63.72 0L57.32 0L62.92-28L68.28-28L78.72-10.44L82.20-28Z M95.44 0L99.96-22.72L91.00-22.72L92.08-28L116.48-28L115.40-22.72L106.48-22.72L101.92 0L95.44 0Z M134.20 0L132.88-6L119.84-6L116.20 0L109.28 0L127.40-28L133.80-28L140.68 0L134.20 0ZM122.84-10.92L131.80-10.92L129.44-21.72L122.84-10.92Z M168.48-28L174.88-28L169.28 0L163.96 0L153.52-17.52L150 0L143.60 0L149.20-28L154.56-28L165-10.44L168.48-28Z M197.16 0L195.84-6L182.80-6L179.16 0L172.24 0L190.36-28L196.76-28L203.64 0L197.16 0ZM185.80-10.92L194.76-10.92L192.40-21.72L185.80-10.92Z M210.28 0.32Q208.68 0.32 207.64-0.70Q206.60-1.72 206.60-3.28L206.60-3.28Q206.60-5.12 207.80-6.28Q209.00-7.44 210.76-7.44L210.76-7.44Q212.36-7.44 213.38-6.44Q214.40-5.44 214.40-3.84L214.40-3.84Q214.40-2.04 213.18-0.86Q211.96 0.32 210.28 0.32L210.28 0.32Z M233.04 0.48Q228.84 0.48 225.70-1.04Q222.56-2.56 220.88-5.32Q219.20-8.08 219.20-11.68L219.20-11.68Q219.20-16.44 221.38-20.26Q223.56-24.08 227.52-26.28Q231.48-28.48 236.60-28.48L236.60-28.48Q240.36-28.48 243.24-27.20Q246.12-25.92 247.60-23.52L247.60-23.52L242.92-19.68Q240.68-22.96 236.16-22.96L236.16-22.96Q233.08-22.96 230.72-21.52Q228.36-20.08 227.06-17.60Q225.76-15.12 225.76-12.08L225.76-12.08Q225.76-8.84 227.82-6.94Q229.88-5.04 233.60-5.04L233.60-5.04Q238.04-5.04 241.04-8.28L241.04-8.28L244.88-4.36Q240.72 0.48 233.04 0.48L233.04 0.48Z M261.56 0.48Q257.36 0.48 254.28-1.04Q251.20-2.56 249.56-5.32Q247.92-8.08 247.92-11.68L247.92-11.68Q247.92-16.44 250.10-20.26Q252.28-24.08 256.22-26.28Q260.16-28.48 265.24-28.48L265.24-28.48Q269.44-28.48 272.52-26.96Q275.60-25.44 277.24-22.68Q278.88-19.92 278.88-16.32L278.88-16.32Q278.88-11.56 276.70-7.74Q274.52-3.92 270.58-1.72Q266.64 0.48 261.56 0.48L261.56 0.48ZM262.12-5.04Q265.20-5.04 267.52-6.52Q269.84-8 271.08-10.48Q272.32-12.96 272.32-15.96L272.32-15.96Q272.32-19.16 270.32-21.06Q268.32-22.96 264.68-22.96L264.68-22.96Q261.60-22.96 259.28-21.48Q256.96-20 255.72-17.52Q254.48-15.04 254.48-12.04L254.48-12.04Q254.48-8.84 256.48-6.94Q258.48-5.04 262.12-5.04L262.12-5.04Z M312.36-28L317.92-28L312.36 0L306.28 0L309.56-16.64L298.88-2.96L296-2.96L290.24-16.80L286.88 0L280.80 0L286.40-28L291.68-28L298.68-10.56L312.36-28Z"/></g>
</svg>
</g></svg></svg>