<svg version="1.1" preserveAspectRatio="none" xmlns="http://www.w3.org/2000/svg" width="500" height="500" viewBox="0 0 500 500"><rect width="100%" height="100%" fill="#FFEB62" fill-opacity="1"/><svg viewBox="43.0574 -10.9652 381.6173 411.2848" width="308.97947334790877" height="333" x="95.5103px" y="83.5px" xmlns="http://www.w3.org/2000/svg" xmlns:xlink="http://www.w3.org/1999/xlink" preserveAspectRatio="none"><defs></defs><style>.companyName {fill:#262626;fill-opacity:1;}.icon1 {fill:#262626;fill-opacity:1;}.icon2 {fill:#FF7B04;fill-opacity:1;}.icon3 {fill:#928B53;fill-opacity:1;}.icon3-str {stroke:#928B53;stroke-opacity:1;}</style><g opacity="1" transform="rotate(0 43.0574 -10.9652)">
<svg width="381.6173" height="337.2848" x="43.0574" y="-10.9652" version="1.1" preserveAspectRatio="none" viewBox="7.005292892456055 11.99993896484375 85.98941040039062 76.00006103515625">
  <g transform="matrix(1 0 0 1 0 0)" class="icon1"><g transform="translate(0,-952.36218)"><path style="text-indent:0;text-transform:none;direction:ltr;block-progression:tb;baseline-shift:baseline;color:#000000;enable-background:accumulate;" d="m 8.0052926,964.3622 c -0.5523,0 -1,0.44772 -1,1 0,0.55228 0.4477,1 1,1 l 11.3125004,0 c 5.2115,12.98498 10.3987,25.97442 15.5937,38.9687 l -4.8437,11.6251 c -0.2727,0.6131 0.2666,1.4221 0.9375,1.4062 l 50,0 c 0.5283,0.01 1.0142,-0.4716 1.0142,-1 0,-0.5283 -0.4859,-1.0074 -1.0142,-1 l -48.5,0 4.2188,-10.0938 49.375,-3.9375 c 0.4076,-0.039 0.7745,-0.3531 0.875,-0.75 l 5.999995,-25.99995 c 0.13,-0.58038 -0.374,-1.21453 -0.968795,-1.21875 l -67.3125,0 -3.75,-9.375 c -0.1496,-0.36985 -0.5386,-0.62914 -0.9375,-0.625 z m 17.5000004,12 65.25,0 -5.5625,24.0625 -48.5313,3.875 z m 15.5,48 c -4.4064,0 -8,3.5936 -8,8 0,4.4065 3.5936,8 8,8 4.4064,0 8,-3.5935 8,-8 0,-4.4064 -3.5936,-8 -8,-8 z m 30,0 c -4.4064,0 -8,3.5936 -8,8 0,4.4065 3.5936,8 8,8 4.4064,0 8,-3.5935 8,-8 0,-4.4064 -3.5936,-8 -8,-8 z m -30,2 c 3.3256,0 6,2.6745 6,6 0,3.3256 -2.6744,6 -6,6 -3.3254,0 -6,-2.6744 -6,-6 0,-3.3255 2.6746,-6 6,-6 z m 30,0 c 3.3254,0 6,2.6745 6,6 0,3.3256 -2.6746,6 -6,6 -3.3256,0 -6,-2.6744 -6,-6 0,-3.3255 2.6744,-6 6,-6 z" marker="none" visibility="visible" display="inline" overflow="visible"></path></g></g>
</svg>
</g><g opacity="1" transform="rotate(0 43.0574 366.3196)">
<svg width="381.6173" height="34" x="43.0574" y="366.3196" version="1.1" preserveAspectRatio="none" viewBox="-0.92 -28.64 328.64000000000004 29.28">
  <g transform="matrix(1 0 0 1 0 0)" class="companyName"><path id="id-D6z1nYkh11" d="M11.20 0.64Q7.56 0.64 4.36-0.14Q1.16-0.92-0.92-2.20L-0.92-2.20L2.72-9.16Q7.24-6.56 12.16-6.56L12.16-6.56Q13.96-6.56 14.92-7Q15.88-7.44 15.88-8.20L15.88-8.20Q15.88-8.92 14.90-9.36Q13.92-9.80 11.80-10.32L11.80-10.32Q9-11.04 7.16-11.78Q5.32-12.52 3.94-14.06Q2.56-15.60 2.56-18.12L2.56-18.12Q2.56-21.28 4.26-23.66Q5.96-26.04 9.16-27.34Q12.36-28.64 16.72-28.64L16.72-28.64Q19.84-28.64 22.54-28.02Q25.24-27.40 27.20-26.24L27.20-26.24L23.80-19.36Q22.16-20.40 20.18-20.92Q18.20-21.44 16.12-21.44L16.12-21.44Q14.16-21.44 13.08-20.88Q12-20.32 12-19.56L12-19.56Q12-18.80 12.98-18.36Q13.96-17.92 16.20-17.40L16.20-17.40Q18.92-16.76 20.78-16.04Q22.64-15.32 24-13.80Q25.36-12.28 25.36-9.80L25.36-9.80Q25.36-6.68 23.64-4.32Q21.92-1.96 18.72-0.66Q15.52 0.64 11.20 0.64L11.20 0.64Z M47.68 0L46.76-4.88L36.08-4.88L33.28 0L23.32 0L41.16-28L50.44-28L57.08 0L47.68 0ZM39.96-11.68L45.44-11.68L44.08-18.84L39.96-11.68Z M82.60-28L91.80-28L86.20 0L78.44 0L70.40-13.04L67.80 0L58.60 0L64.20-28L71.96-28L80-14.96L82.60-28Z M96.84 0L100.96-20.68L92.76-20.68L94.24-28L120.08-28L118.60-20.68L110.40-20.68L106.28 0L96.84 0Z M136.84 0L135.92-4.88L125.24-4.88L122.44 0L112.48 0L130.32-28L139.60-28L146.24 0L136.84 0ZM129.12-11.68L134.60-11.68L133.24-18.84L129.12-11.68Z M171.76-28L180.96-28L175.36 0L167.60 0L159.56-13.04L156.96 0L147.76 0L153.36-28L161.12-28L169.16-14.96L171.76-28Z M201.24 0L200.32-4.88L189.64-4.88L186.84 0L176.88 0L194.72-28L204-28L210.64 0L201.24 0ZM193.52-11.68L199-11.68L197.64-18.84L193.52-11.68Z M217.76 0.40Q215.56 0.40 214.18-0.94Q212.80-2.28 212.80-4.36L212.80-4.36Q212.80-6.84 214.44-8.38Q216.08-9.92 218.48-9.92L218.48-9.92Q220.68-9.92 222.04-8.60Q223.40-7.28 223.40-5.16L223.40-5.16Q223.40-2.68 221.76-1.14Q220.12 0.40 217.76 0.40L217.76 0.40Z M241.44 0.64Q237.16 0.64 233.90-0.94Q230.64-2.52 228.86-5.36Q227.08-8.20 227.08-11.88L227.08-11.88Q227.08-16.76 229.34-20.56Q231.60-24.36 235.62-26.50Q239.64-28.64 244.76-28.64L244.76-28.64Q248.80-28.64 251.92-27.18Q255.04-25.72 256.56-23.04L256.56-23.04L249.76-17.72Q247.88-21 244.16-21L244.16-21Q241.96-21 240.24-19.92Q238.52-18.84 237.56-16.90Q236.60-14.96 236.60-12.48L236.60-12.48Q236.60-10 238.18-8.50Q239.76-7 242.36-7L242.36-7Q245.92-7 248.60-10.24L248.60-10.24L254.16-4.92Q251.72-1.92 248.62-0.64Q245.52 0.64 241.44 0.64L241.44 0.64Z M270.44 0.64Q266.16 0.64 262.94-0.94Q259.72-2.52 257.98-5.36Q256.24-8.20 256.24-11.88L256.24-11.88Q256.24-16.76 258.50-20.58Q260.76-24.40 264.78-26.52Q268.80-28.64 273.88-28.64L273.88-28.64Q278.16-28.64 281.38-27.06Q284.60-25.48 286.34-22.64Q288.08-19.80 288.08-16.12L288.08-16.12Q288.08-11.24 285.82-7.42Q283.56-3.60 279.54-1.48Q275.52 0.64 270.44 0.64L270.44 0.64ZM271.24-7Q273.48-7 275.14-8.16Q276.80-9.32 277.68-11.28Q278.56-13.24 278.56-15.56L278.56-15.56Q278.56-18.04 277.10-19.52Q275.64-21 273.08-21L273.08-21Q270.84-21 269.18-19.84Q267.52-18.68 266.64-16.72Q265.76-14.76 265.76-12.44L265.76-12.44Q265.76-9.96 267.22-8.48Q268.68-7 271.24-7L271.24-7Z M319.68-28L327.72-28L322.20 0L313.60 0L316.08-12.76L308.20-2.52L304.04-2.52L299.72-12.60L297.20 0L288.60 0L294.20-28L301.88-28L307.96-13.12L319.68-28Z"/></g>
</svg>
</g></svg></svg>