<svg version="1.1" preserveAspectRatio="none" xmlns="http://www.w3.org/2000/svg" width="500" height="500" viewBox="0 0 500 500"><rect width="100%" height="100%" fill="#F5E7E0" fill-opacity="1"/><svg viewBox="47.2874 120.9353 380.8193 180.2457" width="333" height="157.6123324106735" x="83.5px" y="171.1938px" xmlns="http://www.w3.org/2000/svg" xmlns:xlink="http://www.w3.org/1999/xlink" preserveAspectRatio="none"><defs></defs><style>.companyName {fill:#C66358;fill-opacity:1;}.icon1 {fill:#C66358;fill-opacity:1;}.icon2 {fill:#E3BBA7;fill-opacity:1;}.icon3 {fill:#985A55;fill-opacity:1;}.icon3-str {stroke:#985A55;stroke-opacity:1;}</style><g opacity="1" transform="rotate(0 180.5741 120.9353)">
<svg width="114.2458" height="114.2457" x="180.5741" y="120.9353" version="1.1" preserveAspectRatio="none" viewBox="0 0 48 48">
  <g transform="matrix(1 0 0 1 0 0)" class="icon1"><g transform="translate(0,-1004.3622)"><g><path style="color:#000000;font-style:normal;font-variant:normal;font-weight:normal;font-stretch:normal;font-size:medium;line-height:normal;text-indent:0;text-align:start;text-decoration:none;text-decoration-line:none;text-decoration-style:solid;text-decoration-color:#000000;letter-spacing:normal;word-spacing:normal;text-transform:none;direction:ltr;block-progression:tb;writing-mode:lr-tb;baseline-shift:baseline;text-anchor:start;white-space:normal;clip-rule:nonzero;display:inline;overflow:visible;visibility:visible;opacity:1;isolation:auto;mix-blend-mode:normal;color-interpolation:sRGB;color-interpolation-filters:linearRGB;solid-color:#000000;solid-opacity:1;fill-rule:nonzero;stroke-width:1;stroke-linecap:round;stroke-linejoin:round;stroke-miterlimit:4;stroke-dasharray:none;stroke-dashoffset:0;color-rendering:auto;image-rendering:auto;shape-rendering:auto;text-rendering:auto;enable-background:accumulate" d="M 24 0 C 10.751464 0 -3.7000003e-005 10.748847 0 23.998047 C 1.8999997e-005 37.247147 10.751505 48 24 48 C 37.248495 48 47.999981 37.247147 48 23.998047 C 48.000038 10.748847 37.248536 0 24 0 z M 24 1.0078125 C 36.70433 1.0078125 46.992224 11.293247 46.992188 23.998047 C 46.99217 36.702847 36.704291 46.992188 24 46.992188 C 11.295709 46.992188 1.0078305 36.702847 1.0078125 23.998047 C 1.0077755 11.293247 11.29567 1.0078125 24 1.0078125 z M 23.53125 9 C 21.036452 9 19 11.0148 19 13.5 L 19 16 L 20 16 L 20 13.5 C 20 11.5545 21.570157 10 23.53125 10 C 23.856933 10 24.170482 10.045 24.46875 10.125 C 22.486164 10.6014 21 12.3797 21 14.5 L 21 16 L 22 16 L 22 14.5 C 22 12.5545 23.570157 11 25.53125 11 C 25.701421 11 25.867871 11.01025 26.03125 11.03125 C 26.666483 11.66305 27.03125 12.5273 27.03125 13.5 L 27.03125 16 L 28.03125 16 L 28.03125 13.5 C 28.03125 12.8787 27.916482 12.2884 27.6875 11.75 C 28.512703 12.3882 29.03125 13.3703 29.03125 14.5 L 29.03125 16 L 30.03125 16 L 30.03125 14.5 C 30.03125 12.336 28.51304 10.52475 26.46875 10.09375 C 25.6771 9.41615 24.656049 9 23.53125 9 z M 14.5 17 C 14.285764 17 14.10493 17.1317 14.03125 17.3125 C 14.0067 17.3728 14 17.429 14 17.5 C 14.001647 17.723 14.150326 17.9716 14.46875 18.125 C 14.789121 18.2771 15.210879 18.2771 15.53125 18.125 C 15.849674 17.9738 15.9984 17.723 16 17.5 C 16 17.3287 16.03974 17.1539 16.09375 17 L 14.5 17 z M 17.5 17 C 17.285764 17 17.10493 17.1317 17.03125 17.3125 C 17.0067 17.3728 17 17.429 17 17.5 L 17 22.5 L 17 25.65625 L 17 33.15625 L 17 33.25 L 17 37.5 C 17 37.7143 17.131706 37.89475 17.3125 37.96875 C 17.372765 37.98975 17.42859 38 17.5 38 L 33.5 38 L 34 38 L 34 17.5 C 34 17.2144 33.785649 17 33.5 17 L 30.03125 17 L 30.03125 18.59375 C 30.601983 18.80665 31 19.3591 31 20 C 31 20.8225 30.322505 21.5 29.5 21.5 C 28.677495 21.5 28 20.8225 28 20 C 28 19.3386 28.431914 18.79095 29.03125 18.59375 L 29.03125 17 L 22 17 L 22 18.59375 C 22.58502 18.79885 23 19.3489 23 20 C 23 20.8225 22.322505 21.5 21.5 21.5 C 20.677495 21.5 20 20.8225 20 20 C 20 19.3489 20.41498 18.79885 21 18.59375 L 21 17 L 17.59375 17 L 17.5625 17 L 17.5 17 z M 14 19 L 14 22.5 L 14 26.46875 L 14 34 L 14 37.5 C 14 37.7857 14.214351 38 14.5 38 L 16.09375 38 C 16.03974 37.8461 16 37.6713 16 37.5 L 16 33.25 L 16 33.15625 L 16 25.8125 L 16 25.65625 L 16 22.5 L 16 19 C 15.98688 19.006 15.98204 19.02125 15.96875 19.03125 C 15.360919 19.31975 14.639081 19.31975 14.03125 19.03125 C 14.01796 19.02525 14.01312 19.01 14 19 z M 21.5 19.5 C 21.217935 19.5 21 19.718 21 20 C 21 20.2821 21.217935 20.5 21.5 20.5 C 21.782065 20.5 22 20.2821 22 20 C 22 19.718 21.782065 19.5 21.5 19.5 z M 29.5 19.5 C 29.217935 19.5 29 19.718 29 20 C 29 20.2821 29.217935 20.5 29.5 20.5 C 29.782065 20.5 30 20.2821 30 20 C 30 19.718 29.782065 19.5 29.5 19.5 z " transform="translate(0,1004.3622)"></path></g></g></g>
</svg>
</g><g opacity="1" transform="rotate(0 47.2874 261.181)">
<svg width="380.8193" height="40" x="47.2874" y="261.181" version="1.1" preserveAspectRatio="none" viewBox="2.4 -24.52 241.44 25.36">
  <g transform="matrix(1 0 0 1 0 0)" class="companyName"><path id="id-D6z1nYkh11" d="M3.20 0L3.20 0L2.40 0L2.40-9.32L3.20-9.32Q3.20-5.56 5.90-2.92Q8.60-0.28 12.48-0.28L12.48-0.28Q14.08-0.28 15.06-1.22Q16.04-2.16 16.04-3.72L16.04-3.72Q16.04-5.48 13.76-6.72L13.76-6.72Q12.52-7.36 9.48-8.74Q6.44-10.12 5.20-11.08L5.20-11.08Q2.72-13 3.02-16.16Q3.32-19.32 5.40-21.06Q7.48-22.80 10.10-22.80Q12.72-22.80 14.82-22.10Q16.92-21.40 17.20-21.40L17.20-21.40Q18-21.40 18-22.80L18-22.80L18.80-22.80L18.80-15.48L18-15.48Q18-18.36 15.88-20.18Q13.76-22 10.44-22L10.44-22Q8.96-22 8.12-21.14Q7.28-20.28 7.28-19.24Q7.28-18.20 7.56-17.64Q7.84-17.08 8.54-16.62Q9.24-16.16 9.76-15.88Q10.28-15.60 11.42-15.12Q12.56-14.64 13-14.44L13-14.44Q15.20-13.44 15.60-13.26Q16-13.08 16.76-12.68Q17.52-12.28 17.90-11.96Q18.28-11.64 18.88-11.16Q19.48-10.68 19.76-10.18Q20.04-9.68 20.32-9.04L20.32-9.04Q20.88-7.76 20.72-6.04L20.72-6.04Q20.40-2.80 18.30-1.10Q16.20 0.60 12.64 0.60L12.64 0.60Q9.44 0.60 6.28-1.04L6.28-1.04Q5.20-1.60 4.68-1.60L4.68-1.60Q3.20-1.60 3.20 0Z M43.32-0.80Q42.92-0.40 41.80-0.10Q40.68 0.20 39.20 0.20L39.20 0.20Q35.92 0.20 35.08-1.76L35.08-1.76Q33.08 0.32 28.96 0.32L28.96 0.32Q26.76 0.32 25.34-0.70Q23.92-1.72 23.92-3.72L23.92-3.72Q23.92-6.40 26-7.86Q28.08-9.32 33.28-9.92L33.28-9.92L34.88-10.12L34.88-12.08Q34.88-15.56 34.36-16.76Q33.84-17.96 32.30-17.96Q30.76-17.96 30.32-17.54Q29.88-17.12 30-16.58Q30.12-16.04 30.40-15.16Q30.68-14.28 30.68-13.76L30.68-13.76Q30.68-12.52 29.82-11.66Q28.96-10.80 27.74-10.80Q26.52-10.80 25.64-11.66Q24.76-12.52 24.76-13.76L24.76-13.76Q24.76-15.80 26.86-17.26Q28.96-18.72 33.14-18.72Q37.32-18.72 39.10-17.08Q40.88-15.44 40.88-11.28L40.88-11.28L40.88-4.08Q40.88-1.96 41.40-1.42Q41.92-0.88 43.32-1.20L43.32-1.20L43.32-0.80ZM29.48-4.52Q29.68-3 30.60-2.18Q31.52-1.36 32.74-1.36Q33.96-1.36 34.88-2.56L34.88-2.56L34.88-9.36L33.44-9.16Q31.60-8.92 30.46-7.76Q29.32-6.60 29.48-4.52L29.48-4.52Z M66.72-11.12L66.72-0.80L68.72-0.80L68.72 0L58.72 0L58.72-0.80L60.72-0.80L60.72-12Q60.72-14.84 59.88-16.04Q59.04-17.24 57.36-17.24L57.36-17.24Q55.08-17.24 53.72-14.84L53.72-14.84L53.72-0.80L55.72-0.80L55.72 0L45.72 0L45.72-0.80L47.72-0.80L47.72-17.60L45.72-17.60L45.72-18.40L53.72-18.40L53.72-16.32Q54.48-17.36 56.10-18.10Q57.72-18.84 59.60-18.84L59.60-18.84Q66.72-18.84 66.72-11.12L66.72-11.12Z M83.52-17.60L78.88-17.60L78.88-7.84Q78.88-4.40 79.16-3.66Q79.44-2.92 79.76-2.40L79.76-2.40Q80.36-1.36 81.86-1.36Q83.36-1.36 83.96-1.76L83.96-1.76L83.96-0.96Q82.04 0.40 79.76 0.40L79.76 0.40Q76.40 0.40 74.64-1.20Q72.88-2.80 72.88-6.92L72.88-6.92L72.88-17.60L69.92-17.60L69.92-18.40L72.88-18.40Q74.80-18.72 76.28-20.26Q77.76-21.80 78.32-24.52L78.32-24.52L78.88-24.52L78.88-18.40L83.52-18.40L83.52-17.60Z M105.36-0.80Q104.96-0.40 103.84-0.10Q102.72 0.20 101.24 0.20L101.24 0.20Q97.96 0.20 97.12-1.76L97.12-1.76Q95.12 0.32 91 0.32L91 0.32Q88.80 0.32 87.38-0.70Q85.96-1.72 85.96-3.72L85.96-3.72Q85.96-6.40 88.04-7.86Q90.12-9.32 95.32-9.92L95.32-9.92L96.92-10.12L96.92-12.08Q96.92-15.56 96.40-16.76Q95.88-17.96 94.34-17.96Q92.80-17.96 92.36-17.54Q91.92-17.12 92.04-16.58Q92.16-16.04 92.44-15.16Q92.72-14.28 92.72-13.76L92.72-13.76Q92.72-12.52 91.86-11.66Q91-10.80 89.78-10.80Q88.56-10.80 87.68-11.66Q86.80-12.52 86.80-13.76L86.80-13.76Q86.80-15.80 88.90-17.26Q91-18.72 95.18-18.72Q99.36-18.72 101.14-17.08Q102.92-15.44 102.92-11.28L102.92-11.28L102.92-4.08Q102.92-1.96 103.44-1.42Q103.96-0.88 105.36-1.20L105.36-1.20L105.36-0.80ZM91.52-4.52Q91.72-3 92.64-2.18Q93.56-1.36 94.78-1.36Q96-1.36 96.92-2.56L96.92-2.56L96.92-9.36L95.48-9.16Q93.64-8.92 92.50-7.76Q91.36-6.60 91.52-4.52L91.52-4.52Z M128.76-11.12L128.76-0.80L130.76-0.80L130.76 0L120.76 0L120.76-0.80L122.76-0.80L122.76-12Q122.76-14.84 121.92-16.04Q121.08-17.24 119.40-17.24L119.40-17.24Q117.12-17.24 115.76-14.84L115.76-14.84L115.76-0.80L117.76-0.80L117.76 0L107.76 0L107.76-0.80L109.76-0.80L109.76-17.60L107.76-17.60L107.76-18.40L115.76-18.40L115.76-16.32Q116.52-17.36 118.14-18.10Q119.76-18.84 121.64-18.84L121.64-18.84Q128.76-18.84 128.76-11.12L128.76-11.12Z M152.96-0.80Q152.56-0.40 151.44-0.10Q150.32 0.20 148.84 0.20L148.84 0.20Q145.56 0.20 144.72-1.76L144.72-1.76Q142.72 0.32 138.60 0.32L138.60 0.32Q136.40 0.32 134.98-0.70Q133.56-1.72 133.56-3.72L133.56-3.72Q133.56-6.40 135.64-7.86Q137.72-9.32 142.92-9.92L142.92-9.92L144.52-10.12L144.52-12.08Q144.52-15.56 144-16.76Q143.48-17.96 141.94-17.96Q140.40-17.96 139.96-17.54Q139.52-17.12 139.64-16.58Q139.76-16.04 140.04-15.16Q140.32-14.28 140.32-13.76L140.32-13.76Q140.32-12.52 139.46-11.66Q138.60-10.80 137.38-10.80Q136.16-10.80 135.28-11.66Q134.40-12.52 134.40-13.76L134.40-13.76Q134.40-15.80 136.50-17.26Q138.60-18.72 142.78-18.72Q146.96-18.72 148.74-17.08Q150.52-15.44 150.52-11.28L150.52-11.28L150.52-4.08Q150.52-1.96 151.04-1.42Q151.56-0.88 152.96-1.20L152.96-1.20L152.96-0.80ZM139.12-4.52Q139.32-3 140.24-2.18Q141.16-1.36 142.38-1.36Q143.60-1.36 144.52-2.56L144.52-2.56L144.52-9.36L143.08-9.16Q141.24-8.92 140.10-7.76Q138.96-6.60 139.12-4.52L139.12-4.52Z M158.90 0.84Q157.36 0.84 156.28-0.24Q155.20-1.32 155.20-2.86Q155.20-4.40 156.28-5.48Q157.36-6.56 158.90-6.56Q160.44-6.56 161.52-5.48Q162.60-4.40 162.60-2.86Q162.60-1.32 161.52-0.24Q160.44 0.84 158.90 0.84Z M165.16-9.20L165.16-9.20Q165.16-13.92 167.92-16.36Q170.68-18.80 174.94-18.80Q179.20-18.80 181.28-16.66Q183.36-14.52 182.76-12.24L182.76-12.24Q182.44-11 181.42-10.42Q180.40-9.84 179.20-10.12L179.20-10.12Q176.68-10.72 176.68-13.04L176.68-13.04Q176.68-13.64 176.82-14.86Q176.96-16.08 176.92-16.64Q176.88-17.20 176.68-17.52L176.68-17.52Q176.28-18.20 174.80-18.04L174.80-18.04Q171.20-17.48 171.20-9.22Q171.20-0.96 177.08-0.96L177.08-0.96Q178.44-0.96 179.84-1.68Q181.24-2.40 181.92-3.40L181.92-3.40L182.48-3Q181.56-1.48 179.72-0.56Q177.88 0.36 175.60 0.36L175.60 0.36Q165.16 0.36 165.16-9.20Z M192.28-2.42Q193.16-0.40 195.32-0.40Q197.48-0.40 198.40-2.44Q199.32-4.48 199.32-9.18Q199.32-13.88 198.40-15.94Q197.48-18 195.32-18Q193.16-18 192.28-15.94Q191.40-13.88 191.40-9.16Q191.40-4.44 192.28-2.42ZM195.24 0.40Q191.44 0.40 188.36-2.08Q185.28-4.56 185.28-9.12L185.28-9.12Q185.28-11.56 186.18-13.48Q187.08-15.40 188.58-16.52Q190.08-17.64 191.80-18.22Q193.52-18.80 195.32-18.80Q197.12-18.80 198.86-18.22Q200.60-17.64 202.10-16.52Q203.60-15.40 204.52-13.48Q205.44-11.56 205.44-9.16Q205.44-6.76 204.52-4.88Q203.60-3 202.08-1.88L202.08-1.88Q199.04 0.40 195.24 0.40Z M241.84-11.12L241.84-0.80L243.84-0.80L243.84 0L233.84 0L233.84-0.80L235.84-0.80L235.84-12Q235.84-14.84 235-16.04Q234.16-17.24 232.48-17.24L232.48-17.24Q231.52-17.24 230.48-16.68Q229.44-16.12 228.76-15.12L228.76-15.12Q229.24-13.68 229.24-11.12L229.24-11.12L229.24-0.80L231.24-0.80L231.24 0L220.84 0L220.84-0.80L223.24-0.80L223.24-12Q223.24-14.84 222.40-16.04Q221.56-17.24 219.88-17.24L219.88-17.24Q217.60-17.24 216.24-14.84L216.24-14.84L216.24-0.80L218.24-0.80L218.24 0L208.24 0L208.24-0.80L210.24-0.80L210.24-17.60L208.24-17.60L208.24-18.40L216.24-18.40L216.24-16.32Q217-17.36 218.62-18.10Q220.24-18.84 222.12-18.84L222.12-18.84Q226.88-18.84 228.32-16.16L228.32-16.16Q229.36-17.44 231.08-18.14Q232.80-18.84 234.72-18.84L234.72-18.84Q241.84-18.84 241.84-11.12L241.84-11.12Z"/></g>
</svg>
</g></svg></svg>