<svg version="1.1" preserveAspectRatio="none" xmlns="http://www.w3.org/2000/svg" width="500" height="500" viewBox="0 0 500 500"><rect width="100%" height="100%" fill="#121212" fill-opacity="1"/><svg viewBox="39.6146 79.8295 392.9929 264" width="333" height="223.6986978645161" x="83.5px" y="138.1507px" xmlns="http://www.w3.org/2000/svg" xmlns:xlink="http://www.w3.org/1999/xlink" preserveAspectRatio="none"><defs></defs><style>.companyName {fill:#E3E3E3;fill-opacity:1;}.icon1 {fill:#F1EC40;fill-opacity:1;}.icon2 {fill:#555555;fill-opacity:1;}.icon3 {fill:#AAAAAA;fill-opacity:1;}.icon3-str {stroke:#AAAAAA;stroke-opacity:1;}</style><g opacity="1" transform="rotate(0 39.6146 309.8295)">
<svg width="392.9929" height="34" x="39.6146" y="309.8295" version="1.1" preserveAspectRatio="none" viewBox="1.875 -28.4078 332.87109999999996 28.798500000000004">
  <g transform="matrix(1 0 0 1 0 0)" class="companyName"><path id="id-D6z1nYkh11" d="M29.86-8.24L29.86-8.24Q29.86-6.74 29.48-5.54Q29.10-4.34 28.48-3.42Q27.85-2.50 27.01-1.86Q26.17-1.21 25.27-0.80Q24.38-0.39 23.45-0.20Q22.52 0 21.70 0L21.70 0L2.11 0L2.11-5.08L21.70-5.08Q23.16-5.08 23.97-5.94Q24.79-6.80 24.79-8.24L24.79-8.24Q24.79-8.95 24.57-9.53Q24.36-10.12 23.96-10.55Q23.55-10.98 22.98-11.21Q22.40-11.45 21.70-11.45L21.70-11.45L10.02-11.45Q8.79-11.45 7.36-11.88Q5.94-12.32 4.72-13.30Q3.50-14.28 2.69-15.86Q1.88-17.44 1.88-19.73L1.88-19.73Q1.88-22.01 2.69-23.58Q3.50-25.16 4.72-26.14Q5.94-27.13 7.36-27.57Q8.79-28.01 10.02-28.01L10.02-28.01L27.30-28.01L27.30-22.93L10.02-22.93Q8.57-22.93 7.76-22.05Q6.95-21.17 6.95-19.73L6.95-19.73Q6.95-18.26 7.76-17.41Q8.57-16.56 10.02-16.56L10.02-16.56L21.70-16.56L21.74-16.56Q22.56-16.54 23.48-16.34Q24.39-16.13 25.30-15.70Q26.21-15.27 27.03-14.62Q27.85-13.96 28.49-13.05Q29.12-12.13 29.49-10.94Q29.86-9.75 29.86-8.24Z M61.56-25.45L61.56 0L56.48 0L56.48-6.88L38.63-6.88L38.63 0L33.55 0L33.55-14.00Q33.55-17.07 34.61-19.65Q35.66-22.23 37.54-24.08Q39.41-25.94 41.97-26.97Q44.53-28.01 47.56-28.01L47.56-28.01L59.00-28.01Q59.53-28.01 60-27.81Q60.47-27.62 60.82-27.27Q61.17-26.91 61.37-26.45Q61.56-25.98 61.56-25.45L61.56-25.45ZM38.63-14.00L38.63-11.95L56.48-11.95L56.48-22.93L47.56-22.93Q47.32-22.93 46.57-22.86Q45.82-22.79 44.83-22.52Q43.85-22.25 42.75-21.68Q41.66-21.11 40.74-20.12Q39.82-19.12 39.23-17.63Q38.63-16.13 38.63-14.00L38.63-14.00Z M95.45-28.01L95.45-2.17Q95.45-1.62 95.24-1.15Q95.04-0.68 94.70-0.34Q94.36 0 93.89 0.20Q93.42 0.39 92.89 0.39L92.89 0.39Q92.42 0.39 91.94 0.21Q91.46 0.04 91.09-0.35L91.09-0.35L72.54-19.73L72.54 0L67.46 0L67.46-25.84Q67.46-26.62 67.90-27.26Q68.34-27.89 69.02-28.20L69.02-28.20Q69.75-28.50 70.51-28.35Q71.27-28.20 71.82-27.64L71.82-27.64L90.37-8.28L90.37-28.01L95.45-28.01Z M126.66-28.01L126.66-22.93L115.47-22.93L115.47 0L110.39 0L110.39-22.93L99.18-22.93L99.18-28.01L126.66-28.01Z M156.89-25.45L156.89 0L151.82 0L151.82-6.88L133.96-6.88L133.96 0L128.89 0L128.89-14.00Q128.89-17.07 129.94-19.65Q131.00-22.23 132.87-24.08Q134.75-25.94 137.30-26.97Q139.86-28.01 142.89-28.01L142.89-28.01L154.34-28.01Q154.86-28.01 155.33-27.81Q155.80-27.62 156.15-27.27Q156.50-26.91 156.70-26.45Q156.89-25.98 156.89-25.45L156.89-25.45ZM133.96-14.00L133.96-11.95L151.82-11.95L151.82-22.93L142.89-22.93Q142.66-22.93 141.90-22.86Q141.15-22.79 140.17-22.52Q139.18-22.25 138.09-21.68Q136.99-21.11 136.07-20.12Q135.16-19.12 134.56-17.63Q133.96-16.13 133.96-14.00L133.96-14.00Z M190.78-28.01L190.78-2.17Q190.78-1.62 190.58-1.15Q190.37-0.68 190.03-0.34Q189.69 0 189.22 0.20Q188.75 0.39 188.22 0.39L188.22 0.39Q187.75 0.39 187.28 0.21Q186.80 0.04 186.43-0.35L186.43-0.35L167.87-19.73L167.87 0L162.79 0L162.79-25.84Q162.79-26.62 163.23-27.26Q163.67-27.89 164.36-28.20L164.36-28.20Q165.08-28.50 165.84-28.35Q166.60-28.20 167.15-27.64L167.15-27.64L185.70-8.28L185.70-28.01L190.78-28.01Z M224.16-25.45L224.16 0L219.08 0L219.08-6.88L201.23-6.88L201.23 0L196.15 0L196.15-14.00Q196.15-17.07 197.21-19.65Q198.26-22.23 200.14-24.08Q202.01-25.94 204.57-26.97Q207.13-28.01 210.16-28.01L210.16-28.01L221.60-28.01Q222.13-28.01 222.60-27.81Q223.07-27.62 223.42-27.27Q223.77-26.91 223.96-26.45Q224.16-25.98 224.16-25.45L224.16-25.45ZM201.23-14.00L201.23-11.95L219.08-11.95L219.08-22.93L210.16-22.93Q209.92-22.93 209.17-22.86Q208.42-22.79 207.43-22.52Q206.45-22.25 205.35-21.68Q204.26-21.11 203.34-20.12Q202.42-19.12 201.83-17.63Q201.23-16.13 201.23-14.00L201.23-14.00Z M233.73-2.56L233.73-2.56Q233.73-2.03 233.53-1.57Q233.32-1.11 232.98-0.77Q232.64-0.43 232.18-0.23Q231.72-0.04 231.21-0.04L231.21-0.04Q230.68-0.04 230.22-0.23Q229.77-0.43 229.42-0.77Q229.08-1.11 228.89-1.57Q228.69-2.03 228.69-2.56L228.69-2.56Q228.69-3.07 228.89-3.53Q229.08-3.98 229.42-4.33Q229.77-4.67 230.22-4.87Q230.68-5.08 231.21-5.08L231.21-5.08Q231.72-5.08 232.18-4.87Q232.64-4.67 232.98-4.33Q233.32-3.98 233.53-3.53Q233.73-3.07 233.73-2.56Z M263.34-5.08L263.34 0L245.02 0Q244.32 0 243.51-0.17Q242.70-0.33 241.90-0.68Q241.11-1.04 240.39-1.59Q239.67-2.15 239.11-2.94Q238.55-3.73 238.22-4.78Q237.89-5.82 237.89-7.13L237.89-7.13L237.89-20.88Q237.89-21.58 238.06-22.39Q238.22-23.20 238.57-23.99Q238.93-24.79 239.49-25.51Q240.06-26.23 240.85-26.79Q241.64-27.34 242.68-27.68Q243.71-28.01 245.02-28.01L245.02-28.01L263.34-28.01L263.34-22.93L245.02-22.93Q244.02-22.93 243.50-22.40Q242.97-21.88 242.97-20.84L242.97-20.84L242.97-7.13Q242.97-6.15 243.51-5.62Q244.04-5.08 245.02-5.08L245.02-5.08L263.34-5.08Z M297.13-16.68L297.13-11.33Q297.13-8.77 296.25-6.62Q295.37-4.47 293.81-2.91Q292.25-1.35 290.11-0.48Q287.97 0.39 285.45 0.39L285.45 0.39L278.57 0.39Q276.05 0.39 273.91-0.48Q271.76-1.35 270.20-2.91Q268.63-4.47 267.74-6.62Q266.86-8.77 266.86-11.33L266.86-11.33L266.86-16.68Q266.86-19.22 267.74-21.38Q268.63-23.54 270.20-25.09Q271.76-26.64 273.91-27.52Q276.05-28.40 278.57-28.40L278.57-28.40L285.45-28.40Q287.97-28.40 290.11-27.52Q292.25-26.64 293.81-25.09Q295.37-23.54 296.25-21.38Q297.13-19.22 297.13-16.68L297.13-16.68ZM292.05-11.33L292.05-16.68Q292.05-18.18 291.57-19.40Q291.09-20.63 290.22-21.49Q289.36-22.36 288.13-22.84Q286.91-23.32 285.45-23.32L285.45-23.32L278.57-23.32Q277.09-23.32 275.87-22.84Q274.65-22.36 273.77-21.49Q272.89-20.63 272.41-19.40Q271.93-18.18 271.93-16.68L271.93-16.68L271.93-11.33Q271.93-9.82 272.41-8.60Q272.89-7.38 273.77-6.51Q274.65-5.64 275.87-5.17Q277.09-4.69 278.57-4.69L278.57-4.69L285.41-4.69Q286.89-4.69 288.12-5.17Q289.34-5.64 290.21-6.51Q291.09-7.38 291.57-8.60Q292.05-9.82 292.05-11.33L292.05-11.33Z M334.75-25.84L334.75 0L329.63 0L329.63-16.68L320.63-0.84Q320.29-0.23 319.70 0.08Q319.10 0.39 318.42 0.39L318.42 0.39Q317.75 0.39 317.18 0.08Q316.60-0.23 316.27-0.84L316.27-0.84L307.23-16.68L307.23 0L302.15 0L302.15-25.84Q302.15-26.72 302.67-27.40Q303.18-28.09 304.02-28.32L304.02-28.32Q304.43-28.42 304.84-28.39Q305.25-28.36 305.63-28.21Q306.02-28.07 306.33-27.80Q306.64-27.54 306.86-27.17L306.86-27.17L318.42-7.07L329.98-27.17Q330.43-27.91 331.22-28.22Q332.01-28.54 332.87-28.32L332.87-28.32Q333.69-28.09 334.22-27.40Q334.75-26.72 334.75-25.84L334.75-25.84Z"/></g>
</svg>
</g><g opacity="1" transform="rotate(0 172.3614 79.8295)">
<svg width="127.4994" height="200" x="172.3614" y="79.8295" version="1.1" preserveAspectRatio="none" viewBox="49 19.998531341552734 102.0003662109375 160.00146484375">
  <g transform="matrix(1 0 0 1 0 0)"><g><path d="M149.969 34.493c-.866-1.732-2.356-3.066-4.267-3.537-1.226-.302-2.503-.298-3.758-.273-1.444.029-2.887.054-4.331.06-.582.003-1.165.002-1.747 0a43.185 43.185 0 0 1-4.73-.567c-1.981-.357-3.94-.825-5.91-1.24-1.941-.41-3.893-.675-5.85-.99-1.516-.245-3.057-.621-4.341-1.439-.288-.26-.578-.518-.881-.759a8.39 8.39 0 0 0-.364-.272.398.398 0 0 0-.09-.063c-.994-.681-2.082-1.091-3.281-1.363-1.403-.318-2.892-.476-4.2-1.11-1.318-.638-2.206-1.882-3.53-2.505-3.048-1.433-5.782.938-7.698 3.127-.113.181-.233.283-.4.507l-.168.212c-.427.186-.33.134-.845.401-.076.039-.22.148-.285.128-2.319 1.26-4.383 3.202-6.35 4.855a27.895 27.895 0 0 1-2.985 2.187c-.92.585-1.862 1.168-2.646 1.932-1.672 1.63-2.004 3.869-2.182 6.088-.25 3.126-.486 6.253-.729 9.379a.323.323 0 0 0 0 .044c.042.071.033.009.057.176l-.201.4-.117.529a.555.555 0 0 0-.015.174c.001.033-.01.067-.033.085.002.133.015.266.04.399-.031.324-.115.831-.058 1.033l.342.451.081.496 2.295.817c1.22-.441 1.155-.34 1.424-.338.086.001.172 0 .258-.002.077-.007.154-.013.231-.022a.263.263 0 0 1 .107.008c1.057-.065 2.12-.313 3.14-.611.261-.132.541-.153.808-.272l.264.478 3.463-.054 1.016-1.28-.039-.481c.104-.016.202-.061.306-.075.405-.056.521-.144.931-.172.02-.001.038 0 .056.002a29.95 29.95 0 0 1 1.449-.234l.009.035c.024-.004.025.081.048.077l.136.669 2.684.353 1.113-.317-.088-.465c.13-.01-.027-.306-.008-.609l.019-.083c.199-.01.397-.021.596-.03l.033.186c.024.196.008.372.036.553l.216.212 2.936.34.299-.593c.01-.213-.032-.34-.008-.497l.047-.126c.552.033 1.106.065 1.661.092 3.946.195 7.949.171 11.732-1.037 1.076-.344 2.101-.798 3.137-1.209.03-.089.255-.068.281-.159l.168-.056c-.02.088.244-.13.22-.042 1.034-.382 2.092-.688 3.234-.768 2.509-.175 5.098-.009 7.608.123 2.208.117 4.409.34 6.57.785l1.247.398c2.064.655 4.222 1.177 6.4.897 1.853-.238 3.66-1.037 4.796-2.555 1.233-1.649 1.48-3.789 1.614-5.777.152-2.267.065-4.631-.973-6.706z" data-color="1" class="icon1"></path><path d="M129.289 81.1h-3.451l-.007-.02-.205-.567-.312-.866-.312-.866h-18.937c-.212-.507-.414-1.018-.625-1.525h-3.312c.216.424.425.852.645 1.274.043.084.089.167.133.251H77.083c.083-.509.178-1.016.262-1.525h-2.978c-.028.364-.063.727-.088 1.091l-.029.434H54.36v1.245h-2.794l-.001.049-.014.566-2.007 78.196-.015.566L49 180l.873-.015 32.25-.542 6.894-.116 20.681-.348 5.848-.098 6.783-.114 7.426-.125.023-19.627v-.565l.03-25.782.061-51.564V81.1h-.58zm-80.018 89.134c0-.007-.009-.011-.009-.018 0-.006.008-.009.01-.015l-.001.033z" data-color="2" class="icon2"></path><path d="M91.168 127.162c-.02.019-.052.035-.055.056-.003.023.021.05.033.075l.08-.075-.058-.056z" data-color="3" class="icon3"></path><path d="M97.558 143.829c-.065-.021-.143.045-.125.1.012.036.058.06.1.101.042-.041.094-.069.098-.103.004-.031-.039-.086-.073-.098z" data-color="3" class="icon3"></path><path d="M85.551 134.871a.197.197 0 0 0-.215.2c-.005.164.09.263.261.272.124.007.215-.077.217-.198.001-.159-.102-.267-.263-.274z" data-color="3" class="icon3"></path><path d="M91.538 140.866c-.208.003-.338.084-.377.232a.292.292 0 0 0 .171.353c.044.017.092.025.121.033.203.02.335-.039.422-.196a.296.296 0 0 0 .031-.18c-.026-.152-.177-.245-.368-.242z" data-color="3" class="icon3"></path><path d="M82.46 138.938c-.078-.019-.199.06-.203.156-.002.065.045.132.063.181.143.027.3-.051.312-.131.009-.062-.097-.188-.172-.206z" data-color="3" class="icon3"></path><path d="M80.566 143.044c-.077-.046-.211.003-.231.094a.396.396 0 0 0-.006.184c.034.121.082.239.129.356.03.076.08.139.174.132.093-.007.13-.081.161-.155.018-.043.027-.09.04-.132-.011-.206-.085-.371-.267-.479z" data-color="3" class="icon3"></path><path d="M96.899 137.199c-.003.007.013.021.02.032l.037-.061-.021-.033c-.013.021-.028.04-.036.062z" data-color="3" class="icon3"></path><path d="m97.252 136.331.051.065c.026-.01.065-.014.075-.033.009-.017-.014-.05-.024-.076l-.102.044z" data-color="3" class="icon3"></path><path d="M94.778 134.07a.414.414 0 0 0-.225-.016.176.176 0 0 0-.125.185.15.15 0 0 0 .032.085c.064.07.149.066.222.029.065-.034.116-.093.178-.145-.036-.064-.051-.129-.082-.138z" data-color="3" class="icon3"></path><path d="M96.134 139.975a.81.81 0 0 0-.494.129c-.031.019-.053.082-.047.119a.173.173 0 0 0 .08.11c.207.107.439.042.584-.154.009-.012.011-.029.016-.044.02-.058-.062-.154-.139-.16z" data-color="3" class="icon3"></path><path d="M88.69 135.201c.005.033.065.064.106.08.018.007.065-.02.077-.043.084-.162.089-.328.009-.588-.167.212-.22.372-.192.551z" data-color="3" class="icon3"></path><path d="M72.098 129.45a.801.801 0 0 0-.285.015c-.14.036-.238.2-.221.334.015.121.116.215.262.243.031.006.064.009.107.015.036-.003.085-.004.132-.012a.316.316 0 0 0 .263-.299.285.285 0 0 0-.258-.296z" data-color="3" class="icon3"></path><path d="M69.003 137.342c-.163-.032-.303.062-.315.213-.01.132.087.243.228.26.139.017.242-.072.258-.222.013-.121-.06-.229-.171-.251z" data-color="3" class="icon3"></path><path d="M70.084 141.017c.004.037.024.072.038.109l.094-.044c-.02-.034-.035-.072-.062-.099-.006-.006-.071.025-.07.034z" data-color="3" class="icon3"></path><path d="M68.323 139.495a.59.59 0 0 0-.415.095c-.226.154-.45.149-.678.006-.026-.016-.06-.021-.089-.031-.302.04-.45.188-.523.425-.033.107-.081.209-.114.316-.028.088.035.204.129.226.364.085.73.173 1.031-.16.041-.045.106-.068.156-.099.058.009.107.01.151.025.378.137.435.117.593-.218.02-.043.042-.087.055-.133.069-.222-.065-.424-.296-.452z" data-color="3" class="icon3"></path><path d="m78.894 131.023.033-.02-.032-.019-.001.039z" data-color="3" class="icon3"></path><path d="M77.805 141.8c-.192-.005-.318.107-.312.276.004.118.116.208.269.217.169.009.288-.081.307-.231.019-.155-.085-.258-.264-.262z" data-color="3" class="icon3"></path><path d="M80.383 142.618c.036-.067.04-.15.057-.224-.001-.082.008-.162-.006-.238-.007-.037-.052-.074-.088-.096-.018-.011-.064.005-.085.024a.475.475 0 0 0-.149.511c.013.048.082.107.131.112.043.005.116-.044.14-.089z" data-color="3" class="icon3"></path><path d="M76.598 128.612a1.568 1.568 0 0 0-.369.011c-.045.008-.088.083-.11.137-.025.06.053.138.141.154.031.006.062.009.125.019.047-.002.131.009.202-.015.049-.017.096-.076.119-.127.03-.066-.035-.174-.108-.179z" data-color="3" class="icon3"></path><path d="M76.03 142.296c.022.034.039.072.068.098.008.007.073-.027.072-.036-.006-.038-.027-.074-.043-.111a2.705 2.705 0 0 0-.097.049z" data-color="3" class="icon3"></path><path d="M115.954 138.583c.136-.007.209-.1.195-.201-.011-.082-.091-.147-.165-.136-.099.015-.187.113-.154.198.023.062.093.106.124.139z" data-color="3" class="icon3"></path><path d="m98.214 134.205.12.089.077-.116c-.038-.022-.077-.064-.113-.061-.031.003-.057.057-.084.088z" data-color="3" class="icon3"></path><path d="M114.752 139.997c-.004.107.064.207.15.221.153.024.31-.083.322-.222.011-.129-.107-.259-.232-.256-.132.002-.235.114-.24.257z" data-color="3" class="icon3"></path><path d="M114.413 128.901a.542.542 0 0 0 .374.062c.17-.031.32-.354.237-.51a.211.211 0 0 0-.026-.04c-.217-.261-.508-.285-.755-.054-.068.064-.118.146-.166.206.023.224.2.259.336.336z" data-color="3" class="icon3"></path><path d="M116.573 127.221c.1-.003.184-.098.164-.191-.02-.094-.094-.12-.179-.123-.092-.003-.163.057-.165.133a.18.18 0 0 0 .18.181z" data-color="3" class="icon3"></path><path d="M106.522 139.719c.096.008.176-.073.175-.215-.033-.029-.08-.096-.141-.116-.089-.029-.179.067-.169.17.007.08.037.153.135.161z" data-color="3" class="icon3"></path><path d="M119.931 139.534a.226.226 0 0 0 .146-.179c.014-.105-.054-.195-.152-.203a.205.205 0 0 0-.215.124.376.376 0 0 1 .221.258z" data-color="3" class="icon3"></path><path d="M110.544 131.189c.005-.01-.048-.061-.052-.058-.035.021-.064.051-.095.078l.072.076c.028-.033.059-.061.075-.096z" data-color="3" class="icon3"></path><path d="M110.727 141.865c.074.003.135-.064.142-.156.011-.137-.062-.233-.173-.227-.098.006-.183.087-.186.178-.002.105.099.201.217.205z" data-color="3" class="icon3"></path><path d="M67.501 145.32c.01.005.023.017.03.015.008-.003.012-.019.018-.029-.01-.005-.022-.017-.03-.014-.008.003-.012.018-.018.028z" data-color="3" class="icon3"></path><path d="M99.1 132.563c-.028-.011-.111.049-.127.093-.034.092.059.207.142.185.05-.013.089-.066.158-.122-.071-.069-.114-.133-.173-.156z" data-color="3" class="icon3"></path><path d="M98.899 137.628c-.143-.003-.225.085-.231.248-.006.169.087.283.245.298.157.015.28-.093.29-.254.011-.177-.104-.287-.304-.292z" data-color="3" class="icon3"></path><path d="M100.34 137.518c-.009.015.021.074.032.074.039-.001.095-.008.111-.034.014-.023-.017-.073-.035-.137-.051.044-.089.065-.108.097z" data-color="3" class="icon3"></path><path d="M98.808 130.56a.171.171 0 0 0-.169-.184c-.102-.002-.187.076-.18.173.005.089.056.142.146.154.109.016.195-.045.203-.143z" data-color="3" class="icon3"></path><path d="m120.481 132.825-.052-.073c-.026.012-.067.018-.074.036-.008.022.012.055.02.083l.106-.046z" data-color="3" class="icon3"></path><path d="M103.64 127.124c-.021.032-.071.077-.078.128a.176.176 0 0 0 .201.193c.044-.008.102-.073.11-.119.017-.109-.09-.207-.233-.202z" data-color="3" class="icon3"></path><path d="M113.959 142.747c.206-.04.357-.18.357-.332 0-.182-.157-.31-.401-.327-.138-.008-.259.028-.324.158-.061.122-.06.251.032.359.085.103.193.17.336.142z" data-color="3" class="icon3"></path><path d="M120.296 134.74c.134.009.259-.08.278-.2.02-.125-.081-.237-.223-.246-.143-.01-.244.08-.247.22-.002.119.082.218.192.226z" data-color="3" class="icon3"></path><path d="M113.196 142.562c-.024-.008-.047-.019-.072-.023-.005-.001-.024.03-.021.036.014.022.035.04.054.06l.039-.073z" data-color="3" class="icon3"></path><path d="M90.423 142.088c-.124-.017-.226.053-.247.17-.023.128.077.245.22.257.121.01.241-.07.253-.171.016-.125-.081-.236-.226-.256z" data-color="3" class="icon3"></path><path d="M79.176 105.283c-.082-.016-.181.069-.199.17-.018.104.052.207.147.208.096.001.145-.06.167-.143.027-.105-.032-.219-.115-.235z" data-color="3" class="icon3"></path><path d="M70.46 112.11c-.092.005-.158.07-.153.147a.18.18 0 0 0 .194.164c.1-.012.175-.113.147-.204-.028-.091-.104-.111-.188-.107z" data-color="3" class="icon3"></path><path d="M75.983 112.531a.438.438 0 0 0-.428.431c-.001.193.16.324.396.323.269-.001.425-.156.417-.414a.355.355 0 0 0-.385-.34z" data-color="3" class="icon3"></path><path d="M74.746 117.65c-.007.023.017.054.027.081l.102-.055-.058-.068c-.026.014-.066.023-.071.042z" data-color="3" class="icon3"></path><path d="M74.871 119.151c-.144.002-.236.1-.227.24.008.119.1.211.21.209.134-.002.251-.102.26-.222.009-.126-.101-.229-.243-.227z" data-color="3" class="icon3"></path><path d="M70.928 105.87c-.076-.008-.145.059-.15.145-.006.114.063.21.152.189.065-.015.119-.075.156-.101.013-.136-.06-.223-.158-.233z" data-color="3" class="icon3"></path><path d="M90.612 110.125c.047-.019.076-.081.137-.15-.084-.059-.136-.12-.2-.136-.073-.018-.148.077-.142.154a.15.15 0 0 0 .205.132z" data-color="3" class="icon3"></path><path d="M92.538 116.862a.311.311 0 0 0 .332-.206c.037-.126-.056-.272-.223-.283-.045.031-.137.067-.187.135a.255.255 0 0 0 0 .307c.016.023.05.044.078.047z" data-color="3" class="icon3"></path><path d="M74.858 112.67c.118.006.23-.076.248-.183.021-.125-.089-.252-.225-.259a.21.21 0 0 0-.218.207c.004.129.088.23.195.235z" data-color="3" class="icon3"></path><path d="M88.673 107.128a.202.202 0 0 0 .235-.184c.009-.082-.048-.154-.135-.169-.137-.024-.251.04-.261.145a.197.197 0 0 0 .161.208z" data-color="3" class="icon3"></path><path d="M83.761 110.127a.205.205 0 0 0-.176.198c0 .117.099.212.217.207.13-.005.203-.089.193-.222-.01-.122-.109-.2-.234-.183z" data-color="3" class="icon3"></path><path d="M86.159 116.916c-.093-.046-.216-.009-.297.081-.08.089-.097.195-.096.308.001.108.058.196.144.22.108.03.25-.012.293-.102.04-.084.059-.177.076-.23.001-.139-.02-.228-.12-.277z" data-color="3" class="icon3"></path><path d="M86.489 112.802c-.165-.008-.32.126-.324.281-.005.167.158.344.323.351.129.005.287-.135.294-.262.012-.191-.124-.362-.293-.37z" data-color="3" class="icon3"></path><path d="M87.284 113.556c-.015-.036-.06-.059-.105-.1-.033.052-.079.092-.074.125.006.038.05.083.088.1.055.024.12-.06.091-.125z" data-color="3" class="icon3"></path><path d="M87.239 115.212c.013.007.035.022.038.019.016-.018.028-.039.042-.06a.72.72 0 0 0-.039-.02c-.015.02-.028.041-.041.061z" data-color="3" class="icon3"></path><path d="M84.279 114.705c-.023.051.062.12.127.098.051-.017.092-.062.178-.124-.091-.049-.146-.103-.186-.094-.048.011-.097.071-.119.12z" data-color="3" class="icon3"></path><path d="M80.76 109.293a.248.248 0 0 0-.055.304c.033.06.108.098.173.153.119-.054.226-.088.315-.147a.162.162 0 0 0 .053-.213.311.311 0 0 0-.486-.097z" data-color="3" class="icon3"></path><path d="M93.318 114.541c.201-.022.333-.192.318-.408a.625.625 0 0 0-.015-.095c-.058-.259-.21-.398-.418-.384-.209.014-.326.178-.324.454.002.032.001.064.005.096.026.241.185.364.434.337z" data-color="3" class="icon3"></path><path d="M80.431 103.366c-.171.035-.283.261-.199.417.02.037.073.056.1.075.21.008.352-.157.315-.346a.188.188 0 0 0-.216-.146z" data-color="3" class="icon3"></path><path d="M85.045 116.751c-.211.013-.368.17-.367.368 0 .228.164.394.391.398.174.003.29-.143.292-.367.002-.245-.129-.41-.316-.399z" data-color="3" class="icon3"></path><path d="M106.599 101.532c.089-.013.138-.068.137-.158-.002-.106-.083-.182-.178-.172-.095.01-.177.103-.168.19.007.085.109.155.209.14z" data-color="3" class="icon3"></path><path d="M59.546 131.058c-.076-.004-.157.065-.164.139-.01.112.079.204.245.213.03-.033.105-.078.119-.138.025-.104-.086-.207-.2-.214z" data-color="3" class="icon3"></path><path d="M68.007 130.707c.033.008.092-.018.111-.047a.132.132 0 0 0-.068-.202c-.027.015-.076.027-.098.058-.048.069-.019.174.055.191z" data-color="3" class="icon3"></path><path d="M61.838 131.002a.486.486 0 0 0-.489.242c-.094.159-.051.311.031.455a.52.52 0 0 0 .54.239.505.505 0 0 0 .405-.424c.02-.226-.218-.476-.487-.512z" data-color="3" class="icon3"></path><path d="M68.13 129.622c-.001-.038-.019-.075-.032-.118-.036.024-.077.043-.075.053.008.038.03.072.046.108.022-.014.061-.029.061-.043z" data-color="3" class="icon3"></path><path d="M67.992 138.917c-.033.074.016.16.133.185.025-.025.078-.057.096-.103.024-.061-.003-.121-.076-.143-.066-.021-.123-.006-.153.061z" data-color="3" class="icon3"></path><path d="M60.977 143.023c-.079-.003-.125.055-.114.115.009.048.065.106.113.123.058.02.123-.008.139-.086.008-.082-.051-.149-.138-.152z" data-color="3" class="icon3"></path><path d="M65.929 143.761c-.127-.012-.231.08-.218.165.013.088.079.126.165.129.088.003.163-.057.144-.136-.015-.064-.067-.119-.091-.158z" data-color="3" class="icon3"></path><path d="M65.555 134.632a.233.233 0 0 0-.275.198c-.015.124.084.243.219.263a.215.215 0 0 0 .241-.179c.024-.143-.053-.262-.185-.282z" data-color="3" class="icon3"></path><path d="M62.784 138.767c-.076-.011-.167.056-.171.125-.005.088.073.179.169.197.075.015.162-.051.166-.127a.19.19 0 0 0-.164-.195z" data-color="3" class="icon3"></path><path d="M97.634 114.114a.863.863 0 0 0 .581-.198c.285-.236.29-.589.011-.828-.328-.281-.927-.28-1.253.002a.464.464 0 0 0-.082.646c.18.254.433.375.743.378z" data-color="3" class="icon3"></path><path d="M62.509 136.1c-.007.012-.021.026-.019.035.002.009.022.014.034.021.007-.012.021-.026.019-.036-.002-.008-.021-.013-.034-.02z" data-color="3" class="icon3"></path><path d="M101.048 103.141c-.011-.028-.015-.068-.035-.08-.017-.01-.054.012-.082.019l.052.111.065-.05z" data-color="3" class="icon3"></path><path d="M93.022 117.002c-.155-.007-.237.069-.248.229-.013.188.066.287.235.296.199.011.334-.089.347-.254.011-.154-.122-.262-.334-.271z" data-color="3" class="icon3"></path><path d="M98.15 117.814c-.018.077-.021.159-.031.242.009.076.012.157.03.235a.352.352 0 0 0 .254.267c.15.045.29.019.403-.093.213-.211.208-.628-.007-.831-.225-.213-.579-.116-.649.18z" data-color="3" class="icon3"></path><path d="M103.995 110.858c.219-.014.371-.173.355-.373a.322.322 0 0 0-.326-.291c-.194.009-.328.182-.316.408a.26.26 0 0 0 .287.256z" data-color="3" class="icon3"></path><path d="M96.968 110.91c.126.019.264-.093.272-.219.007-.105-.102-.217-.214-.221-.109-.003-.203.097-.21.223-.006.104.065.205.152.217z" data-color="3" class="icon3"></path><path d="M66.638 142.899c-.049-.034-.12-.043-.183-.052-.211-.029-.337.083-.34.296-.003.201.106.305.375.323.039-.01.127-.012.189-.052.123-.08.13-.221.105-.345-.014-.065-.086-.128-.146-.17z" data-color="3" class="icon3"></path><path d="M108.129 104.237c.014-.022.014-.076-.002-.088-.061-.047-.13-.082-.197-.122-.028.047-.06.09-.055.095.054.055.111.108.175.152.014.009.066-.015.079-.037z" data-color="3" class="icon3"></path><path d="M106.034 113.656c.167.005.279-.063.341-.218.029-.074.044-.153.065-.226-.015-.072-.023-.136-.042-.197-.059-.193-.207-.296-.4-.284-.192.012-.327.131-.353.336a.981.981 0 0 0 .018.333c.038.16.186.251.371.256z" data-color="3" class="icon3"></path><path d="M88.597 120.013c-.084-.059-.114-.195-.068-.304.063-.148.183-.215.335-.239.116-.018.223.081.216.168-.009.164-.061.277-.167.362-.011.008-.024.013-.036.019h14.535c0-.299.165-.475.457-.486.292-.011.453.158.46.483v.004h4.449v-19.843l-38.78.786v19.057h18.614c-.004-.003-.01-.004-.015-.007zm19.334-15.986c.066.04.136.075.197.122.016.012.015.066.002.088-.013.022-.066.046-.078.037a1.2 1.2 0 0 1-.175-.152c-.006-.005.026-.047.054-.095zm-1.374-2.825c.095-.01.177.066.178.172.001.091-.048.145-.137.158-.1.015-.201-.055-.21-.14-.008-.087.074-.18.169-.19zm-.911 11.866c.025-.206.161-.325.353-.336.193-.012.341.091.4.284.019.061.027.125.042.197-.02.072-.035.152-.065.226-.062.156-.174.223-.341.218-.185-.006-.333-.096-.37-.256a.911.911 0 0 1-.019-.333zm-1.621-2.875a.323.323 0 0 1 .326.291c.016.201-.136.36-.355.373a.26.26 0 0 1-.287-.257c-.012-.225.122-.398.316-.407zm-11.016 7.333c-.169-.009-.248-.108-.235-.296.011-.159.093-.235.248-.229.212.009.345.117.334.27-.012.167-.148.266-.347.255zm8.004-14.465c.021.012.024.052.035.08l-.066.051-.052-.111c.029-.008.065-.03.083-.02zm-2.214 14.572c.215.203.22.62.007.831a.384.384 0 0 1-.403.093.351.351 0 0 1-.254-.267c-.018-.077-.021-.158-.03-.235.01-.084.013-.165.031-.242.07-.295.424-.392.649-.18zm-1.773-7.163c.112.003.221.115.214.221-.008.127-.146.238-.272.219-.087-.013-.158-.113-.152-.217.007-.126.101-.226.21-.223zm-.052 2.62c.326-.282.925-.284 1.253-.002.279.239.274.591-.011.828a.863.863 0 0 1-.581.198.873.873 0 0 1-.743-.377.465.465 0 0 1 .082-.647zm-3.771.564c.208-.014.36.125.418.384a.606.606 0 0 1 .015.095c.015.217-.117.386-.318.408-.248.027-.408-.096-.435-.336-.004-.032-.004-.064-.005-.096-.001-.278.115-.441.325-.455zm-.743 2.854c.05-.068.142-.104.187-.135.167.01.26.157.223.283a.309.309 0 0 1-.332.206.127.127 0 0 1-.078-.047.255.255 0 0 1 0-.307zm-1.912-6.669c.064.016.117.077.2.136-.06.069-.09.131-.137.15-.099.041-.198-.031-.206-.132-.005-.077.07-.173.143-.154zm-1.775-3.064c.087.015.145.087.135.169-.014.122-.12.206-.235.184a.197.197 0 0 1-.161-.208c.009-.105.124-.169.261-.145zm-13.892 5.454c.136.007.246.134.225.259-.018.106-.13.189-.248.183-.108-.006-.191-.106-.195-.235a.209.209 0 0 1 .218-.207zm-.007 5.447-.102.055c-.01-.028-.034-.059-.027-.081.006-.019.046-.029.071-.042l.058.068zm-4.373-5.255a.18.18 0 0 1-.194-.164c-.005-.077.061-.142.153-.147.085-.004.16.016.189.107.027.091-.048.192-.148.204zm.586-6.318c-.038.026-.092.085-.156.101-.09.021-.158-.076-.152-.189.005-.086.074-.152.15-.145.097.01.17.097.158.233zm3.766 13.497c-.11.002-.202-.09-.21-.209-.009-.14.084-.237.227-.24.142-.002.252.1.243.227-.009.121-.126.221-.26.222zm1.097-6.315c-.236.001-.397-.13-.396-.323a.439.439 0 0 1 .428-.431c.21-.01.378.138.385.34.008.258-.148.412-.417.414zm3.341-7.768c-.022.083-.071.144-.167.143-.094-.001-.165-.104-.147-.208.018-.101.117-.186.199-.17.083.017.142.131.115.235zm1.041-1.659c-.027-.02-.08-.039-.1-.075-.084-.155.028-.382.199-.417a.188.188 0 0 1 .216.146c.037.189-.105.354-.315.346zm.861 5.745c-.09.059-.196.093-.315.147-.065-.055-.14-.093-.173-.153a.248.248 0 0 1 .055-.304.311.311 0 0 1 .486.097c.04.08.016.168-.053.213zm2.609.93a.208.208 0 0 1-.217-.207c0-.097.077-.184.176-.198.124-.018.224.06.234.183.01.132-.063.217-.193.222zm.603 4.27c-.064.021-.149-.048-.127-.098.022-.05.071-.109.118-.12.04-.009.095.045.186.094-.085.062-.126.108-.177.124zm.664 2.714a.385.385 0 0 1-.391-.398c0-.198.156-.355.367-.368.187-.011.318.154.316.399-.003.224-.119.369-.292.367zm1.134-.094c-.043.09-.185.132-.293.102-.086-.024-.143-.112-.144-.22-.001-.113.016-.218.096-.308.081-.091.204-.127.297-.081.1.049.121.138.119.277-.016.053-.035.146-.075.23zm.285-3.99c-.165-.007-.328-.183-.323-.351.004-.154.159-.288.324-.281.168.008.304.179.293.369-.007.128-.164.268-.294.263zm.706.248c-.039-.017-.082-.062-.088-.1-.005-.032.041-.072.074-.125.045.041.09.065.105.1.028.065-.037.149-.091.125zm.083 1.55c-.002.003-.025-.012-.038-.019l.04-.061a.72.72 0 0 0 .039.02c-.013.021-.025.042-.041.06z" data-color="4" class="icon1"></path><path d="m74.163 80.208-6.327-.037-16.271-.096-.015.566 22.582.134.031-.567z"></path><path d="m76.848 80.224-.09.565 5.318.031 21.989.13c-.103-.189-.208-.378-.31-.568l-3.214-.019-23.693-.139z"></path><path d="m106.983 80.968 7.796.046 11.051.065-.204-.567-18.881-.112.238.568z"></path><path d="M126.203 158.559c-.972.029-1.943.056-2.915.083l-.056.001c-1.097.03-2.194.059-3.292.087l-.58.014-2.574.062-.209.005h-.003c-1.978.045-3.956.087-5.934.125l-.043.001a1435.68 1435.68 0 0 1-10.559.162c-.847.01-1.694.018-2.541.026l-1.884.018-1.178.009-.796.006-1.483.011-.762.005c-1.333.008-2.665.014-3.998.019l-1.787.005c-.817.002-1.634.003-2.452.003l-2.307-.001-2.026-.002c-1.379-.003-2.759-.009-4.138-.016l-1.597-.01a1657.034 1657.034 0 0 1-9.12-.084 1294 1294 0 0 1-4.405-.063h-.001l-.115-.002c-1.522-.024-3.044-.05-4.565-.079l-.702-.013c-1.546-.03-3.093-.061-4.639-.095l-.015.566a1489.872 1489.872 0 0 0 35.708.363h.063c1.492-.003 2.984-.008 4.476-.015l.335-.002c1.4-.007 2.801-.016 4.201-.028l.681-.006c1.304-.011 2.608-.024 3.912-.038l1.048-.012c1.198-.014 2.396-.029 3.594-.046l1.469-.022 3.222-.051c.66-.011 1.319-.024 1.979-.036.923-.017 1.847-.034 2.77-.053.901-.018 1.801-.039 2.702-.059.699-.016 1.398-.03 2.097-.047a1311.843 1311.843 0 0 0 11.992-.335l.001-.565a1732.665 1732.665 0 0 1-3.574.109z" data-color="3" class="icon3"></path><path d="M74.133 80.774a145.398 145.398 0 0 0-.18 5.305.593.593 0 0 0 .013.115c-.02.45.446.653.834.702.362.045.791.014.98-.311a.335.335 0 0 0 .062-.086l.002-.004a.533.533 0 0 0 .019-.048l.003-.009a.565.565 0 0 0 .015-.065c.06-.397.123-.794.184-1.191l.137-.885c.181-1.17.366-2.339.554-3.507l.09-.565.236-1.444a621.501 621.501 0 0 1 3.459-19.194c.359-1.827.73-3.651 1.107-5.475a7.592 7.592 0 0 1-3.359-.858 143.36 143.36 0 0 0-4.011 25.092l-.029.434c-.032.476-.061.952-.088 1.428l-.028.566z" data-color="5" class="icon2"></path><path d="M94.335 51.39a10.142 10.142 0 0 0-.126-.587c-.487.066-.97.145-1.449.234-.415.077-.828.162-1.239.254a.478.478 0 0 0 .165.182 160.91 160.91 0 0 0 11.087 27.057l.133.251c.28.536.562 1.07.849 1.603.102.19.207.378.31.568a164.7 164.7 0 0 0 2.146 3.826c.146.252.291.504.438.754l.093.16c.03.127.1.242.209.319a.372.372 0 0 0 .11.07l.018.01c.547.352 1.353.012 1.62-.566.099-.213.092-.478-.059-.656l-.053-.124-.329-.774a659.18 659.18 0 0 1-1.512-3.571c-.227-.54-.455-1.08-.68-1.621a778.1 778.1 0 0 1-8.467-21.115c-.35-.91-.695-1.821-1.041-2.733-1.719-.115-1.941-2.065-2.223-3.541z" data-color="5" class="icon2"></path><path d="M76.333 86.401c-.266.582-.896.859-1.515.841-.548-.016-1.31-.234-1.528-.796-.223-.575.185-1.049.681-1.272.007-.302.014-.605.023-.907-.998.252-1.814 1.163-1.573 2.238.237 1.054 1.398 1.564 2.397 1.586 1.025.023 2.068-.556 2.386-1.563.29-.916-.163-1.829-1-2.231l-.137.885c.361.278.455.803.266 1.219z"></path><path d="M105.919 87.258c.668.962 1.973 1.163 3.001.704 1.035-.462 1.912-1.588 1.711-2.758-.19-1.107-1.342-1.793-2.374-1.233l.329.774a.485.485 0 0 0 .1-.04c.714-.389 1.223.447 1.097 1.079-.131.658-.712 1.216-1.325 1.451-.582.223-1.271.15-1.716-.315-.363-.38-.413-.988-.095-1.39-.147-.251-.292-.503-.438-.754-.686.635-.846 1.682-.29 2.482z"></path><path d="M87.804 54.705c.561.512 1.344.406 1.973.087 1.173-.595 1.793-1.818 1.741-3.068-1.572.22-3.1.659-4.548 1.307.253.575.343 1.226.834 1.674z" data-color="1" class="icon1"></path><path d="M98.743 50.899c.043.826.074 1.665.222 2.469.138.751.628 1.43 1.465 1.424.803-.006 1.441-.598 1.695-1.319.293-.835.099-1.699.119-2.555a34.073 34.073 0 0 0-3.501-.019z" data-color="1" class="icon1"></path><path d="M94.335 51.39c.283 1.476.504 3.426 2.222 3.543.069.005.139.007.213.006.817-.015 1.442-.572 1.55-1.37.067-.495-.024-1.014-.065-1.508l-.094-1.131a34.137 34.137 0 0 0-3.826.46z" data-color="1" class="icon1"></path><path d="M78.158 50.596c.934-1.3 1.886-2.614 3.122-3.653 1.249-1.049 2.746-1.594 4.326-1.922.061-.013.121-.026.182-.037.122-.024.245-.047.368-.069 1.516-.275 3.055-.429 4.543-.837l.104-.031a17.194 17.194 0 0 0 1.967-.687 23.46 23.46 0 0 0 2.387-1.16c1.697-.94 3.292-2.047 4.881-3.154.298-.208.013-.698-.288-.489-.658.458-1.32.919-1.991 1.369a58.703 58.703 0 0 1-2.487-4.042c-.056-.101-.207-.173-.322-.13a4.39 4.39 0 0 1-3.109.01 8.682 8.682 0 0 0 1.22-1.261c.223-.284-.178-.687-.403-.4-1.621 2.064-4.033 3.075-6.465 3.891-.201.067-.403.134-.604.199l-.411.133a4.229 4.229 0 0 0-.846-1.711c-.23-.283-.632.119-.403.4 1.812 2.228.216 5.353.079 7.858-1.005.314-1.967.754-2.847 1.439-1.077.839-1.948 1.893-2.759 2.984a.373.373 0 0 0 .038.163c-.24.364-.353.778-.348 1.2a.231.231 0 0 0 .066-.063zm7.12-11.708.231-.074.593-.193c1.857-.613 3.725-1.325 5.273-2.484.03.041.072.077.128.101a4.962 4.962 0 0 0 1.352.349 4.856 4.856 0 0 0 2.04-.214 58.875 58.875 0 0 0 2.39 3.869c-1.475.97-3 1.87-4.621 2.552a18.265 18.265 0 0 1-1.407.525c-.181.059-.363.115-.547.167l-.163.047c-1.455.399-2.977.573-4.46.847a24.74 24.74 0 0 0-.555.109c-.318.066-.633.137-.945.219.139-1.892.915-3.94.691-5.82z"></path><path d="M86.778 47.712c-.27-.246-.675.153-.403.4.51.463.903 1.021 1.148 1.663.129.337.68.191.55-.15a4.928 4.928 0 0 0-1.295-1.913z"></path><path d="M88.642 47.486c.353.358.565.807.603 1.308.027.361.598.364.57 0a2.68 2.68 0 0 0-.77-1.708c-.257-.261-.66.139-.403.4z"></path><path d="M86.761 52.65c.083.121.15.249.208.382a16.845 16.845 0 0 1 4.548-1.307 3.379 3.379 0 0 0-.042-.425l.044-.01c.411-.092.823-.177 1.239-.254a.341.341 0 0 0-.056-.002 17.568 17.568 0 0 0-6.749 1.856c.271-.079.539-.162.804-.246a.02.02 0 0 1 .004.006z"></path><path d="M94.967 50.714c-.251.039-.501.08-.751.124.043.172.081.358.118.552a34.526 34.526 0 0 1 3.825-.459l-.039-.468-.04-.091a35.092 35.092 0 0 0-3.113.342z"></path><path d="m98.747 50.335-.03.097c.01.155.018.311.026.467a34.358 34.358 0 0 1 3.501.018c.003-.137.011-.273.028-.41l.002-.154a34.579 34.579 0 0 0-3.527-.018z"></path><path d="M119.691 45.645c-.031-.36-.601-.363-.57 0a6.66 6.66 0 0 1-.318 2.709c.222-.088.445-.174.669-.257.214-.793.29-1.615.219-2.452z"></path><path d="M93.508 24.79a10.823 10.823 0 0 1 6.405-1.115c.363.047.359-.519 0-.566a11.288 11.288 0 0 0-4.921.454c-.182.208-.356.414-.523.614a.446.446 0 0 0-.059.092 12.74 12.74 0 0 0-1.116.542.273.273 0 0 0 .214-.021z"></path><path d="M85.532 44.488c.184-.038.369-.075.555-.109 1.483-.274 3.004-.448 4.46-.847l.163-.047c.184-.053.366-.108.547-.167l-.287-1.741c-.143-.866-.459-1.873-.351-2.75.074-.596.473-1.013.939-1.393-.62 1.664.265 3.795.584 5.57.175-.067.348-.137.521-.21 1.621-.682 3.146-1.582 4.621-2.552a58.875 58.875 0 0 1-2.39-3.869 4.856 4.856 0 0 1-3.392-.135.298.298 0 0 1-.128-.101c-1.548 1.159-3.416 1.871-5.273 2.484-.198.065-.396.13-.593.193a23.416 23.416 0 0 0 .024 5.674z" data-color="1" class="icon1"></path><path d="m104.142 126.638-19.168.617c-.053.056-.087.102-.131.122-.057.025-.133-.041-.148-.113l-15.464.498a.284.284 0 0 1-.221.08.334.334 0 0 1-.197-.067l-10.703.345.205 2.241c.138.028.24.134.241.244.001.111-.081.212-.196.25l1.414 15.482 4.339-.175-.004-.03c-.005-.099.061-.17.132-.154.086.02.131.078.135.165v.008l9.234-.372a.205.205 0 0 1 .187-.074.163.163 0 0 1 .107.062l6.681-.269-.251-.196c-.072-.057-.071-.195-.006-.256a.53.53 0 0 1 .392-.144.25.25 0 0 1 .13.052.58.58 0 0 1 .234.525l25.101-1.012.488-.02 5.931-.239.272-.011 8.507-.343-.524-16.025c-.089-.03-.148-.127-.142-.242a.203.203 0 0 1 .128-.172l-.043-1.311-16.268.524-.392.01zm-44.396 4.634c-.014.06-.089.105-.119.138-.166-.008-.255-.1-.245-.213.007-.074.088-.143.164-.139.114.007.225.11.2.214zm1.229 11.989c-.048-.017-.105-.075-.113-.123-.011-.06.035-.117.114-.115.087.003.147.07.138.152-.015.078-.081.106-.139.086zm.944-11.323a.521.521 0 0 1-.54-.239c-.082-.144-.125-.296-.031-.455a.486.486 0 0 1 .489-.242c.27.035.507.286.486.512a.501.501 0 0 1-.404.424zm.606 4.219c-.012-.007-.031-.012-.034-.021-.003-.01.012-.023.019-.035.012.007.032.012.034.021.002.009-.012.023-.019.035zm.257 2.932c-.096-.018-.174-.11-.169-.197.004-.069.096-.136.171-.125.096.014.17.101.164.196-.004.075-.09.141-.166.126zm5.439-.091c-.018.046-.072.078-.096.103-.116-.025-.166-.111-.133-.185.03-.066.087-.082.153-.062.073.023.1.084.076.144zm-.123-9.493c.013.043.031.08.032.118 0 .014-.039.029-.061.044-.017-.036-.039-.071-.046-.108-.002-.011.039-.03.075-.054zm-.145 1.011c.022-.031.071-.043.098-.058a.133.133 0 0 1 .068.202c-.019.029-.079.054-.111.047-.075-.017-.104-.122-.055-.191zm-2.453 4.577c-.135-.02-.234-.139-.219-.263.016-.132.137-.219.275-.198.131.02.209.139.185.282a.216.216 0 0 1-.241.179zm.376 8.962c-.086-.003-.152-.041-.165-.129-.013-.085.091-.177.218-.165.024.039.076.094.092.157.018.08-.056.14-.145.137zm.802-.642c-.062.041-.15.042-.189.052-.269-.017-.378-.121-.375-.323.003-.213.129-.325.34-.296.063.009.134.017.183.052.061.042.133.105.146.17.025.125.018.265-.105.345zm.854 1.922c-.008.002-.02-.009-.03-.015.006-.01.01-.025.019-.028.007-.003.02.009.03.014-.007.01-.011.027-.019.029zm1.09-5.388c-.014.046-.035.089-.055.133-.158.335-.215.355-.593.218-.044-.016-.094-.016-.151-.025-.05.031-.115.054-.156.099-.301.332-.667.244-1.031.16-.094-.022-.157-.138-.129-.226.033-.107.081-.209.114-.316.072-.237.221-.386.523-.425.029.01.062.015.089.031.228.143.453.148.678-.006a.59.59 0 0 1 .415-.095c.228.028.362.23.296.452zm.552-2.353c-.016.15-.12.239-.258.222-.141-.017-.238-.128-.228-.26.011-.151.151-.246.315-.213.111.021.184.129.171.251zm.948 3.532c-.014-.037-.034-.072-.038-.109-.001-.009.064-.04.071-.033.027.027.042.065.062.099a2.99 2.99 0 0 0-.095.043zm1.971-11.082c-.047.008-.096.009-.132.012-.044-.006-.076-.009-.107-.015-.146-.028-.247-.122-.262-.243-.017-.134.081-.298.221-.334a.825.825 0 0 1 .285-.015.287.287 0 0 1 .259.296.318.318 0 0 1-.264.299zm4.005 12.35c-.029-.026-.046-.065-.068-.098l.097-.048c.016.038.037.073.043.111.001.008-.065.042-.072.035zm.608-13.603c-.023.051-.069.111-.119.127-.071.024-.155.012-.202.015-.063-.009-.094-.013-.125-.019-.088-.016-.166-.094-.141-.154.022-.054.066-.129.11-.137.12-.021.246-.019.369-.011.073.005.138.113.108.179zm1.362 13.27c-.019.151-.138.24-.307.231-.153-.008-.265-.098-.269-.217-.006-.169.12-.281.312-.276.18.005.284.108.264.262zm.826-11.038.001-.039.032.019-.033.02zm1.347 11.684c-.049-.005-.118-.064-.131-.112a.477.477 0 0 1 .149-.511c.021-.018.067-.034.085-.024.037.022.081.059.088.096.014.076.005.156.006.238-.017.074-.021.157-.057.224-.022.045-.095.094-.14.089zm.551.949c-.031.074-.068.148-.161.155-.094.007-.143-.056-.174-.132-.047-.117-.095-.235-.129-.356a.396.396 0 0 1 .006-.184c.02-.091.154-.14.231-.094.182.107.257.272.266.479-.011.041-.021.088-.039.132zm1.528-4.381c-.018-.049-.066-.116-.063-.181.003-.096.124-.175.203-.156.075.018.181.144.172.206-.011.079-.169.158-.312.131zm3.277-3.932c-.171-.009-.266-.108-.261-.272a.197.197 0 0 1 .215-.2c.161.008.264.115.262.274-.001.121-.092.204-.216.198zm3.276-.105c-.012.023-.059.05-.077.043-.041-.016-.101-.047-.106-.08-.028-.179.024-.339.192-.551.081.26.075.427-.009.588zm1.777 7.107c-.013.101-.132.181-.253.171-.143-.012-.242-.129-.22-.257.021-.117.123-.188.247-.17.144.019.241.13.226.256zm.463-15.127c.003-.021.036-.038.055-.056l.057.057-.08.075c-.011-.026-.035-.052-.032-.076zm.761 14.07c-.087.157-.219.216-.422.196-.028-.007-.076-.015-.121-.033a.292.292 0 0 1-.171-.353c.039-.148.17-.229.377-.232.19-.003.342.09.367.242a.282.282 0 0 1-.03.18zm2.807-6.936c-.073.038-.158.041-.222-.029a.15.15 0 0 1-.032-.085.175.175 0 0 1 .125-.185.434.434 0 0 1 .225.016c.032.01.046.074.082.137-.061.053-.112.112-.178.146zm1.592 5.783c-.005.015-.007.032-.016.044-.145.197-.377.261-.584.154a.17.17 0 0 1-.08-.11c-.006-.037.016-.101.047-.119a.811.811 0 0 1 .494-.129c.077.006.159.102.139.16zm.646-2.904c-.007-.011-.023-.025-.02-.032.008-.022.023-.042.035-.062l.021.033c-.011.021-.024.041-.036.061zm.458-.868c-.01.019-.049.023-.075.033l-.051-.065.102-.044c.01.026.033.059.024.076zm.156 7.667c-.042-.04-.089-.065-.1-.101-.018-.055.061-.122.125-.1.034.011.077.067.073.097-.004.035-.056.063-.098.104zm.8-9.736-.12-.089c.028-.031.053-.085.084-.088.035-.003.075.038.113.061l-.077.116zm.272-3.59c-.09-.012-.141-.066-.146-.154-.006-.098.078-.175.18-.173.1.002.177.086.169.184-.008.097-.094.158-.203.143zm.308 7.471c-.158-.015-.251-.129-.245-.298.006-.164.088-.251.231-.248.2.004.315.115.304.292-.01.161-.133.269-.29.254zm.202-5.335c-.083.022-.175-.093-.142-.185.016-.043.1-.104.127-.093.059.023.102.088.173.156-.07.056-.109.109-.158.122zm1.368 4.719c-.016.026-.072.033-.111.034-.011 0-.041-.059-.032-.074.019-.032.057-.054.108-.097.018.064.049.114.035.137zm3.39-10.234c-.007.046-.065.111-.11.119a.175.175 0 0 1-.201-.193c.008-.051.058-.096.078-.128.143-.004.25.094.233.202zm16.482 5.463c.007-.019.048-.025.074-.036l.052.073-.106.047c-.008-.029-.028-.062-.02-.084zm-.004 1.506c.142.01.243.121.223.246-.019.119-.144.209-.278.2-.11-.008-.194-.107-.191-.226.003-.14.103-.229.246-.22zm-.659 5.046a.243.243 0 0 1 .018-.063.206.206 0 0 1 .215-.124c.098.008.166.098.152.203a.228.228 0 0 1-.233.193c-.09-.007-.165-.11-.152-.209zm-3.134-12.432c.085.003.158.029.179.123.02.093-.064.187-.164.191a.18.18 0 0 1-.18-.18c.001-.078.072-.138.165-.134zm-.574 11.338c.074-.011.154.054.165.136.014.101-.058.194-.195.201-.031-.033-.101-.077-.124-.139-.033-.085.055-.183.154-.198zm-.761 1.749c-.012.139-.168.246-.322.222-.086-.014-.154-.113-.15-.221.005-.143.109-.254.239-.257.126-.003.244.128.233.256zm-.98-11.636c.246-.231.538-.207.755.054.01.012.018.026.026.04.082.157-.067.479-.237.51a.548.548 0 0 1-.374-.062c-.136-.076-.312-.112-.335-.336.047-.06.097-.142.165-.206zm-.652 13.888c.065-.13.186-.166.324-.158.245.017.402.145.401.327 0 .152-.151.292-.357.332-.144.028-.251-.04-.337-.141-.091-.109-.092-.238-.031-.36zm-.467.292c.025.004.048.015.072.023a4.845 4.845 0 0 0-.039.073c-.018-.02-.039-.038-.054-.06-.003-.006.016-.037.021-.036zm-2.428-1.056c.11-.006.184.089.173.227-.007.091-.069.158-.142.156-.118-.004-.219-.1-.216-.205.002-.09.088-.172.185-.178zm-.204-10.352c.004-.003.057.048.052.058-.016.035-.047.063-.075.096l-.072-.076c.031-.027.06-.057.095-.078zm-3.936 8.258c.062.02.108.087.141.116.001.142-.078.223-.175.215-.098-.008-.128-.081-.136-.161-.009-.104.08-.199.17-.17z" data-color="3" class="icon3"></path><path d="M81.764 53.55a6.241 6.241 0 0 1-.41.001c-.833-.026-2.221-.198-2.927-.842l-.136.544a7.615 7.615 0 0 0 3.359.858l.114-.561z"></path><path d="M82.708 53.494a6.01 6.01 0 0 1-.231.022c.113-.003.226-.008.339-.015a.273.273 0 0 0-.108-.007z"></path><path d="m81.764 53.55.118-.006a6.46 6.46 0 0 0 .335-.026c1.394-.15 2.892-.795 2.748-2.423-.068-.772-.51-1.569-1.104-2.069-.629-.53-1.438-.605-2.229-.497-1.542.21-2.886 1.123-3.5 2.532a3.951 3.951 0 0 0-.126.324.26.26 0 0 0-.008.15c-.063.47.09.833.366 1.113.021.021.04.043.062.063.706.644 2.095.816 2.927.842.133.003.271.002.411-.003z" data-color="6" class="icon3"></path><path d="M68.133 137.575a.97.97 0 0 1 .168.362c.036.143.061.293.074.449.012.156.037.29.072.401.07.191.178.366.325.527a1.236 1.236 0 0 0 .672.39c.041.011.079.02.116.027a.79.79 0 0 1 .239.089l.91-.026a.602.602 0 0 1 .282-.123c.101-.015.207-.04.32-.075a.451.451 0 0 0 .232-.145c.059-.07.109-.146.151-.227a1.87 1.87 0 0 0 .108-.256 1.72 1.72 0 0 1 .102-.244l-.024-.843a.434.434 0 0 0-.058-.125 1.183 1.183 0 0 0-.095-.148 1.198 1.198 0 0 0-.424-.392 1.534 1.534 0 0 0-.496-.155 4.03 4.03 0 0 0-.547-.033 6.273 6.273 0 0 1-.589-.025 4.37 4.37 0 0 1-.946-.196 2.684 2.684 0 0 1-.813-.423 2.239 2.239 0 0 1-.578-.665 1.965 1.965 0 0 1-.239-.934 2.648 2.648 0 0 1 .108-.859c.037-.13.085-.26.147-.39.061-.13.133-.277.218-.44.086-.099.202-.207.349-.323a3.81 3.81 0 0 1 .991-.565c.172-.065.327-.1.464-.104l.109-.003c.041.015.112.037.214.066.102.029.208.062.318.099l.313.105.208.072c.082.038.191.101.327.189.136.089.253.131.35.128l.049-.001c.014-.073.032-.151.054-.236.022-.085.052-.164.09-.237a.57.57 0 0 1 .152-.185.376.376 0 0 1 .228-.079.402.402 0 0 1 .376.212.897.897 0 0 1 .14.448l.064 2.217a.47.47 0 0 1-.124.329.417.417 0 0 1-.311.154c-.178.005-.303-.056-.375-.182a1.434 1.434 0 0 1-.158-.442 9.717 9.717 0 0 0-.111-.497.611.611 0 0 0-.223-.362 3.438 3.438 0 0 0-.752-.388 2.142 2.142 0 0 0-.817-.146 1.414 1.414 0 0 0-.513.111 1.576 1.576 0 0 0-.441.278c-.13.116-.234.25-.31.401a1.001 1.001 0 0 0-.107.491c.01.337.082.589.216.754.134.165.307.281.52.347.212.066.45.104.713.112.263.009.524.021.784.038.202.01.412.035.627.073.215.038.421.079.616.121a.12.12 0 0 0 .043.023c.02.008.035.015.043.023.182.14.354.279.516.419.162.14.304.289.426.446a1.9 1.9 0 0 1 .288.528c.07.195.109.417.116.666.006.193-.005.394-.031.604-.026.21-.071.414-.134.613a2.407 2.407 0 0 1-.257.556 1.663 1.663 0 0 1-.412.446 29.068 29.068 0 0 0-.239.134c-.056.03-.106.055-.15.077a.38.38 0 0 0-.078.044c-.103.067-.204.14-.303.22a.579.579 0 0 1-.354.125l-1.188.034a.788.788 0 0 1-.33-.063 3.038 3.038 0 0 1-.314-.154 3.643 3.643 0 0 0-.314-.154.817.817 0 0 0-.342-.063c-.081.002-.139.034-.173.095a2.216 2.216 0 0 0-.098.195.643.643 0 0 1-.128.19c-.055.058-.143.088-.264.092a.555.555 0 0 1-.38-.138.466.466 0 0 1-.18-.359l-.08-2.772a.43.43 0 0 1 .136-.347.518.518 0 0 1 .348-.136c.17-.005.293.041.368.14z" data-color="4" class="icon1"></path><path d="M79.409 140.103c-.001-.016 0-.05.003-.102a3.43 3.43 0 0 0 .003-.102c.078-.098.149-.172.212-.222a.854.854 0 0 1 .203-.12c.072-.03.148-.058.228-.084.08-.026.176-.065.288-.116a.365.365 0 0 0 .148-.136 1 1 0 0 0 .103-.207c.026-.073.048-.147.066-.224.018-.077.034-.143.049-.199.022-.081.056-.222.103-.423l.151-.641.151-.641c.047-.201.081-.343.103-.423.068-.178.111-.351.131-.52a2.58 2.58 0 0 1 .118-.52c.118-.387.238-.775.361-1.163.122-.388.234-.775.336-1.162.022-.081.045-.182.07-.302a1.92 1.92 0 0 1 .105-.345.855.855 0 0 1 .186-.282.446.446 0 0 1 .312-.123.46.46 0 0 1 .356.134c.092.093.166.205.222.336.056.131.101.265.133.404s.062.249.088.328c.089.27.161.546.218.828.057.282.157.55.302.802l1.264 4.239a.352.352 0 0 0 .145.188c.07.046.15.082.24.107.09.025.177.045.263.058.085.014.16.027.226.042a.486.486 0 0 1 .243.437c.006.192-.051.34-.169.443a.7.7 0 0 1-.456.163c-.202.006-.412.006-.631 0a36.32 36.32 0 0 0-.619-.012 4.856 4.856 0 0 1-.364-.002 1.009 1.009 0 0 1-.305-.057.446.446 0 0 1-.217-.168.618.618 0 0 1-.089-.334l-.006-.204a.567.567 0 0 1 .195-.168c.076-.038.151-.075.227-.109a1.53 1.53 0 0 0 .203-.108.287.287 0 0 0 .123-.154c0-.016-.006-.05-.015-.102a2.957 2.957 0 0 0-.035-.161 2.698 2.698 0 0 1-.035-.155.396.396 0 0 0-.027-.095 1.933 1.933 0 0 1-.04-.131 1.385 1.385 0 0 0-.188-.391c-.038-.055-.077-.082-.118-.081l-1.904.054c-.016 0-.056.028-.119.081a.534.534 0 0 0-.106.105l-.319.717-.004.072c-.003.04-.004.068-.004.084.004.136.045.227.123.273.078.046.162.088.252.125.09.038.174.089.253.155.079.066.121.183.125.351.005.184-.054.318-.177.401a.825.825 0 0 1-.451.133 2.174 2.174 0 0 1-.334-.015 2.707 2.707 0 0 0-.818.041c-.153.032-.31.051-.472.055a.517.517 0 0 1-.443-.198.762.762 0 0 1-.166-.454zm2.729-2.993a.53.53 0 0 0 .257.083c.081.002.178.001.291-.002.162-.005.321-.021.478-.05a8.4 8.4 0 0 1 .489-.074l.047-.05.004-.066a.993.993 0 0 0 .004-.078 1.927 1.927 0 0 0-.058-.33 7.89 7.89 0 0 0-.142-.514c-.058-.187-.122-.38-.193-.579a26.1 26.1 0 0 0-.355-.947c-.044-.107-.07-.161-.078-.16-.032.001-.056.022-.071.062a.959.959 0 0 1-.034.085l-.095.286c-.041.126-.084.251-.129.377s-.084.239-.118.34l-.061.188c-.059.21-.117.425-.176.643a2.201 2.201 0 0 0-.079.64c0 .016.003.04.008.072a.342.342 0 0 1 .011.074z" data-color="4" class="icon1"></path><path d="M94.457 140.251a6.013 6.013 0 0 1-.757.07.818.818 0 0 1-.545-.171.617.617 0 0 1-.239-.493c-.006-.217.054-.379.18-.487.126-.108.294-.165.505-.171a1.05 1.05 0 0 1 .402.067c.131.049.265.071.402.067a.391.391 0 0 0 .216-.078.574.574 0 0 0 .165-.173 3.84 3.84 0 0 1 .001-.181c.001-.088.002-.148.001-.181l-.008-.289a.773.773 0 0 0-.069-.299l-.105-3.621c.037-.113.053-.258.048-.435a44.229 44.229 0 0 0-.012-.397l-.007-.229c-.003-.104-.009-.156-.017-.156l-.138-.165-1.285.037a.438.438 0 0 1-.388-.194.724.724 0 0 1-.151-.405c-.006-.217.066-.379.217-.488a.933.933 0 0 1 .529-.172c.162-.005.324.007.486.034.163.028.325.039.486.034.129-.004.254-.015.375-.035.121-.019.246-.031.375-.035.129-.004.251.001.365.014a2.838 2.838 0 0 0 .727-.021 2.947 2.947 0 0 1 .745-.021 1.2 1.2 0 0 1 .348.086.7.7 0 0 1 .267.197.553.553 0 0 1 .113.346.534.534 0 0 1-.117.359.428.428 0 0 1-.341.16l-1.383.039-.047.049a7.321 7.321 0 0 1-.012.831 3.082 3.082 0 0 0-.006.205.999.999 0 0 1-.015.115.532.532 0 0 1-.027.115l.135 4.668c.001.024.025.041.074.052.049.011.106.019.171.025l.195.019c.065.006.11.013.134.02a.715.715 0 0 1 .166.08c.012.008.023.013.031.017.008.004.032.005.073.004a.373.373 0 0 0 .216-.072.479.479 0 0 1 .228-.085c.032-.001.097-.007.194-.017a6.57 6.57 0 0 1 .303-.027l.297-.02c.093-.007.159-.011.2-.012a.499.499 0 0 0 .338-.281c.065-.142.108-.308.131-.498.023-.189.033-.388.031-.597a4.192 4.192 0 0 1 .032-.579c.023-.177.071-.325.145-.444.073-.118.195-.18.365-.185a.412.412 0 0 1 .351.159c.088.11.134.241.139.393l.061 2.118a.565.565 0 0 1 .072.185c.005.044.009.098.011.162a.882.882 0 0 1-.041.26 1.337 1.337 0 0 1-.119.286.791.791 0 0 1-.188.228.394.394 0 0 1-.246.097l-2.801.08a.672.672 0 0 1-.114.039.934.934 0 0 0-.114.039l-.024.001a1.695 1.695 0 0 1-.487-.058 1.71 1.71 0 0 0-.499-.058c-.25.011-.498.034-.744.073z" data-color="4" class="icon1"></path><path d="M106.279 139.216a.906.906 0 0 1 .072-.243.451.451 0 0 1 .147-.179.444.444 0 0 1 .253-.073l.073-.002a.665.665 0 0 0 .14.026c.077.01.124.014.14.014l.024-.001c.04-.001.095-.007.163-.017a9.084 9.084 0 0 0 .416-.078.987.987 0 0 1 .157-.023c.048-.033.082-.093.104-.177a.786.786 0 0 0 .031-.2l-.106-2.827-.007-.229-.072-1.648a.901.901 0 0 0 .044-.356 11.775 11.775 0 0 1-.016-.343l-.009-.301-.099-.082c-.008-.008-.041-.011-.097-.009l-.133.004a2.56 2.56 0 0 0-.393.041 2.465 2.465 0 0 1-.393.041.916.916 0 0 1-.538-.129c-.14-.092-.214-.255-.22-.487a.717.717 0 0 1 .156-.492c.109-.136.269-.206.479-.212.986-.028 1.969-.046 2.948-.054.979-.008 1.961-.03 2.947-.066.122.013.225.086.31.22a.753.753 0 0 1 .132.382l.073 2.539a.432.432 0 0 1-.148.353.553.553 0 0 1-.36.143.56.56 0 0 1-.337-.111.374.374 0 0 1-.173-.308l-.037-1.275c0-.008-.028-.059-.083-.154a2.648 2.648 0 0 0-.134-.213 2.417 2.417 0 0 0-.206-.193c-.095-.081-.176-.121-.24-.12l-2.316.066-.047.05a14.213 14.213 0 0 1-.004.686 14.872 14.872 0 0 0-.004.675c0 .016-.006.064-.02.145-.014.081-.02.129-.02.145l.001.024v.012c.009.04.019.09.029.15.01.06.022.116.035.168.014.052.03.118.048.197l.05.047.618-.018c.087-.067.185-.122.293-.165a.503.503 0 0 0 .254-.224.73.73 0 0 0 .087-.358c.004-.149.012-.295.024-.44.012-.145.045-.27.098-.376.053-.106.161-.161.323-.166a.4.4 0 0 1 .319.129c.083.09.127.203.131.339l.114 3.946c.007.257-.114.389-.365.396-.162.005-.285-.042-.368-.14a.876.876 0 0 1-.18-.356 1.944 1.944 0 0 1-.061-.438l-.011-.373a1.59 1.59 0 0 0-.285-.408 2.749 2.749 0 0 0-.212-.199c-.071-.058-.13-.087-.178-.085l-.521.015c-.032.001-.048.018-.047.05a.262.262 0 0 0-.046.098l.076 2.635.1.094 1.225-.035c.192-.062.368-.093.525-.093.158 0 .303-.007.436-.018a.905.905 0 0 0 .367-.113c.111-.063.217-.193.316-.388a.833.833 0 0 0 .057-.116.305.305 0 0 0 .033-.115l-.034-1.179a.514.514 0 0 1 .135-.365.477.477 0 0 1 .766.057.829.829 0 0 1 .171.459l.048 1.648a.673.673 0 0 1 .073.221c.006.06.01.134.013.222.009.297-.074.528-.247.693-.173.166-.405.252-.696.261l-.255.007a.737.737 0 0 1-.244-.041l-4.038.115a.91.91 0 0 1-.35.064c-.13 0-.243.001-.34.004a9.131 9.131 0 0 1-.328.003.797.797 0 0 1-.287-.052.448.448 0 0 1-.205-.157.558.558 0 0 1-.082-.311c-.001-.08.004-.164.018-.253z" data-color="4" class="icon1"></path><path d="M89.508 104.765c-.026-.167-.146-.401-.36-.701-.285-.44-.605-.758-.96-.952-.373-.176-.826-.256-1.359-.238a3.227 3.227 0 0 0-1.439.37c-.356.176-.631.274-.826.291-.302.018-.409-.141-.32-.476.088-.247.057-.467-.094-.661a.752.752 0 0 0-.626-.291c-.267 0-.613.15-1.04.45-.426.265-.8.511-1.119.741-.624.389-1.364.024-1.964.26-.732.287-.963 1.06.044 1.339.473.132.975.003 1.45-.123-.111.03-.599 1.436-.626 1.632-.108.789.244 1.394-.157 2.216-.186.384-.454.725-.632 1.112-.332.722-.325 1.442-.753 2.131-.143.195-.254.344-.334.45-.08.106-.164.194-.253.265a.643.643 0 0 1-.266.132 1.91 1.91 0 0 1-.347.026c-.302 0-.586.093-.853.278-.267.186-.4.393-.4.622 0 .124.124.256.374.397.178.089.281.194.307.318.026.123.013.379-.04.767-.053.371-.063.631-.026.78.035.15.142.295.32.436.195.176.333.26.413.251.08-.009.254-.146.52-.41l.56-.529 1.04.714c.408.3.737.49.986.569.248.079.568.119.959.119.817-.017 1.656-.269 2.519-.754.862-.485 1.55-1.097 2.065-1.838.177-.265.297-.467.36-.609a1.858 1.858 0 0 0 .093-1.164c-.089-.617-.258-1.137-.507-1.56l-.4-.688 1.066-.899c1.403-1.252 2.239-2.529 2.505-3.835.107-.458.147-.771.12-.938zm-5.824 9.745c-.693.508-2.246 1.232-3.048.451-.459-.447-.048-3.26.476-3.532.186-.097.573-.119 1.158-.066.86.077 1.778-.286 2.272.145.229.199.367.569.367 1.231.002.58-.408 1.171-1.225 1.771zm3.447-7.928c-.2 1.773-4.993 4.232-5.21 1.887-.125-1.349 2.227-4.095 3.949-3.84.334.05.645.212.908.52.331.385.41.93.353 1.433z" data-color="3" class="icon3"></path><path d="M92.061 107.726c.255-.056.438-.179.552-.368.113-.19.106-.361-.021-.516-.114-.14-.325-.211-.637-.211s-.566.071-.764.211c-.141.112-.209.196-.201.253.007.056.103.176.287.358.254.252.516.343.784.273z" data-color="3" class="icon3"></path><path d="M100.408 114.5c-.426.338-1.007.696-1.742 1.075-.39.2-1.376.533-1.457.701a.668.668 0 0 1-.021-.194c0-.211.12-.575.361-1.095.255-.491.382-.779.382-.863 0-.098.064-.225.191-.379.099-.112.223-.368.371-.769.149-.4.276-.818.382-1.253.213-.875.111-1.776-.95-1.963-1.586-.28-3.154 1.255-3.965 2.427-.311.45-.548.958-.711 1.527-.111.386-.159.718-.149.997a8.909 8.909 0 0 0-.19.134c-.609.435-1.111.723-1.507.863-.269.071-.453.095-.552.073-.099-.021-.234-.108-.403-.263-.255-.224-.382-.421-.382-.59 0-.196-.05-.316-.149-.358-.127-.084-.174-.259-.138-.526a1.39 1.39 0 0 1 .287-.695c.198-.253.297-.463.297-.632 0-.182.106-.498.318-.948.466-.988-1.577-1.375-2.013-.841-.246.3-.403 1.848-.496 2.297-.161.771-.137 1.482.391 2.116.929 1.117 2.568 1.761 3.944 1.062.348-.176.669-.365.966-.564.403.626 1.046.792 1.93.496.438-.14.686-.19.743-.147.071.084-.049.361-.361.832s-.573.762-.785.874c-.279.138-.511.317-.767.485-.251.165-.502.33-.768.47-.575.302-.983.545-1.458 1.004-.328.315-.877.709-.88 1.198-.002.211.061.417.124.619.241.768.844.699 1.456.396.368-.182.729-.386 1.083-.611.353-.225.566-.393.637-.505a10.962 10.962 0 0 0 .531-.727c.099-.147.209-.306.329-.474.12-.169.23-.327.329-.474.099-.147.191-.295.276-.442a3.63 3.63 0 0 0 .191-.368c.17-.365.502-.688.998-.969.332-.178.599-.339.803-.484.602-.192 1.341-.643 1.544-.737.242-.099.476-.225.702-.38.364-.249 1.071-.634 1.066-1.153-.005-.566-.369-.562-.788-.242zm-5.577 4.594a6.374 6.374 0 0 1-1.518 1.758c-.63.513-1.044.671-1.242.474-.085-.084.071-.351.467-.8a11.26 11.26 0 0 1 1.348-1.285c.502-.407.846-.611 1.029-.611.128.001.1.155-.084.464zm2.059-6.108c0 .197-.626 1.166-.817 1.475-.191.309-.379.52-.562.632-.396.253-.701.358-.913.316a.455.455 0 0 1-.294-.215c.164-.148.27-.262.317-.339.064-.105.059-.213-.011-.326-.107-.18-.247-.278-.419-.294.06-.238.168-.52.322-.848.311-.66 1.076-1.109 1.231-1.348.127-.182.379-.39.754-.622.375-.232.626-.326.753-.285.113.029.149.183.106.463a1.6 1.6 0 0 1-.255.758 1.126 1.126 0 0 0-.212.633z" data-color="3" class="icon3"></path></g></g>
</svg>
</g></svg></svg>