<svg version="1.1" id="Layer_1" xmlns="http://www.w3.org/2000/svg" xmlns:xlink="http://www.w3.org/1999/xlink" x="0px" y="0px"
	 width="100%" viewBox="0 0 512 512" enable-background="new 0 0 512 512" xml:space="preserve">
<path fill="#000000" opacity="1.000000" stroke="none" 
	d="
M1.000000,286.000000 
	C1.000000,191.099243 1.000000,96.198494 1.000000,1.000000 
	C45.353783,1.000000 89.708237,1.000000 134.688080,1.349827 
	C134.854904,2.133332 134.470444,2.730443 133.926971,2.976844 
	C119.457870,9.536776 114.028320,21.529680 114.024391,36.558598 
	C113.985680,184.460464 113.968369,332.362366 114.055725,480.264191 
	C114.063538,493.488312 119.920128,503.640381 131.835068,510.007019 
	C133.070404,510.667114 133.953476,511.986511 135.000000,513.000000 
	C90.393158,513.000000 45.786324,513.000000 1.000000,513.000000 
	C1.000000,448.979218 1.000000,384.958252 1.351445,320.161926 
	C2.124389,320.060883 2.837164,320.699463 2.924963,321.414764 
	C5.393569,341.525848 13.395543,359.365082 24.402903,376.200928 
	C27.804050,381.403046 35.912922,383.534393 39.643661,380.723389 
	C44.084206,377.377563 47.780457,371.774567 42.693527,364.459991 
	C35.102173,353.544281 29.344597,341.827118 26.088053,328.973511 
	C22.291542,313.988647 21.871813,298.893646 24.643469,283.589996 
	C27.511688,267.753174 34.466938,253.851959 42.837387,240.372635 
	C44.407036,237.844940 44.559910,233.920212 44.138107,230.806610 
	C43.632919,227.077469 40.739849,224.652176 36.833805,224.018494 
	C31.388571,223.135086 27.040730,225.054535 24.081739,229.670227 
	C13.385180,246.355606 5.460370,264.130310 2.919694,284.012695 
	C2.826129,284.744934 1.664099,285.340668 1.000000,286.000000 
M56.503139,275.998383 
	C51.983612,287.733704 49.826885,299.655518 51.901783,312.342743 
	C54.444199,327.888702 60.388283,341.584473 71.442192,352.928894 
	C74.837616,356.413574 79.004822,356.962402 83.028175,354.836945 
	C86.539017,352.982239 88.762009,349.992706 89.154045,345.432343 
	C89.631721,339.875763 85.501915,337.207001 82.995056,333.626282 
	C73.875793,320.600708 70.660576,306.385498 74.082542,290.914948 
	C75.963463,282.411377 80.503906,275.098694 86.037506,268.375854 
	C90.090004,263.452454 90.005577,256.341217 86.157623,252.673782 
	C82.574921,249.259155 74.171555,248.527725 71.338661,252.413071 
	C66.035271,259.686737 61.680340,267.651978 56.503139,275.998383 
z"/>
<path fill="#000000" opacity="1.000000" stroke="none" 
	d="
M378.000000,0.999999 
	C422.953094,1.000000 467.906158,1.000000 513.000000,1.000000 
	C513.000000,95.687515 513.000000,190.375107 512.655884,285.849152 
	C511.885895,285.964478 511.164459,285.329559 511.077148,284.616943 
	C508.555756,264.033844 500.482147,245.655594 488.930695,228.658401 
	C485.618896,223.785294 478.801331,222.267319 474.195496,225.268478 
	C468.697418,228.850937 467.334625,234.800461 470.970093,240.404114 
	C480.801605,255.558304 488.110626,271.503876 490.213867,289.831665 
	C492.241364,307.499664 490.651489,324.537292 483.861725,340.820709 
	C480.204620,349.591217 475.059845,357.759338 470.357056,366.069550 
	C467.270599,371.523621 469.864685,377.948242 474.760925,380.906738 
	C478.840790,383.371979 486.079285,381.698120 488.849274,377.482269 
	C500.012451,360.492126 508.544769,342.435425 511.081055,321.967590 
	C511.170776,321.243591 512.335999,320.652863 513.000000,320.000000 
	C513.000000,384.247162 513.000000,448.494354 513.000000,513.000000 
	C468.646118,513.000000 424.291718,513.000000 379.311951,512.650085 
	C378.988312,511.920502 379.210754,511.356537 379.603241,511.187714 
	C394.918213,504.599182 399.997620,492.018707 399.997742,476.451233 
	C399.998413,399.797150 399.987366,323.143036 400.003723,246.488953 
	C400.009308,220.328217 400.082642,194.167465 400.466187,168.009933 
	C402.058472,168.283279 403.309631,168.553421 404.964050,168.944504 
	C406.906250,169.547409 408.414703,170.195129 409.989044,170.485001 
	C422.167999,172.727478 434.297668,173.445709 446.582458,168.967056 
	C452.664093,166.356842 458.364410,163.747803 464.371826,160.983002 
	C471.869415,155.511292 478.733917,149.874481 483.544830,141.758240 
	C486.238800,136.078568 488.654114,130.582901 491.407990,124.893295 
	C492.524750,120.413193 493.244598,116.115463 494.092712,111.843208 
	C496.134857,101.556236 494.902435,91.615547 491.039215,81.538109 
	C488.387390,75.765114 485.778137,70.381134 483.016907,64.680931 
	C478.139099,56.514954 471.385162,50.721798 463.705139,45.398911 
	C457.726593,42.756500 451.946777,40.381432 445.961853,37.663101 
	C431.960754,33.959824 418.220886,33.288166 404.266907,38.135342 
	C402.668701,38.394402 401.400635,38.697109 400.083374,38.542656 
	C400.447205,21.675087 394.888092,8.897273 378.546722,2.614380 
	C378.207703,2.484034 378.175385,1.555933 378.000000,0.999999 
M457.503265,276.003357 
	C452.907806,268.410370 448.542664,260.660522 443.553894,253.335373 
	C442.316315,251.518173 439.142090,250.475037 436.711029,250.138763 
	C432.714111,249.585876 429.143829,250.672150 426.715576,254.618286 
	C423.643585,259.610535 424.902710,263.951111 427.821655,268.289307 
	C430.812836,272.734863 434.561279,276.834717 436.715332,281.650787 
	C445.262726,300.761169 441.682190,320.999115 428.053986,337.388855 
	C423.644440,342.691956 423.611389,348.321228 428.553497,353.040955 
	C432.687866,356.989288 440.207245,356.991943 443.837097,352.419342 
	C461.867401,329.706238 468.396881,304.742065 457.503265,276.003357 
z"/>
<path fill="#3C963C" opacity="1.000000" stroke="none" 
	d="
M377.531342,0.999999 
	C378.175385,1.555933 378.207703,2.484034 378.546722,2.614380 
	C394.888092,8.897273 400.447205,21.675087 399.941895,38.868797 
	C395.823914,42.084957 391.798157,44.517815 387.495117,47.051620 
	C386.208282,47.757557 385.198761,48.362541 384.144348,48.502476 
	C383.639099,40.876209 383.178680,33.714993 382.615356,26.264833 
	C378.665924,18.574083 372.271332,16.169188 364.302094,16.174534 
	C292.653717,16.222612 221.005249,16.171154 149.356812,16.167725 
	C136.601883,16.167112 130.061920,22.793453 130.053619,35.676445 
	C130.026657,77.499184 130.007492,119.321945 130.011642,161.144699 
	C130.012634,171.138977 130.115677,181.133270 130.108154,191.583908 
	C130.079498,220.076065 130.114502,248.111877 130.086121,276.603149 
	C130.005478,292.683167 129.959579,308.307800 129.977448,323.932343 
	C130.007278,350.025391 130.077896,376.118378 130.064209,402.660278 
	C130.037994,415.017151 130.078934,426.925140 130.049255,439.307739 
	C129.960602,452.271423 129.929520,464.760498 129.927872,477.249573 
	C129.925980,491.742737 136.016022,497.778870 150.675644,497.783936 
	C221.781387,497.808472 292.887115,497.825073 363.992859,497.835297 
	C377.466888,497.837250 383.940643,491.387329 383.945435,477.966492 
	C383.969208,411.356812 383.984924,344.747101 383.994690,278.137421 
	C383.994934,276.475342 383.893433,274.813263 383.909576,272.673065 
	C383.935211,260.419800 383.890625,248.644669 383.909698,236.413025 
	C384.021667,209.973083 384.070007,183.989655 384.408386,158.084091 
	C385.727173,158.772202 386.755920,159.382431 388.002380,160.271362 
	C392.188385,163.035614 396.156738,165.521179 400.125061,168.006729 
	C400.082642,194.167465 400.009308,220.328217 400.003723,246.488953 
	C399.987366,323.143036 399.998413,399.797150 399.997742,476.451233 
	C399.997620,492.018707 394.918213,504.599182 379.603241,511.187714 
	C379.210754,511.356537 378.988312,511.920502 378.843262,512.650085 
	C297.979095,513.000000 216.958206,513.000000 135.468658,513.000000 
	C133.953476,511.986511 133.070404,510.667114 131.835068,510.007019 
	C119.920128,503.640381 114.063538,493.488312 114.055725,480.264191 
	C113.968369,332.362366 113.985680,184.460464 114.024391,36.558598 
	C114.028320,21.529680 119.457870,9.536776 133.926971,2.976844 
	C134.470444,2.730443 134.854904,2.133332 135.156738,1.349827 
	C215.687561,1.000000 296.375122,1.000000 377.531342,0.999999 
M254.528168,11.081759 
	C259.158691,11.075706 263.800781,11.245824 268.411957,10.944227 
	C269.619598,10.865240 270.731445,9.321479 271.887268,8.450415 
	C270.805634,7.657648 269.740845,6.206092 268.639618,6.177890 
	C260.872131,5.978971 253.094727,5.978690 245.327332,6.179880 
	C244.233337,6.208216 243.176682,7.677463 242.102737,8.479755 
	C243.270020,9.341308 244.353348,10.755823 245.622192,10.948521 
	C248.209412,11.341427 250.896606,11.076052 254.528168,11.081759 
z"/>
<path fill="#8664FF" opacity="1.000000" stroke="none" 
	d="
M1.000000,286.468658 
	C1.664099,285.340668 2.826129,284.744934 2.919694,284.012695 
	C5.460370,264.130310 13.385180,246.355606 24.081739,229.670227 
	C27.040730,225.054535 31.388571,223.135086 36.833805,224.018494 
	C40.739849,224.652176 43.632919,227.077469 44.138107,230.806610 
	C44.559910,233.920212 44.407036,237.844940 42.837387,240.372635 
	C34.466938,253.851959 27.511688,267.753174 24.643469,283.589996 
	C21.871813,298.893646 22.291542,313.988647 26.088053,328.973511 
	C29.344597,341.827118 35.102173,353.544281 42.693527,364.459991 
	C47.780457,371.774567 44.084206,377.377563 39.643661,380.723389 
	C35.912922,383.534393 27.804050,381.403046 24.402903,376.200928 
	C13.395543,359.365082 5.393569,341.525848 2.924963,321.414764 
	C2.837164,320.699463 2.124389,320.060883 1.351445,319.693298 
	C1.000000,308.979095 1.000000,297.958221 1.000000,286.468658 
z"/>
<path fill="#8664FF" opacity="1.000000" stroke="none" 
	d="
M513.000000,319.531342 
	C512.335999,320.652863 511.170776,321.243591 511.081055,321.967590 
	C508.544769,342.435425 500.012451,360.492126 488.849274,377.482269 
	C486.079285,381.698120 478.840790,383.371979 474.760925,380.906738 
	C469.864685,377.948242 467.270599,371.523621 470.357056,366.069550 
	C475.059845,357.759338 480.204620,349.591217 483.861725,340.820709 
	C490.651489,324.537292 492.241364,307.499664 490.213867,289.831665 
	C488.110626,271.503876 480.801605,255.558304 470.970093,240.404114 
	C467.334625,234.800461 468.697418,228.850937 474.195496,225.268478 
	C478.801331,222.267319 485.618896,223.785294 488.930695,228.658401 
	C500.482147,245.655594 508.555756,264.033844 511.077148,284.616943 
	C511.164459,285.329559 511.885895,285.964478 512.655884,286.317810 
	C513.000000,297.020905 513.000000,308.041779 513.000000,319.531342 
z"/>
<path fill="#8664FF" opacity="1.000000" stroke="none" 
	d="
M56.716999,275.663940 
	C61.680340,267.651978 66.035271,259.686737 71.338661,252.413071 
	C74.171555,248.527725 82.574921,249.259155 86.157623,252.673782 
	C90.005577,256.341217 90.090004,263.452454 86.037506,268.375854 
	C80.503906,275.098694 75.963463,282.411377 74.082542,290.914948 
	C70.660576,306.385498 73.875793,320.600708 82.995056,333.626282 
	C85.501915,337.207001 89.631721,339.875763 89.154045,345.432343 
	C88.762009,349.992706 86.539017,352.982239 83.028175,354.836945 
	C79.004822,356.962402 74.837616,356.413574 71.442192,352.928894 
	C60.388283,341.584473 54.444199,327.888702 51.901783,312.342743 
	C49.826885,299.655518 51.983612,287.733704 56.716999,275.663940 
z"/>
<path fill="#ED843D" opacity="1.000000" stroke="none" 
	d="
M387.784668,159.992676 
	C386.755920,159.382431 385.727173,158.772202 384.191711,157.774643 
	C380.245544,157.383698 376.765625,157.044159 373.375793,157.452423 
	C367.798737,158.124100 362.279999,159.280121 355.582336,160.430176 
	C358.078125,153.701263 360.068390,148.335403 362.441589,142.993927 
	C369.045349,141.983765 372.355713,138.348221 371.990356,132.952225 
	C371.623566,127.534958 367.765411,124.440750 360.819092,123.782303 
	C356.600098,109.862610 356.460175,96.318413 361.350464,82.824326 
	C366.281769,82.761459 369.832123,80.944099 371.380737,76.528984 
	C372.651093,72.907227 372.438293,69.377754 368.919922,66.518478 
	C374.038208,60.436462 379.113708,54.701996 384.189209,48.967525 
	C385.198761,48.362541 386.208282,47.757557 387.607697,47.391289 
	C391.760742,52.519619 396.214447,53.832806 400.719360,51.381065 
	C405.323090,48.875557 406.561768,44.658302 404.597107,38.178989 
	C418.220886,33.288166 431.960754,33.959824 445.787109,38.029396 
	C444.040833,44.589043 445.048492,48.543602 449.128113,50.983181 
	C453.142426,53.383698 457.090607,53.144192 460.577606,49.953663 
	C461.892883,48.750240 462.806915,47.108299 463.903839,45.666256 
	C471.385162,50.721798 478.139099,56.514954 482.736328,64.890633 
	C478.071899,69.814583 477.185486,73.686943 479.724609,78.011528 
	C482.113190,82.079704 486.137085,83.467026 491.081787,81.927124 
	C494.902435,91.615547 496.134857,101.556236 494.092712,111.843208 
	C493.244598,116.115463 492.524750,120.413193 491.107880,124.663612 
	C485.152893,123.757103 481.336975,125.456253 479.360626,129.574234 
	C477.206390,134.062851 478.446381,137.989716 483.266174,141.942230 
	C478.733917,149.874481 471.869415,155.511292 464.081116,160.790329 
	C459.226715,154.490433 454.601013,152.809799 449.537231,155.686462 
	C444.863159,158.341766 443.711151,162.928192 446.201141,168.968231 
	C434.297668,173.445709 422.167999,172.727478 409.989044,170.485001 
	C408.414703,170.195129 406.906250,169.547409 405.086670,168.569138 
	C406.584259,161.974823 404.879913,157.326035 400.085693,155.197433 
	C395.307678,153.076019 390.892670,154.797089 387.784668,159.992676 
M434.009430,130.735016 
	C431.891785,125.876617 428.121002,123.458450 423.782074,124.176300 
	C419.235016,124.928581 416.489502,128.243866 415.847351,134.219681 
	C409.865662,147.565292 414.963013,156.702438 427.977112,155.829437 
	C432.731140,155.510529 437.365173,154.858627 438.775543,148.983887 
	C440.623535,141.286057 438.971191,134.873276 434.009430,130.735016 
M438.741882,88.500061 
	C438.716156,80.845940 438.848633,73.187027 438.617157,65.539131 
	C438.413879,58.821098 436.222473,56.717331 429.539703,56.157906 
	C427.722321,56.005768 425.875153,56.012959 424.054230,56.134949 
	C417.048218,56.604313 414.914764,58.702232 414.860535,65.755760 
	C414.746674,80.564857 414.748535,95.375671 414.829285,110.185089 
	C414.869476,117.558067 416.967621,119.612770 424.304016,119.947609 
	C426.295258,120.038498 428.305969,120.057755 430.289673,119.892448 
	C436.252808,119.395546 438.320465,117.493599 438.559601,111.460068 
	C438.849396,104.149147 438.700714,96.820831 438.741882,88.500061 
M463.601624,101.985641 
	C461.478546,96.238884 457.872803,93.515984 453.128754,94.077011 
	C448.922577,94.574432 445.434998,98.018539 444.922546,102.180939 
	C444.272644,107.459671 447.830750,112.224434 452.949799,112.930405 
	C458.667816,113.718971 462.914551,109.706871 463.601624,101.985641 
M402.778503,110.354485 
	C403.449921,109.417297 404.271240,108.552704 404.766449,107.530167 
	C406.754211,103.425369 405.885345,99.642815 402.687469,96.660698 
	C399.311157,93.512230 395.279694,92.994522 391.260834,95.518410 
	C387.452484,97.910095 386.181549,101.586998 387.133698,105.866936 
	C388.589752,112.411743 395.391357,114.600685 402.778503,110.354485 
z"/>
<path fill="#8664FF" opacity="1.000000" stroke="none" 
	d="
M457.724243,276.337646 
	C468.396881,304.742065 461.867401,329.706238 443.837097,352.419342 
	C440.207245,356.991943 432.687866,356.989288 428.553497,353.040955 
	C423.611389,348.321228 423.644440,342.691956 428.053986,337.388855 
	C441.682190,320.999115 445.262726,300.761169 436.715332,281.650787 
	C434.561279,276.834717 430.812836,272.734863 427.821655,268.289307 
	C424.902710,263.951111 423.643585,259.610535 426.715576,254.618286 
	C429.143829,250.672150 432.714111,249.585876 436.711029,250.138763 
	C439.142090,250.475037 442.316315,251.518173 443.553894,253.335373 
	C448.542664,260.660522 452.907806,268.410370 457.724243,276.337646 
z"/>
<path fill="#FFB5EF" opacity="1.000000" stroke="none" 
	d="
M446.582458,168.967056 
	C443.711151,162.928192 444.863159,158.341766 449.537231,155.686462 
	C454.601013,152.809799 459.226715,154.490433 463.773987,160.946075 
	C458.364410,163.747803 452.664093,166.356842 446.582458,168.967056 
z"/>
<path fill="#FFB5EE" opacity="1.000000" stroke="none" 
	d="
M463.705139,45.398914 
	C462.806915,47.108299 461.892883,48.750240 460.577606,49.953663 
	C457.090607,53.144192 453.142426,53.383698 449.128113,50.983181 
	C445.048492,48.543602 444.040833,44.589043 445.992218,38.372658 
	C451.946777,40.381432 457.726593,42.756500 463.705139,45.398914 
z"/>
<path fill="#FCB4EC" opacity="1.000000" stroke="none" 
	d="
M388.002380,160.271362 
	C390.892670,154.797089 395.307678,153.076019 400.085693,155.197433 
	C404.879913,157.326035 406.584259,161.974823 404.683472,168.448181 
	C403.309631,168.553421 402.058472,168.283279 400.466187,168.009933 
	C396.156738,165.521179 392.188385,163.035614 388.002380,160.271362 
z"/>
<path fill="#FDB4EC" opacity="1.000000" stroke="none" 
	d="
M404.266907,38.135342 
	C406.561768,44.658302 405.323090,48.875557 400.719360,51.381065 
	C396.214447,53.832806 391.760742,52.519619 387.885010,47.290337 
	C391.798157,44.517815 395.823914,42.084957 399.991119,39.325962 
	C401.400635,38.697109 402.668701,38.394402 404.266907,38.135342 
z"/>
<path fill="#FEB4EE" opacity="1.000000" stroke="none" 
	d="
M483.544830,141.758240 
	C478.446381,137.989716 477.206390,134.062851 479.360626,129.574234 
	C481.336975,125.456253 485.152893,123.757103 490.769287,124.857559 
	C488.654114,130.582901 486.238800,136.078568 483.544830,141.758240 
z"/>
<path fill="#FEB4EE" opacity="1.000000" stroke="none" 
	d="
M491.039215,81.538109 
	C486.137085,83.467026 482.113190,82.079704 479.724609,78.011528 
	C477.185486,73.686943 478.071899,69.814583 482.888306,65.206856 
	C485.778137,70.381134 488.387390,75.765114 491.039215,81.538109 
z"/>
<path fill="#FAD23F" opacity="1.000000" stroke="none" 
	d="
M383.839386,273.151184 
	C383.893433,274.813263 383.994934,276.475342 383.994690,278.137421 
	C383.984924,344.747101 383.969208,411.356812 383.945435,477.966492 
	C383.940643,491.387329 377.466888,497.837250 363.992859,497.835297 
	C292.887115,497.825073 221.781387,497.808472 150.675644,497.783936 
	C136.016022,497.778870 129.925980,491.742737 129.927872,477.249573 
	C129.929520,464.760498 129.960602,452.271423 130.348511,439.175354 
	C168.306992,413.994019 205.891769,389.413757 243.485245,364.846802 
	C290.266205,334.275848 337.054352,303.715881 383.839386,273.151184 
z"/>
<path fill="#FAD23F" opacity="1.000000" stroke="none" 
	d="
M362.058624,142.969543 
	C360.068390,148.335403 358.078125,153.701263 355.582336,160.430176 
	C362.279999,159.280121 367.798737,158.124100 373.375793,157.452423 
	C376.765625,157.044159 380.245544,157.383698 383.901672,157.696762 
	C384.070007,183.989655 384.021667,209.973083 383.581604,236.511230 
	C319.220337,278.886292 255.261398,320.722839 191.275162,362.517609 
	C170.931183,375.805969 150.514664,388.983246 130.131348,402.211395 
	C130.077896,376.118378 130.007278,350.025391 129.977448,323.932343 
	C129.959579,308.307800 130.005478,292.683167 130.416931,276.509338 
	C173.757660,247.897720 216.698776,219.827072 259.652435,191.775635 
	C293.400452,169.736038 327.164001,147.720215 361.165161,125.991119 
	C364.915619,131.720825 364.688507,137.298447 362.058624,142.969543 
z"/>
<path fill="#F9D23F" opacity="1.000000" stroke="none" 
	d="
M130.171783,191.127548 
	C130.115677,181.133270 130.012634,171.138977 130.011642,161.144699 
	C130.007492,119.321945 130.026657,77.499184 130.053619,35.676445 
	C130.061920,22.793453 136.601883,16.167112 149.356812,16.167725 
	C221.005249,16.171154 292.653717,16.222612 364.302094,16.174534 
	C372.271332,16.169188 378.665924,18.574083 382.298492,26.410458 
	C381.080688,27.431644 380.048828,27.975485 379.076965,28.610998 
	C318.997650,67.896439 258.934479,107.206497 198.842712,146.472885 
	C175.985641,161.408615 153.063995,176.245575 130.171783,191.127548 
z"/>
<path fill="#FFFFFE" opacity="1.000000" stroke="none" 
	d="
M130.108154,191.583908 
	C153.063995,176.245575 175.985641,161.408615 198.842712,146.472885 
	C258.934479,107.206497 318.997650,67.896439 379.076965,28.610998 
	C380.048828,27.975485 381.080688,27.431644 382.401428,26.699400 
	C383.178680,33.714993 383.639099,40.876209 384.144348,48.502476 
	C379.113708,54.701996 374.038208,60.436462 368.641693,66.714996 
	C365.867584,72.442604 363.414490,77.626152 360.961365,82.809692 
	C356.460175,96.318413 356.600098,109.862610 360.792084,124.042160 
	C360.929108,124.996338 360.924896,125.345078 360.920654,125.693817 
	C327.164001,147.720215 293.400452,169.736038 259.652435,191.775635 
	C216.698776,219.827072 173.757660,247.897720 130.480316,276.053894 
	C130.114502,248.111877 130.079498,220.076065 130.108154,191.583908 
z"/>
<path fill="#FFFFFE" opacity="1.000000" stroke="none" 
	d="
M130.064209,402.660278 
	C150.514664,388.983246 170.931183,375.805969 191.275162,362.517609 
	C255.261398,320.722839 319.220337,278.886292 383.517944,236.967728 
	C383.890625,248.644669 383.935211,260.419800 383.909576,272.673035 
	C337.054352,303.715881 290.266205,334.275848 243.485245,364.846802 
	C205.891769,389.413757 168.306992,413.994019 130.419098,438.700745 
	C130.078934,426.925140 130.037994,415.017151 130.064209,402.660278 
z"/>
<path fill="#020502" opacity="1.000000" stroke="none" 
	d="
M254.035385,11.081815 
	C250.896606,11.076052 248.209412,11.341427 245.622192,10.948521 
	C244.353348,10.755823 243.270020,9.341308 242.102737,8.479755 
	C243.176682,7.677463 244.233337,6.208216 245.327332,6.179880 
	C253.094727,5.978690 260.872131,5.978971 268.639618,6.177890 
	C269.740845,6.206092 270.805634,7.657648 271.887268,8.450416 
	C270.731445,9.321479 269.619598,10.865240 268.411957,10.944227 
	C263.800781,11.245824 259.158691,11.075706 254.035385,11.081815 
z"/>
<path fill="#040201" opacity="1.000000" stroke="none" 
	d="
M438.741821,89.000053 
	C438.700714,96.820831 438.849396,104.149147 438.559601,111.460068 
	C438.320465,117.493599 436.252808,119.395546 430.289673,119.892448 
	C428.305969,120.057755 426.295258,120.038498 424.304016,119.947609 
	C416.967621,119.612770 414.869476,117.558067 414.829285,110.185089 
	C414.748535,95.375671 414.746674,80.564857 414.860535,65.755760 
	C414.914764,58.702232 417.048218,56.604313 424.054230,56.134949 
	C425.875153,56.012959 427.722321,56.005768 429.539703,56.157906 
	C436.222473,56.717331 438.413879,58.821098 438.617157,65.539131 
	C438.848633,73.187027 438.716156,80.845940 438.741821,89.000053 
z"/>
<path fill="#040201" opacity="1.000000" stroke="none" 
	d="
M434.055359,131.522614 
	C438.971191,134.873276 440.623535,141.286057 438.775543,148.983887 
	C437.365173,154.858627 432.731140,155.510529 427.977112,155.829437 
	C414.963013,156.702438 409.865662,147.565292 416.299438,133.685303 
	C422.201080,129.225037 428.173340,130.853302 434.055359,131.522614 
z"/>
<path fill="#FFB5EF" opacity="1.000000" stroke="none" 
	d="
M463.666992,102.364632 
	C462.914551,109.706871 458.667816,113.718971 452.949799,112.930405 
	C447.830750,112.224434 444.272644,107.459671 444.922546,102.180939 
	C445.434998,98.018539 448.922577,94.574432 453.128754,94.077011 
	C457.872803,93.515984 461.478546,96.238884 463.666992,102.364632 
z"/>
<path fill="#FEB5EF" opacity="1.000000" stroke="none" 
	d="
M402.485718,110.602112 
	C395.391357,114.600685 388.589752,112.411743 387.133698,105.866936 
	C386.181549,101.586998 387.452484,97.910095 391.260834,95.518410 
	C395.279694,92.994522 399.311157,93.512230 402.687469,96.660698 
	C405.885345,99.642815 406.754211,103.425369 404.766449,107.530167 
	C404.271240,108.552704 403.449921,109.417297 402.485718,110.602112 
z"/>
<path fill="#FEB5EB" opacity="1.000000" stroke="none" 
	d="
M361.165161,125.991119 
	C360.924896,125.345078 360.929108,124.996338 360.960358,124.387756 
	C367.765411,124.440750 371.623566,127.534958 371.990356,132.952225 
	C372.355713,138.348221 369.045349,141.983765 362.441589,142.993927 
	C364.688507,137.298447 364.915619,131.720825 361.165161,125.991119 
z"/>
<path fill="#FEB5ED" opacity="1.000000" stroke="none" 
	d="
M361.350464,82.824326 
	C363.414490,77.626152 365.867584,72.442604 368.598938,67.062546 
	C372.438293,69.377754 372.651093,72.907227 371.380737,76.528984 
	C369.832123,80.944099 366.281769,82.761459 361.350464,82.824326 
z"/>
<path fill="#F5AEE5" opacity="1.000000" stroke="none" 
	d="
M434.032410,131.128815 
	C428.173340,130.853302 422.201080,129.225037 416.393768,133.340378 
	C416.489502,128.243866 419.235016,124.928581 423.782074,124.176300 
	C428.121002,123.458450 431.891785,125.876617 434.032410,131.128815 
z"/>
</svg>