<svg version="1.1" id="Layer_1" xmlns="http://www.w3.org/2000/svg" xmlns:xlink="http://www.w3.org/1999/xlink" x="0px" y="0px"
	 width="100%" viewBox="0 0 512 512" enable-background="new 0 0 512 512" xml:space="preserve">
<path fill="#000000" opacity="1.000000" stroke="none" 
	d="
M291.000000,513.000000 
	C194.023544,513.000000 97.547081,513.000000 1.035313,513.000000 
	C1.035313,342.398529 1.035313,171.797028 1.035313,1.097768 
	C171.559799,1.097768 342.119690,1.097768 512.839783,1.097768 
	C512.839783,171.666550 512.839783,342.333252 512.839783,513.000000 
	C439.130341,513.000000 365.315155,513.000000 291.000000,513.000000 
M506.945618,275.744720 
	C501.091827,275.364716 495.238068,274.984711 489.002686,274.579956 
	C489.002686,267.136292 489.068146,259.678497 488.962860,252.223099 
	C488.931274,249.985718 488.931030,247.528015 488.049805,245.559158 
	C483.258789,234.854996 478.230927,224.255966 473.219238,213.651657 
	C466.904572,200.290375 460.381500,187.025604 454.215942,173.596344 
	C447.658875,159.314453 437.035614,151.821106 421.030243,151.947144 
	C396.699921,152.138779 372.366913,151.997284 348.035065,151.997284 
	C346.434326,151.997284 344.833557,151.997284 342.840515,151.997284 
	C342.840515,139.703613 342.840515,127.959839 342.840515,116.274673 
	C235.038361,116.274673 127.637337,116.274673 19.840429,116.274673 
	C19.840429,180.288925 19.840429,244.026794 19.840429,308.160980 
	C15.370892,308.160980 11.287039,308.160980 7.280299,308.160980 
	C7.280299,320.967560 7.280299,333.373505 7.280299,346.112061 
	C20.334526,346.112061 33.109638,346.112061 45.833038,346.112061 
	C50.021854,378.226898 73.248718,395.244324 97.686684,397.873352 
	C108.855194,399.074921 119.630981,396.433289 129.576889,391.028564 
	C139.419647,385.679871 146.812729,377.805115 152.599365,368.317932 
	C156.760010,376.425995 162.539825,383.077484 170.236069,388.028656 
	C182.515518,395.928314 195.609985,399.231720 210.374191,397.147369 
	C228.061661,394.650360 240.975388,385.505096 250.405945,370.938660 
	C252.268341,368.062012 254.036911,366.923340 257.394470,366.937866 
	C284.225677,367.053925 311.057617,367.002655 337.889313,367.002655 
	C339.497864,367.002655 341.106384,367.002686 343.104462,367.002686 
	C343.104462,359.763397 343.104462,353.012390 343.104462,346.238831 
	C346.596375,346.238831 349.685394,346.238831 352.746979,346.238831 
	C355.442749,375.975037 378.124481,396.038269 406.616821,397.907532 
	C421.270782,398.868927 434.526581,393.941467 445.673553,384.636200 
	C457.456726,374.799896 464.102783,361.845917 465.354767,345.972595 
	C479.137268,345.972595 492.888794,345.972595 506.998749,345.972595 
	C506.998749,322.624542 506.998749,299.668427 506.945618,275.744720 
z"/>
<path fill="#FEFDFD" opacity="1.000000" stroke="none" 
	d="
M506.972168,276.228516 
	C506.998749,299.668427 506.998749,322.624542 506.998749,345.972595 
	C492.888794,345.972595 479.137268,345.972595 465.354767,345.972595 
	C464.102783,361.845917 457.456726,374.799896 445.673553,384.636200 
	C434.526581,393.941467 421.270782,398.868927 406.616821,397.907532 
	C378.124481,396.038269 355.442749,375.975037 352.746979,346.238831 
	C349.685394,346.238831 346.596375,346.238831 343.104462,346.238831 
	C343.104462,353.012390 343.104462,359.763397 343.104462,367.002686 
	C341.106384,367.002686 339.497864,367.002655 337.889313,367.002655 
	C311.057617,367.002655 284.225677,367.053925 257.394470,366.937866 
	C254.036911,366.923340 252.268341,368.062012 250.405945,370.938660 
	C240.975388,385.505096 228.061661,394.650360 210.374191,397.147369 
	C195.609985,399.231720 182.515518,395.928314 170.236069,388.028656 
	C162.539825,383.077484 156.760010,376.425995 152.598297,368.319336 
	C146.812729,377.805115 139.419647,385.679871 129.576889,391.028564 
	C119.630981,396.433289 108.855194,399.074921 97.686684,397.873352 
	C73.248718,395.244324 50.021854,378.226898 45.833038,346.112061 
	C33.109638,346.112061 20.334526,346.112061 7.280299,346.112061 
	C7.280299,333.373505 7.280299,320.967560 7.280299,308.160980 
	C11.287039,308.160980 15.370892,308.160980 19.840429,308.160980 
	C19.840429,244.026794 19.840429,180.288925 19.840429,116.274673 
	C127.637337,116.274673 235.038361,116.274673 342.840515,116.274673 
	C342.840515,127.959839 342.840515,139.703613 342.840515,151.997284 
	C344.833557,151.997284 346.434326,151.997284 348.035065,151.997284 
	C372.366913,151.997284 396.699921,152.138779 421.030243,151.947144 
	C437.035614,151.821106 447.658875,159.314453 454.215942,173.596344 
	C460.381500,187.025604 466.904572,200.290375 473.219238,213.651657 
	C478.230927,224.255966 483.258789,234.854996 488.049805,245.559158 
	C488.931030,247.528015 488.931274,249.985718 488.962860,252.223099 
	C489.068146,259.678497 489.002686,267.136292 489.002686,274.579956 
	C495.238068,274.984711 501.091827,275.364716 506.972168,276.228516 
M477.083313,287.384247 
	C477.038513,287.210175 476.993713,287.036133 477.041687,285.945831 
	C477.064484,274.448822 477.166809,262.950897 477.036530,251.455627 
	C477.013153,249.394547 476.334412,247.200272 475.442352,245.311127 
	C464.858948,222.898636 453.984619,200.621399 443.608185,178.114304 
	C438.839813,167.771423 431.316986,163.064285 420.049683,163.169174 
	C398.555878,163.369217 377.058899,163.226852 355.563232,163.226669 
	C353.814911,163.226654 352.066620,163.226654 350.085205,163.226654 
	C350.085205,215.694992 350.085205,267.342773 349.137146,319.011963 
	C343.357513,318.990692 337.577850,318.969452 331.876709,318.020844 
	C331.876709,254.771057 331.876709,191.521271 331.876709,127.961601 
	C231.513290,127.961601 131.672379,127.961601 31.636585,127.961601 
	C31.472740,129.119431 31.218363,130.077469 31.218571,131.035446 
	C31.232124,193.662476 31.266283,256.289490 30.324163,318.982422 
	C29.993200,318.991669 29.662281,319.006805 29.331268,319.009247 
	C17.754658,319.094788 17.881300,319.094147 17.924246,330.497131 
	C17.937166,333.927734 18.924709,335.091431 22.430798,335.043976 
	C34.181427,334.884735 45.936188,335.030670 57.716579,335.962433 
	C56.056881,352.855804 61.703571,366.890503 75.213539,377.073273 
	C90.430862,388.542877 107.272537,389.936096 123.927368,380.880188 
	C141.788651,371.168274 149.156555,355.245728 148.222885,335.026154 
	C151.251877,335.032135 154.280884,335.038147 157.340042,335.961700 
	C155.663834,359.639709 169.266678,379.510590 190.902252,384.988953 
	C212.450958,390.445312 234.170074,379.995758 243.463348,359.872437 
	C247.294846,351.575897 247.679718,342.892548 247.923859,334.141205 
	C250.957382,334.428223 253.990921,334.715240 257.009216,335.939026 
	C257.009216,342.516815 257.009216,349.094635 257.009216,355.661987 
	C282.342133,355.661987 306.873779,355.661987 331.884918,355.661987 
	C331.884918,348.569611 331.884918,341.792236 332.836243,334.982971 
	C343.242767,334.984711 353.649292,334.986450 364.129700,335.917358 
	C364.071808,337.579987 363.971619,339.242401 363.962494,340.905304 
	C363.852936,360.860382 376.209229,377.943329 395.306488,384.260468 
	C413.732605,390.355621 434.212799,383.592529 445.781586,367.624634 
	C452.869415,357.841583 454.906250,346.794983 454.985870,334.982178 
	C466.786926,334.978668 478.595490,334.729523 490.385345,335.090912 
	C495.192627,335.238281 496.188843,333.553406 496.091309,329.148621 
	C495.822784,317.021088 496.009033,304.883698 495.987061,292.750275 
	C495.983856,290.984009 495.825684,289.218048 495.734741,287.359985 
	C492.994904,287.359985 490.771332,287.359985 488.003235,287.359985 
	C488.003235,296.487701 487.818970,305.263275 488.087067,314.025024 
	C488.206970,317.942902 487.049957,319.214691 483.061157,319.150787 
	C479.292725,319.090485 477.844727,318.257568 477.898651,314.144897 
	C478.013336,305.399414 477.506439,296.645813 477.083313,287.384247 
z"/>
<path fill="#FF615B" opacity="1.000000" stroke="none" 
	d="
M31.298618,318.916534 
	C31.266283,256.289490 31.232124,193.662476 31.218571,131.035446 
	C31.218363,130.077469 31.472740,129.119431 31.636585,127.961601 
	C131.672379,127.961601 231.513290,127.961601 331.876709,127.961601 
	C331.876709,191.521271 331.876709,254.771057 331.383789,318.495605 
	C301.253479,319.017914 271.616150,319.065460 241.707565,318.908844 
	C231.810043,303.286346 217.915634,295.325653 199.743073,296.233887 
	C183.448746,297.048248 171.246948,305.344788 162.260956,319.105103 
	C155.257385,319.087524 148.701630,319.102844 141.909866,318.861237 
	C131.852097,303.104675 117.790062,295.169220 99.434700,296.252563 
	C83.336105,297.202667 71.419975,305.669556 62.417820,319.090057 
	C51.738434,319.011841 41.518524,318.964172 31.298618,318.916534 
M220.190323,173.815369 
	C213.027069,173.903976 205.863831,173.992584 197.679855,173.974380 
	C164.250275,173.974380 130.820679,173.974380 97.449554,173.974380 
	C96.989281,179.836685 98.713821,181.821365 104.153008,181.897522 
	C112.317574,182.011856 120.484894,181.928741 128.651047,181.929184 
	C134.943832,181.929535 141.236618,181.929260 147.491226,181.929260 
	C147.819901,189.949478 146.080078,191.923660 139.216660,191.926575 
	C130.274216,191.930374 121.331772,191.927505 112.467110,191.927505 
	C111.983421,197.863724 113.569176,199.872604 118.514595,199.931335 
	C126.423965,200.025284 134.335266,199.956482 142.584885,199.956482 
	C141.916763,202.578476 141.277069,204.472260 140.970245,206.418518 
	C140.282684,210.779510 138.065903,212.368561 133.492737,212.154800 
	C125.011803,211.758362 116.499115,212.041229 107.999649,212.041229 
	C100.539360,212.041229 93.079063,212.041229 85.740089,212.041229 
	C84.481598,218.455582 85.607895,220.030670 91.261620,220.055054 
	C103.593948,220.108246 115.926674,220.072128 128.259232,220.072479 
	C130.691833,220.072556 133.124435,220.072495 136.198013,220.072495 
	C134.897049,224.662201 133.698242,228.416031 132.789658,232.238861 
	C131.981079,235.640930 130.375885,237.087158 126.575340,237.024887 
	C111.913521,236.784698 97.245438,236.919540 82.579712,236.938065 
	C80.827690,236.940277 79.075844,237.086243 77.392250,237.162476 
	C77.069740,242.976456 78.655746,244.907135 83.645660,244.933762 
	C96.644478,245.003128 109.643929,244.945801 122.643059,244.973785 
	C124.353760,244.977463 126.064011,245.184067 128.154083,245.321671 
	C126.780334,250.209335 125.605629,254.388809 124.424339,258.591705 
	C125.460632,258.829895 125.780029,258.967438 126.099487,258.967621 
	C163.430161,258.987274 200.761002,258.953857 238.091232,259.086456 
	C241.151047,259.097321 242.076340,257.704620 242.858932,255.260727 
	C250.413864,231.668015 258.052399,208.102081 265.603668,184.508224 
	C266.636658,181.280701 267.322693,177.942154 268.353455,173.940292 
	C252.052704,173.940292 236.596573,173.940292 220.190323,173.815369 
z"/>
<path fill="#03ACFE" opacity="1.000000" stroke="none" 
	d="
M350.085205,318.990570 
	C350.085205,267.342773 350.085205,215.694992 350.085205,163.226654 
	C352.066620,163.226654 353.814911,163.226654 355.563232,163.226669 
	C377.058899,163.226852 398.555878,163.369217 420.049683,163.169174 
	C431.316986,163.064285 438.839813,167.771423 443.608185,178.114304 
	C453.984619,200.621399 464.858948,222.898636 475.442352,245.311127 
	C476.334412,247.200272 477.013153,249.394547 477.036530,251.455627 
	C477.166809,262.950897 477.064484,274.448822 476.564789,286.398651 
	C475.099976,286.894562 474.107605,286.891693 473.124878,286.987793 
	C462.571625,288.019440 458.217987,292.614594 458.012268,303.220428 
	C457.910095,308.489136 458.128052,313.764038 457.739410,319.103363 
	C454.483826,319.217041 451.690002,319.263489 448.625610,319.093506 
	C438.540833,303.072601 424.303375,295.106506 405.753265,296.275970 
	C389.679535,297.289337 377.780823,305.826569 368.815796,319.279053 
	C362.245789,319.152893 356.165497,319.071747 350.085205,318.990570 
M394.074127,181.193802 
	C382.532562,181.193802 370.990967,181.193802 359.226807,181.193802 
	C359.226807,193.546463 359.226807,205.280380 359.057190,217.935928 
	C359.040436,224.498413 358.931519,231.063187 359.095062,237.621170 
	C359.123260,238.751694 360.308929,239.853348 361.886353,241.158539 
	C380.782440,241.158539 399.678497,241.158539 418.882324,241.158539 
	C418.882324,221.430893 418.882324,202.201401 418.962738,182.119263 
	C418.498077,181.773468 418.032562,181.125717 417.568848,181.126999 
	C410.046875,181.147675 402.525177,181.250671 394.074127,181.193802 
M438.204681,199.288559 
	C435.753174,194.009354 433.301636,188.730133 430.268707,182.198883 
	C430.268707,202.837418 430.268707,221.858566 430.268707,240.938690 
	C439.346802,240.938690 448.072784,240.938690 457.627686,240.938690 
	C451.108246,226.914093 444.839996,213.429825 438.204681,199.288559 
z"/>
<path fill="#1F1F3F" opacity="1.000000" stroke="none" 
	d="
M62.877304,319.120605 
	C71.419975,305.669556 83.336105,297.202667 99.434700,296.252563 
	C117.790062,295.169220 131.852097,303.104675 141.965149,319.206177 
	C143.952194,324.889282 145.647964,329.970581 147.343735,335.051849 
	C149.156555,355.245728 141.788651,371.168274 123.927368,380.880188 
	C107.272537,389.936096 90.430862,388.542877 75.213539,377.073273 
	C61.703571,366.890503 56.056881,352.855804 57.828163,335.175598 
	C59.585598,329.299377 61.231453,324.209991 62.877304,319.120605 
M87.748680,361.853424 
	C88.881599,362.546112 89.959953,363.356049 91.156120,363.912872 
	C100.372177,368.203064 109.339302,367.652985 117.508804,361.606384 
	C125.486320,355.701874 129.087173,347.441589 127.519257,337.596954 
	C125.865227,327.211609 119.798599,320.103241 109.591255,317.016998 
	C98.186005,313.568604 85.904213,318.773315 80.255753,329.218048 
	C74.294670,340.240814 76.907166,352.410095 87.748680,361.853424 
z"/>
<path fill="#1F1F3F" opacity="1.000000" stroke="none" 
	d="
M369.305542,319.324036 
	C377.780823,305.826569 389.679535,297.289337 405.753265,296.275970 
	C424.303375,295.106506 438.540833,303.072601 448.695435,319.436646 
	C450.709229,324.999878 452.382629,330.003571 454.056061,335.007233 
	C454.906250,346.794983 452.869415,357.841583 445.781586,367.624634 
	C434.212799,383.592529 413.732605,390.355621 395.306488,384.260468 
	C376.209229,377.943329 363.852936,360.860382 363.962494,340.905304 
	C363.971619,339.242401 364.071808,337.579987 364.280151,335.122253 
	C366.055573,329.326111 367.680542,324.325073 369.305542,319.324036 
M392.856537,360.696259 
	C403.657043,368.737640 416.194122,368.606262 425.768860,360.351410 
	C434.582306,352.752899 437.040802,339.208069 431.185425,329.023651 
	C425.784271,319.629150 417.393097,315.151611 406.662048,316.140320 
	C396.344666,317.090881 388.876190,322.771545 385.406067,332.530304 
	C381.672821,343.028992 384.044830,352.479431 392.856537,360.696259 
z"/>
<path fill="#1F1F3F" opacity="1.000000" stroke="none" 
	d="
M162.708755,319.138031 
	C171.246948,305.344788 183.448746,297.048248 199.743073,296.233887 
	C217.915634,295.325653 231.810043,303.286346 241.748322,319.263306 
	C243.751465,324.557007 245.442612,329.292084 247.133743,334.027191 
	C247.679718,342.892548 247.294846,351.575897 243.463348,359.872437 
	C234.170074,379.995758 212.450958,390.445312 190.902252,384.988953 
	C169.266678,379.510590 155.663834,359.639709 157.530212,335.199829 
	C159.383163,329.337952 161.045959,324.238007 162.708755,319.138031 
M223.376099,327.267242 
	C222.076721,325.760437 220.895432,324.129059 219.458618,322.767273 
	C210.826035,314.585510 197.691437,313.683350 187.795853,320.517303 
	C178.176987,327.160126 174.410065,339.682281 178.761871,350.548584 
	C183.262619,361.786835 194.540436,368.183807 206.344467,366.193878 
	C224.271027,363.171753 232.692657,344.683502 223.376099,327.267242 
z"/>
<path fill="#E8E4DA" opacity="1.000000" stroke="none" 
	d="
M247.528809,334.084198 
	C245.442612,329.292084 243.751465,324.557007 242.019562,319.467468 
	C271.616150,319.065460 301.253479,319.017914 331.344543,318.959290 
	C337.577850,318.969452 343.357513,318.990692 349.611176,319.001282 
	C356.165497,319.071747 362.245789,319.152893 368.815796,319.279053 
	C367.680542,324.325073 366.055573,329.326111 364.243225,334.657654 
	C353.649292,334.986450 343.242767,334.984711 331.902557,334.979828 
	C306.320740,334.985229 281.672577,334.993774 257.024445,335.002289 
	C253.990921,334.715240 250.957382,334.428223 247.528809,334.084198 
z"/>
<path fill="#B2ACA3" opacity="1.000000" stroke="none" 
	d="
M257.016846,335.470673 
	C281.672577,334.993774 306.320740,334.985229 331.426880,334.995789 
	C331.884918,341.792236 331.884918,348.569611 331.884918,355.661987 
	C306.873779,355.661987 282.342133,355.661987 257.009216,355.661987 
	C257.009216,349.094635 257.009216,342.516815 257.016846,335.470673 
z"/>
<path fill="#E7E5DC" opacity="1.000000" stroke="none" 
	d="
M454.520966,334.994690 
	C452.382629,330.003571 450.709229,324.999878 448.966003,319.653076 
	C451.690002,319.263489 454.483826,319.217041 458.193970,319.123535 
	C465.004517,319.076447 470.898712,319.076447 477.254333,319.076447 
	C477.254333,308.141296 477.254333,298.018433 477.254333,287.895538 
	C477.506439,296.645813 478.013336,305.399414 477.898651,314.144897 
	C477.844727,318.257568 479.292725,319.090485 483.061157,319.150787 
	C487.049957,319.214691 488.206970,317.942902 488.087067,314.025024 
	C487.818970,305.263275 488.003235,296.487701 488.003235,287.359985 
	C490.771332,287.359985 492.994904,287.359985 495.734741,287.359985 
	C495.825684,289.218048 495.983856,290.984009 495.987061,292.750275 
	C496.009033,304.883698 495.822784,317.021088 496.091309,329.148621 
	C496.188843,333.553406 495.192627,335.238281 490.385345,335.090912 
	C478.595490,334.729523 466.786926,334.978668 454.520966,334.994690 
z"/>
<path fill="#EAE5DB" opacity="1.000000" stroke="none" 
	d="
M62.417824,319.090057 
	C61.231453,324.209991 59.585598,329.299377 57.814556,334.724243 
	C45.936188,335.030670 34.181427,334.884735 22.430798,335.043976 
	C18.924709,335.091431 17.937166,333.927734 17.924246,330.497131 
	C17.881300,319.094147 17.754658,319.094788 29.331268,319.009247 
	C29.662281,319.006805 29.993200,318.991669 30.811390,318.949463 
	C41.518524,318.964172 51.738434,319.011841 62.417824,319.090057 
z"/>
<path fill="#FDB021" opacity="1.000000" stroke="none" 
	d="
M477.168823,287.639893 
	C477.254333,298.018433 477.254333,308.141296 477.254333,319.076447 
	C470.898712,319.076447 465.004517,319.076447 458.655762,319.056274 
	C458.128052,313.764038 457.910095,308.489136 458.012268,303.220428 
	C458.217987,292.614594 462.571625,288.019440 473.124878,286.987793 
	C474.107605,286.891693 475.099976,286.894562 476.518433,286.856812 
	C476.993713,287.036133 477.038513,287.210175 477.168823,287.639893 
z"/>
<path fill="#E6E0D8" opacity="1.000000" stroke="none" 
	d="
M162.260956,319.105103 
	C161.045959,324.238007 159.383163,329.337952 157.515121,334.741028 
	C154.280884,335.038147 151.251877,335.032135 147.783310,335.039001 
	C145.647964,329.970581 143.952194,324.889282 142.201141,319.463074 
	C148.701630,319.102844 155.257385,319.087524 162.260956,319.105103 
z"/>
<path fill="#FFAF21" opacity="1.000000" stroke="none" 
	d="
M221.140411,173.940292 
	C236.596573,173.940292 252.052704,173.940292 268.353455,173.940292 
	C267.322693,177.942154 266.636658,181.280701 265.603668,184.508224 
	C258.052399,208.102081 250.413864,231.668015 242.858932,255.260727 
	C242.076340,257.704620 241.151047,259.097321 238.091232,259.086456 
	C200.761002,258.953857 163.430161,258.987274 126.099487,258.967621 
	C125.780029,258.967438 125.460632,258.829895 124.424339,258.591705 
	C125.605629,254.388809 126.780334,250.209335 128.154083,245.321671 
	C126.064011,245.184067 124.353760,244.977463 122.643059,244.973785 
	C109.643929,244.945801 96.644478,245.003128 83.645660,244.933762 
	C78.655746,244.907135 77.069740,242.976456 77.392250,237.162476 
	C79.075844,237.086243 80.827690,236.940277 82.579712,236.938065 
	C97.245438,236.919540 111.913521,236.784698 126.575340,237.024887 
	C130.375885,237.087158 131.981079,235.640930 132.789658,232.238861 
	C133.698242,228.416031 134.897049,224.662201 136.198013,220.072495 
	C133.124435,220.072495 130.691833,220.072556 128.259232,220.072479 
	C115.926674,220.072128 103.593948,220.108246 91.261620,220.055054 
	C85.607895,220.030670 84.481598,218.455582 85.740089,212.041229 
	C93.079063,212.041229 100.539360,212.041229 107.999649,212.041229 
	C116.499115,212.041229 125.011803,211.758362 133.492737,212.154800 
	C138.065903,212.368561 140.282684,210.779510 140.970245,206.418518 
	C141.277069,204.472260 141.916763,202.578476 142.584885,199.956482 
	C134.335266,199.956482 126.423965,200.025284 118.514595,199.931335 
	C113.569176,199.872604 111.983421,197.863724 112.467110,191.927505 
	C121.331772,191.927505 130.274216,191.930374 139.216660,191.926575 
	C146.080078,191.923660 147.819901,189.949478 147.491226,181.929260 
	C141.236618,181.929260 134.943832,181.929535 128.651047,181.929184 
	C120.484894,181.928741 112.317574,182.011856 104.153008,181.897522 
	C98.713821,181.821365 96.989281,179.836685 97.449554,173.974380 
	C130.820679,173.974380 164.250275,173.974380 198.046600,174.411011 
	C194.969772,185.775299 191.526215,196.702927 187.942505,208.075317 
	C195.025772,208.075317 201.324188,208.233261 207.602051,207.944595 
	C208.887177,207.885513 210.811371,206.392303 211.226212,205.153412 
	C214.691803,194.802887 217.873260,184.357239 221.140411,173.940292 
z"/>
<path fill="#A46AF4" opacity="1.000000" stroke="none" 
	d="
M220.665375,173.877838 
	C217.873260,184.357239 214.691803,194.802887 211.226212,205.153412 
	C210.811371,206.392303 208.887177,207.885513 207.602051,207.944595 
	C201.324188,208.233261 195.025772,208.075317 187.942505,208.075317 
	C191.526215,196.702927 194.969772,185.775299 198.556961,174.464417 
	C205.863831,173.992584 213.027069,173.903976 220.665375,173.877838 
z"/>
<path fill="#EAE5DB" opacity="1.000000" stroke="none" 
	d="
M418.882324,182.971893 
	C418.882324,202.201401 418.882324,221.430893 418.882324,241.158539 
	C399.678497,241.158539 380.782440,241.158539 361.576538,240.767212 
	C366.531311,235.054428 371.758728,229.695572 377.067719,224.418777 
	C390.986938,210.584030 404.941711,196.785110 418.882324,182.971893 
z"/>
<path fill="#FEFEFE" opacity="1.000000" stroke="none" 
	d="
M418.922546,182.545578 
	C404.941711,196.785110 390.986938,210.584030 377.067719,224.418777 
	C371.758728,229.695572 366.531311,235.054428 361.113342,240.672089 
	C360.308929,239.853348 359.123260,238.751694 359.095062,237.621170 
	C358.931519,231.063187 359.040436,224.498413 359.416809,217.307190 
	C371.518768,204.897324 383.261078,193.116180 395.003387,181.335052 
	C402.525177,181.250671 410.046875,181.147675 417.568848,181.126999 
	C418.032562,181.125717 418.498077,181.773468 418.922546,182.545578 
z"/>
<path fill="#E8E4DB" opacity="1.000000" stroke="none" 
	d="
M438.388214,199.617065 
	C444.839996,213.429825 451.108246,226.914093 457.627686,240.938690 
	C448.072784,240.938690 439.346802,240.938690 430.268707,240.938690 
	C430.268707,221.858566 430.268707,202.837418 430.268707,182.198883 
	C433.301636,188.730133 435.753174,194.009354 438.388214,199.617065 
z"/>
<path fill="#E5E4DC" opacity="1.000000" stroke="none" 
	d="
M394.538757,181.264420 
	C383.261078,193.116180 371.518768,204.897324 359.501648,216.846375 
	C359.226807,205.280380 359.226807,193.546463 359.226807,181.193802 
	C370.990967,181.193802 382.532562,181.193802 394.538757,181.264420 
z"/>
<path fill="#A169F3" opacity="1.000000" stroke="none" 
	d="
M87.458344,361.634705 
	C76.907166,352.410095 74.294670,340.240814 80.255753,329.218048 
	C85.904213,318.773315 98.186005,313.568604 109.591255,317.016998 
	C119.798599,320.103241 125.865227,327.211609 127.519257,337.596954 
	C129.087173,347.441589 125.486320,355.701874 117.508804,361.606384 
	C109.339302,367.652985 100.372177,368.203064 91.156120,363.912872 
	C89.959953,363.356049 88.881599,362.546112 87.458344,361.634705 
M112.375900,342.920410 
	C112.567207,335.081726 107.235039,329.896057 100.558609,331.427795 
	C95.715248,332.538971 92.355217,336.683594 92.433189,341.450531 
	C92.507462,345.991089 96.038879,350.237457 100.410164,351.042572 
	C105.952003,352.063263 109.790054,349.660126 112.375900,342.920410 
z"/>
<path fill="#A169F4" opacity="1.000000" stroke="none" 
	d="
M392.584595,360.459778 
	C384.044830,352.479431 381.672821,343.028992 385.406067,332.530304 
	C388.876190,322.771545 396.344666,317.090881 406.662048,316.140320 
	C417.393097,315.151611 425.784271,319.629150 431.185425,329.023651 
	C437.040802,339.208069 434.582306,352.752899 425.768860,360.351410 
	C416.194122,368.606262 403.657043,368.737640 392.584595,360.459778 
M402.084106,348.500305 
	C409.411926,353.550323 417.921997,350.717560 418.953827,342.813507 
	C419.581787,338.003265 417.668457,334.289917 413.273285,332.206299 
	C408.823730,330.096924 404.804382,331.209351 401.540253,334.751984 
	C398.145477,338.436371 398.227570,342.651886 402.084106,348.500305 
z"/>
<path fill="#A168F4" opacity="1.000000" stroke="none" 
	d="
M223.588348,327.569580 
	C232.692657,344.683502 224.271027,363.171753 206.344467,366.193878 
	C194.540436,368.183807 183.262619,361.786835 178.761871,350.548584 
	C174.410065,339.682281 178.176987,327.160126 187.795853,320.517303 
	C197.691437,313.683350 210.826035,314.585510 219.458618,322.767273 
	C220.895432,324.129059 222.076721,325.760437 223.588348,327.569580 
M209.642090,348.083618 
	C212.918106,344.160004 213.270340,339.867065 210.529968,335.675781 
	C208.157608,332.047394 204.516693,330.489868 200.151337,331.498718 
	C195.842819,332.494446 193.179947,335.331818 192.384491,339.636993 
	C191.617325,343.789276 193.190826,347.293060 196.670670,349.536041 
	C200.882721,352.250977 205.157867,351.920715 209.642090,348.083618 
z"/>
<path fill="#7BCD07" opacity="1.000000" stroke="none" 
	d="
M112.290176,343.289032 
	C109.790054,349.660126 105.952003,352.063263 100.410164,351.042572 
	C96.038879,350.237457 92.507462,345.991089 92.433189,341.450531 
	C92.355217,336.683594 95.715248,332.538971 100.558609,331.427795 
	C107.235039,329.896057 112.567207,335.081726 112.290176,343.289032 
z"/>
<path fill="#7BCE07" opacity="1.000000" stroke="none" 
	d="
M401.821960,348.212677 
	C398.227570,342.651886 398.145477,338.436371 401.540253,334.751984 
	C404.804382,331.209351 408.823730,330.096924 413.273285,332.206299 
	C417.668457,334.289917 419.581787,338.003265 418.953827,342.813507 
	C417.921997,350.717560 409.411926,353.550323 401.821960,348.212677 
z"/>
<path fill="#7BCD08" opacity="1.000000" stroke="none" 
	d="
M209.361450,348.363312 
	C205.157867,351.920715 200.882721,352.250977 196.670670,349.536041 
	C193.190826,347.293060 191.617325,343.789276 192.384491,339.636993 
	C193.179947,335.331818 195.842819,332.494446 200.151337,331.498718 
	C204.516693,330.489868 208.157608,332.047394 210.529968,335.675781 
	C213.270340,339.867065 212.918106,344.160004 209.361450,348.363312 
z"/>
</svg>