<svg version="1.1" id="Layer_1" xmlns="http://www.w3.org/2000/svg" xmlns:xlink="http://www.w3.org/1999/xlink" x="0px" y="0px"
	 width="100%" viewBox="0 0 512 512" enable-background="new 0 0 512 512" xml:space="preserve">
<path fill="#000000" opacity="1.000000" stroke="none" 
	d="
M287.000000,513.000000 
	C191.356552,513.000000 96.213104,513.000000 1.034826,513.000000 
	C1.034826,342.398193 1.034826,171.796371 1.034826,1.097280 
	C171.560135,1.097280 342.120331,1.097280 512.840271,1.097280 
	C512.840271,171.666550 512.840271,342.333252 512.840271,513.000000 
	C437.796356,513.000000 362.648163,513.000000 287.000000,513.000000 
M71.041946,162.975021 
	C62.042725,162.983551 53.032429,163.283051 44.046543,162.941101 
	C24.255146,162.187973 8.909205,178.192368 8.939896,198.325119 
	C9.077844,288.818146 9.089535,379.311676 8.929213,469.804657 
	C8.894650,489.313873 24.811462,505.082306 44.009850,505.059052 
	C147.168671,504.934143 250.327728,505.000763 353.486694,504.994019 
	C355.317261,504.993896 357.147827,504.903107 359.907074,504.993103 
	C365.283630,504.938385 370.660156,504.883667 376.961823,504.956238 
	C407.777374,504.970825 438.595673,504.740814 469.407501,505.087799 
	C489.234253,505.311066 505.465607,489.191650 505.070068,469.398407 
	C504.730713,452.414734 505.003418,435.418915 504.998657,418.428467 
	C504.995850,408.428680 500.070923,402.340088 490.299408,399.995911 
	C473.916931,396.065674 460.750946,387.454468 450.379517,373.976624 
	C429.970886,347.455231 433.443970,310.943848 455.154480,287.452759 
	C464.355133,277.497528 475.909027,271.185303 489.120819,267.993408 
	C500.540527,265.234497 504.996979,259.555481 504.999664,247.780487 
	C505.001038,241.783859 505.099335,235.785248 504.979675,229.791016 
	C504.715149,216.536240 505.070496,203.214355 503.820160,190.048309 
	C502.358154,174.652664 487.221924,163.046127 472.460602,163.007950 
	C443.979248,162.934280 415.497772,162.905258 386.999298,162.031723 
	C384.742126,152.364441 384.315491,142.716537 386.485962,132.918442 
	C389.837524,117.788605 397.198608,105.022392 408.772614,94.851929 
	C415.074036,89.314697 416.417969,79.655853 412.468719,72.788094 
	C403.681915,57.507793 395.729004,41.741528 386.747955,26.581043 
	C376.625122,9.493205 357.510773,4.193417 340.019562,13.084881 
	C328.054016,19.167463 316.527618,26.112513 304.788055,32.641663 
	C292.920624,39.241901 281.009155,45.763153 269.158630,52.393410 
	C249.805496,63.221302 230.507706,74.148186 211.144730,84.958389 
	C198.859070,91.817383 186.451355,98.458145 174.181061,105.344131 
	C155.564545,115.791565 137.039322,126.401581 118.438698,136.877502 
	C102.976120,145.586060 87.460770,154.200928 71.041946,162.975021 
z"/>
<path fill="#E5354B" opacity="1.000000" stroke="none" 
	d="
M358.978394,504.854614 
	C357.147827,504.903107 355.317261,504.993896 353.486694,504.994019 
	C250.327728,505.000763 147.168671,504.934143 44.009850,505.059052 
	C24.811462,505.082306 8.894650,489.313873 8.929213,469.804657 
	C9.089535,379.311676 9.077844,288.818146 8.939896,198.325119 
	C8.909205,178.192368 24.255146,162.187973 44.046543,162.941101 
	C53.032429,163.283051 62.042725,162.983551 71.970810,162.987808 
	C165.631790,163.023758 258.363892,163.045471 351.096008,163.077408 
	C353.757233,163.078323 356.418427,163.187637 359.071899,163.698837 
	C359.065887,171.971848 358.924103,179.795975 359.117279,187.611832 
	C359.257599,193.289536 363.155518,197.138275 368.040375,196.955643 
	C373.215851,196.762161 375.989319,193.601791 376.027588,187.639297 
	C376.079926,179.486130 376.031952,171.332306 376.482391,163.136597 
	C380.297302,163.015533 383.656830,162.936630 387.016327,162.857727 
	C415.497772,162.905258 443.979248,162.934280 472.460602,163.007950 
	C487.221924,163.046127 502.358154,174.652664 503.820160,190.048309 
	C505.070496,203.214355 504.715149,216.536240 504.979675,229.791016 
	C505.099335,235.785248 505.001038,241.783859 504.999664,247.780487 
	C504.996979,259.555481 500.540527,265.234497 489.120819,267.993408 
	C475.909027,271.185303 464.355133,277.497528 455.154480,287.452759 
	C433.443970,310.943848 429.970886,347.455231 450.379517,373.976624 
	C460.750946,387.454468 473.916931,396.065674 490.299408,399.995911 
	C500.070923,402.340088 504.995850,408.428680 504.998657,418.428467 
	C505.003418,435.418915 504.730713,452.414734 505.070068,469.398407 
	C505.465607,489.191650 489.234253,505.311066 469.407501,505.087799 
	C438.595673,504.740814 407.777374,504.970825 376.590424,504.496826 
	C376.102783,494.940796 376.203461,485.831970 375.689819,476.757874 
	C375.585327,474.911682 373.528595,472.591553 371.750702,471.531311 
	C365.800110,467.982544 359.388336,472.464691 359.121552,480.411896 
	C358.848236,488.551880 359.008118,496.706451 358.978394,504.854614 
M187.009888,340.509827 
	C158.142532,369.376801 129.275009,398.243591 100.408607,427.111511 
	C99.348709,428.171478 98.226303,429.180115 97.259293,430.319824 
	C94.118240,434.021820 94.158440,438.808685 97.289116,442.074005 
	C100.610863,445.538513 105.413925,445.607422 109.383247,442.209686 
	C110.267014,441.453156 111.059814,440.589325 111.884369,439.764771 
	C172.798553,378.852448 233.712097,317.939392 294.621918,257.022675 
	C295.681000,255.963440 296.811157,254.946274 297.706146,253.757416 
	C300.265564,250.357590 300.001678,245.737045 297.193054,242.752426 
	C294.154083,239.522980 289.586273,239.111343 285.876678,241.869461 
	C284.550964,242.855133 283.419891,244.111511 282.243347,245.287659 
	C250.662079,276.858276 219.086456,308.434540 187.009888,340.509827 
M226.057922,431.438446 
	C236.831039,442.144745 249.661255,446.482513 264.728668,443.991364 
	C286.846924,440.334534 302.174805,418.967224 299.147034,395.969452 
	C296.240601,373.893524 275.440430,357.270691 253.560822,359.594574 
	C236.316788,361.426086 223.889221,370.276611 217.481476,386.308777 
	C210.983154,402.567566 214.181305,417.620270 226.057922,431.438446 
M123.095634,242.432617 
	C105.680061,249.489227 95.121521,264.227325 94.934570,281.741150 
	C94.746475,299.362701 104.695564,314.881531 120.587914,321.755920 
	C136.232986,328.523346 154.572861,325.223236 166.993454,313.405518 
	C181.029953,300.050323 184.213638,278.466431 174.641571,261.554718 
	C164.615082,243.840088 144.659622,236.216049 123.095634,242.432617 
M359.679596,425.618683 
	C359.508850,432.067352 359.000275,438.530609 359.277100,444.959991 
	C359.488220,449.863953 363.862823,453.258484 368.359863,452.945892 
	C373.278717,452.603973 375.956726,449.487183 376.027344,443.856659 
	C376.089752,438.879578 375.981659,433.900238 376.057312,428.923553 
	C376.127228,424.325867 374.838135,420.668152 369.851227,419.497284 
	C365.020325,418.363037 361.873108,420.528778 359.679596,425.618683 
M365.210663,317.308350 
	C363.529755,318.841675 360.804962,320.115173 360.347443,321.953064 
	C358.297760,330.186554 357.592590,338.641998 360.999969,346.709167 
	C362.508209,350.280090 365.877563,351.488342 369.778168,350.533936 
	C373.645721,349.587585 375.837646,347.123199 375.945587,343.149139 
	C376.094147,337.681305 376.068909,332.207184 376.032806,326.736328 
	C375.984985,319.488037 373.488617,317.140717 365.210663,317.308350 
M366.067963,401.725677 
	C372.313599,401.935699 375.599792,399.760040 375.874176,394.471954 
	C376.201630,388.160980 376.408356,381.769745 375.721710,375.517151 
	C375.453278,373.072815 373.052063,369.811218 370.825867,368.927155 
	C368.569885,368.031250 364.710083,368.760193 362.637634,370.268311 
	C356.406799,374.802399 357.604889,396.496277 363.958069,400.876617 
	C364.362610,401.155548 364.861725,401.297333 366.067963,401.725677 
M370.002319,247.877655 
	C373.765900,246.746719 375.958038,244.314423 375.998138,240.297775 
	C376.057922,234.309982 376.340393,228.292801 375.835480,222.346924 
	C375.640411,220.049683 374.084839,217.164368 372.227234,215.844299 
	C366.739746,211.944748 359.844513,215.940369 359.210144,223.344742 
	C358.785583,228.300201 358.941711,233.321991 359.094849,238.306198 
	C359.289978,244.658783 362.657501,247.755554 370.002319,247.877655 
M363.423706,298.173065 
	C370.855408,301.485413 375.876709,298.332581 376.024445,290.182800 
	C376.111908,285.357513 376.074951,280.529175 376.036469,275.702637 
	C375.985992,269.371826 373.526611,266.235443 368.510437,265.997833 
	C363.226562,265.747559 359.347198,269.486938 359.106537,275.396851 
	C358.917114,280.049438 358.620361,284.774078 359.222473,289.354797 
	C359.604828,292.263672 361.545715,294.967712 363.423706,298.173065 
z"/>
<path fill="#F7C331" opacity="1.000000" stroke="none" 
	d="
M387.007812,162.444733 
	C383.656830,162.936630 380.297302,163.015533 376.013855,163.075745 
	C369.753174,163.120193 364.416382,163.183304 359.079620,163.246414 
	C356.418427,163.187637 353.757233,163.078323 351.096008,163.077408 
	C258.363892,163.045471 165.631790,163.023758 72.434235,162.928940 
	C87.460770,154.200928 102.976120,145.586060 118.438698,136.877502 
	C137.039322,126.401581 155.564545,115.791565 174.181061,105.344131 
	C186.451355,98.458145 198.859070,91.817383 211.144730,84.958389 
	C230.507706,74.148186 249.805496,63.221302 269.158630,52.393410 
	C281.009155,45.763153 292.920624,39.241901 304.788055,32.641663 
	C316.527618,26.112513 328.054016,19.167463 340.019562,13.084881 
	C357.510773,4.193417 376.625122,9.493205 386.747955,26.581043 
	C395.729004,41.741528 403.681915,57.507793 412.468719,72.788094 
	C416.417969,79.655853 415.074036,89.314697 408.772614,94.851929 
	C397.198608,105.022392 389.837524,117.788605 386.485962,132.918442 
	C384.315491,142.716537 384.742126,152.364441 387.007812,162.444733 
z"/>
<path fill="#C22748" opacity="1.000000" stroke="none" 
	d="
M359.442749,504.923859 
	C359.008118,496.706451 358.848236,488.551880 359.121552,480.411896 
	C359.388336,472.464691 365.800110,467.982544 371.750702,471.531311 
	C373.528595,472.591553 375.585327,474.911682 375.689819,476.757874 
	C376.203461,485.831970 376.102783,494.940796 376.127869,504.433167 
	C370.660156,504.883667 365.283630,504.938385 359.442749,504.923859 
z"/>
<path fill="#FFFDFD" opacity="1.000000" stroke="none" 
	d="
M187.259888,340.259827 
	C219.086456,308.434540 250.662079,276.858276 282.243347,245.287659 
	C283.419891,244.111511 284.550964,242.855133 285.876678,241.869461 
	C289.586273,239.111343 294.154083,239.522980 297.193054,242.752426 
	C300.001678,245.737045 300.265564,250.357590 297.706146,253.757416 
	C296.811157,254.946274 295.681000,255.963440 294.621918,257.022675 
	C233.712097,317.939392 172.798553,378.852448 111.884369,439.764771 
	C111.059814,440.589325 110.267014,441.453156 109.383247,442.209686 
	C105.413925,445.607422 100.610863,445.538513 97.289116,442.074005 
	C94.158440,438.808685 94.118240,434.021820 97.259293,430.319824 
	C98.226303,429.180115 99.348709,428.171478 100.408607,427.111511 
	C129.275009,398.243591 158.142532,369.376801 187.259888,340.259827 
z"/>
<path fill="#FFFCFC" opacity="1.000000" stroke="none" 
	d="
M225.819260,431.173645 
	C214.181305,417.620270 210.983154,402.567566 217.481476,386.308777 
	C223.889221,370.276611 236.316788,361.426086 253.560822,359.594574 
	C275.440430,357.270691 296.240601,373.893524 299.147034,395.969452 
	C302.174805,418.967224 286.846924,440.334534 264.728668,443.991364 
	C249.661255,446.482513 236.831039,442.144745 225.819260,431.173645 
M281.994537,396.733948 
	C277.650757,381.337585 263.785706,373.209656 249.476273,377.671173 
	C236.406418,381.746246 228.888046,395.165863 232.234207,408.446869 
	C235.537033,421.555847 248.605392,429.658722 262.204346,427.029510 
	C275.610413,424.437561 284.036682,411.948547 281.994537,396.733948 
z"/>
<path fill="#FFFCFD" opacity="1.000000" stroke="none" 
	d="
M123.466461,242.288681 
	C144.659622,236.216049 164.615082,243.840088 174.641571,261.554718 
	C184.213638,278.466431 181.029953,300.050323 166.993454,313.405518 
	C154.572861,325.223236 136.232986,328.523346 120.587914,321.755920 
	C104.695564,314.881531 94.746475,299.362701 94.934570,281.741150 
	C95.121521,264.227325 105.680061,249.489227 123.466461,242.288681 
M116.839333,297.546051 
	C125.392845,308.026337 137.680084,311.043884 148.928802,305.426605 
	C159.464386,300.165527 165.240265,288.189178 162.438980,276.984161 
	C159.755661,266.250946 152.851822,259.481781 142.027527,257.494781 
	C131.604401,255.581451 122.819183,259.238251 116.745590,267.922943 
	C110.158844,277.341370 110.342575,287.210236 116.839333,297.546051 
z"/>
<path fill="#C22748" opacity="1.000000" stroke="none" 
	d="
M359.071899,163.698837 
	C364.416382,163.183304 369.753174,163.120193 375.558472,163.117920 
	C376.031952,171.332306 376.079926,179.486130 376.027588,187.639297 
	C375.989319,193.601791 373.215851,196.762161 368.040375,196.955643 
	C363.155518,197.138275 359.257599,193.289536 359.117279,187.611832 
	C358.924103,179.795975 359.065887,171.971848 359.071899,163.698837 
z"/>
<path fill="#C22748" opacity="1.000000" stroke="none" 
	d="
M359.806610,425.232483 
	C361.873108,420.528778 365.020325,418.363037 369.851227,419.497284 
	C374.838135,420.668152 376.127228,424.325867 376.057312,428.923553 
	C375.981659,433.900238 376.089752,438.879578 376.027344,443.856659 
	C375.956726,449.487183 373.278717,452.603973 368.359863,452.945892 
	C363.862823,453.258484 359.488220,449.863953 359.277100,444.959991 
	C359.000275,438.530609 359.508850,432.067352 359.806610,425.232483 
z"/>
<path fill="#C22748" opacity="1.000000" stroke="none" 
	d="
M365.597137,317.223724 
	C373.488617,317.140717 375.984985,319.488037 376.032806,326.736328 
	C376.068909,332.207184 376.094147,337.681305 375.945587,343.149139 
	C375.837646,347.123199 373.645721,349.587585 369.778168,350.533936 
	C365.877563,351.488342 362.508209,350.280090 360.999969,346.709167 
	C357.592590,338.641998 358.297760,330.186554 360.347443,321.953064 
	C360.804962,320.115173 363.529755,318.841675 365.597137,317.223724 
z"/>
<path fill="#C22748" opacity="1.000000" stroke="none" 
	d="
M365.692383,401.614319 
	C364.861725,401.297333 364.362610,401.155548 363.958069,400.876617 
	C357.604889,396.496277 356.406799,374.802399 362.637634,370.268311 
	C364.710083,368.760193 368.569885,368.031250 370.825867,368.927155 
	C373.052063,369.811218 375.453278,373.072815 375.721710,375.517151 
	C376.408356,381.769745 376.201630,388.160980 375.874176,394.471954 
	C375.599792,399.760040 372.313599,401.935699 365.692383,401.614319 
z"/>
<path fill="#C22748" opacity="1.000000" stroke="none" 
	d="
M369.603485,247.922882 
	C362.657501,247.755554 359.289978,244.658783 359.094849,238.306198 
	C358.941711,233.321991 358.785583,228.300201 359.210144,223.344742 
	C359.844513,215.940369 366.739746,211.944748 372.227234,215.844299 
	C374.084839,217.164368 375.640411,220.049683 375.835480,222.346924 
	C376.340393,228.292801 376.057922,234.309982 375.998138,240.297775 
	C375.958038,244.314423 373.765900,246.746719 369.603485,247.922882 
z"/>
<path fill="#C22748" opacity="1.000000" stroke="none" 
	d="
M363.105713,297.968323 
	C361.545715,294.967712 359.604828,292.263672 359.222473,289.354797 
	C358.620361,284.774078 358.917114,280.049438 359.106537,275.396851 
	C359.347198,269.486938 363.226562,265.747559 368.510437,265.997833 
	C373.526611,266.235443 375.985992,269.371826 376.036469,275.702637 
	C376.074951,280.529175 376.111908,285.357513 376.024445,290.182800 
	C375.876709,298.332581 370.855408,301.485413 363.105713,297.968323 
z"/>
<path fill="#E5374D" opacity="1.000000" stroke="none" 
	d="
M282.047546,397.137085 
	C284.036682,411.948547 275.610413,424.437561 262.204346,427.029510 
	C248.605392,429.658722 235.537033,421.555847 232.234207,408.446869 
	C228.888046,395.165863 236.406418,381.746246 249.476273,377.671173 
	C263.785706,373.209656 277.650757,381.337585 282.047546,397.137085 
z"/>
<path fill="#E5374D" opacity="1.000000" stroke="none" 
	d="
M116.619629,297.255920 
	C110.342575,287.210236 110.158844,277.341370 116.745590,267.922943 
	C122.819183,259.238251 131.604401,255.581451 142.027527,257.494781 
	C152.851822,259.481781 159.755661,266.250946 162.438980,276.984161 
	C165.240265,288.189178 159.464386,300.165527 148.928802,305.426605 
	C137.680084,311.043884 125.392845,308.026337 116.619629,297.255920 
z"/>
</svg>