<svg version="1.1" preserveAspectRatio="none" xmlns="http://www.w3.org/2000/svg" width="500" height="500" viewBox="0 0 500 500"><rect width="100%" height="100%" fill="#121B31" fill-opacity="1"/><svg viewBox="116.8428 136.5882 392.7652 61" width="333" height="51.71792205623105" x="83.5px" y="224.141px" xmlns="http://www.w3.org/2000/svg" xmlns:xlink="http://www.w3.org/1999/xlink" preserveAspectRatio="none"><defs></defs><style>.companyName {fill:#F7F7F7;fill-opacity:1;}.icon3 {fill:#D0E156;fill-opacity:1;}.icon3-str {stroke:#D0E156;stroke-opacity:1;}.shapeStroke-str {stroke:#F7F7F7;stroke-opacity:1;}</style><g opacity="1" transform="rotate(0 116.8428 136.5882)">
<svg width="392.7652" height="40" x="116.8428" y="136.5882" version="1.1" preserveAspectRatio="none" viewBox="1.8 -26.8 267.08 27.2">
  <g transform="matrix(1 0 0 1 0 0)" class="companyName"><path id="id-D6z1nYkh11" d="M12.32-26.80Q19.76-26.80 22.28-20.96L22.28-20.96L20.56-19.56Q19.56-22.40 17.58-23.68Q15.60-24.96 12.36-24.96L12.36-24.96Q10.04-24.96 8.32-24.24Q6.60-23.52 5.70-22.28Q4.80-21.04 4.80-19.48L4.80-19.48Q4.80-17.96 5.56-16.96Q6.32-15.96 8.14-15.26Q9.96-14.56 13.16-14L13.16-14Q18.32-13.12 20.48-11.44Q22.64-9.76 22.64-6.80L22.64-6.80Q22.64-4.68 21.40-3.04Q20.16-1.40 17.90-0.50Q15.64 0.40 12.72 0.40L12.72 0.40Q8.56 0.40 5.70-1.26Q2.84-2.92 1.80-5.92L1.80-5.92L3.56-7.28Q4.36-4.44 6.78-2.94Q9.20-1.44 12.76-1.44L12.76-1.44Q16.20-1.44 18.38-2.84Q20.56-4.24 20.56-6.68L20.56-6.68Q20.56-8.80 18.78-10.04Q17-11.28 12.60-12.04L12.60-12.04Q8.88-12.68 6.72-13.60Q4.56-14.52 3.62-15.88Q2.68-17.24 2.68-19.28L2.68-19.28Q2.68-21.32 3.86-23.04Q5.04-24.76 7.22-25.78Q9.40-26.80 12.32-26.80L12.32-26.80Z M46.68 0L43.36-8.28L30.72-8.28L27.44 0L25.32 0L35.88-26.40L38.24-26.40L48.80 0L46.68 0ZM31.48-10.12L42.64-10.12L38.04-21.64L37.08-24.44L37.04-24.44L36.08-21.72L31.48-10.12Z M74-26.40L74 0L71.52 0L57.52-20.72L55.56-24.24L55.52-24.24L55.64-20.92L55.64 0L53.72 0L53.72-26.40L56.24-26.40L70.20-5.72L72.20-2.16L72.12-5.48L72.12-26.40L74-26.40Z M100.32-26.40L100.32-24.56L90.68-24.56L90.68 0L88.68 0L88.68-24.56L79.04-24.56L79.04-26.40L100.32-26.40Z M119.52 0L116.20-8.28L103.56-8.28L100.28 0L98.16 0L108.72-26.40L111.08-26.40L121.64 0L119.52 0ZM104.32-10.12L115.48-10.12L110.88-21.64L109.92-24.44L109.88-24.44L108.92-21.72L104.32-10.12Z M146.84-26.40L146.84 0L144.36 0L130.36-20.72L128.40-24.24L128.36-24.24L128.48-20.92L128.48 0L126.56 0L126.56-26.40L129.08-26.40L143.04-5.72L145.04-2.16L144.96-5.48L144.96-26.40L146.84-26.40Z M173.12 0L169.80-8.28L157.16-8.28L153.88 0L151.76 0L162.32-26.40L164.68-26.40L175.24 0L173.12 0ZM157.92-10.12L169.08-10.12L164.48-21.64L163.52-24.44L163.48-24.44L162.52-21.72L157.92-10.12Z M181.16-3.28Q181.96-3.28 182.46-2.78Q182.96-2.28 182.96-1.48L182.96-1.48Q182.96-0.68 182.46-0.18Q181.96 0.32 181.16 0.32L181.16 0.32Q180.36 0.32 179.86-0.18Q179.36-0.68 179.36-1.48L179.36-1.48Q179.36-2.28 179.86-2.78Q180.36-3.28 181.16-3.28L181.16-3.28Z M209.16-6.68Q208.04-3.32 205.26-1.46Q202.48 0.40 198.60 0.40L198.60 0.40Q195 0.40 192.28-1.26Q189.56-2.92 188.08-6Q186.60-9.08 186.60-13.20L186.60-13.20Q186.60-17.32 188.08-20.40Q189.56-23.48 192.28-25.14Q195-26.80 198.56-26.80L198.56-26.80Q206.48-26.80 208.80-20.28L208.80-20.28L206.84-19.36Q205.92-22.16 203.90-23.56Q201.88-24.96 198.68-24.96L198.68-24.96Q195.72-24.96 193.46-23.54Q191.20-22.12 189.96-19.46Q188.72-16.80 188.72-13.20L188.72-13.20Q188.72-9.60 189.94-6.94Q191.16-4.28 193.38-2.86Q195.60-1.44 198.60-1.44L198.60-1.44Q201.80-1.44 204.04-3Q206.28-4.56 207.16-7.44L207.16-7.44L209.16-6.68Z M225.52-26.80Q229.24-26.80 231.98-25.14Q234.72-23.48 236.20-20.42Q237.68-17.36 237.68-13.20L237.68-13.20Q237.68-9.04 236.20-5.98Q234.72-2.92 231.98-1.26Q229.24 0.40 225.52 0.40L225.52 0.40Q221.80 0.40 219.06-1.26Q216.32-2.92 214.84-5.98Q213.36-9.04 213.36-13.20L213.36-13.20Q213.36-17.36 214.84-20.42Q216.32-23.48 219.06-25.14Q221.80-26.80 225.52-26.80L225.52-26.80ZM225.52-24.96Q222.44-24.96 220.18-23.54Q217.92-22.12 216.70-19.46Q215.48-16.80 215.48-13.20L215.48-13.20Q215.48-9.60 216.70-6.94Q217.92-4.28 220.18-2.86Q222.44-1.44 225.52-1.44L225.52-1.44Q228.60-1.44 230.88-2.86Q233.16-4.28 234.38-6.94Q235.60-9.60 235.60-13.20L235.60-13.20Q235.60-16.80 234.38-19.46Q233.16-22.12 230.88-23.54Q228.60-24.96 225.52-24.96L225.52-24.96Z M268.88-26.40L268.88 0L266.96 0L266.96-19.68L267.20-24.48L267.16-24.48L257.52 0L255.68 0L246.04-24.48L246-24.48L246.24-19.68L246.24 0L244.32 0L244.32-26.40L247.32-26.40L255.28-6.40L256.60-2.36L256.64-2.36L257.92-6.36L265.88-26.40L268.88-26.40Z"/></g>
</svg>
</g><g opacity="1" transform="rotate(0 116.8428 194.5882)">
<svg width="392.7652" height="3" x="116.8428" y="194.5882" version="1.1" preserveAspectRatio="none" viewBox="0 0 392.7652 3">
  <defs><rect x="0" y="0" width="392.7652" height="3" rx="0px" ry="0px" id="id-tBXipXk0b1705159932197"></rect></defs><use class="icon3 shapeStroke-str" style="stroke-width:0;" xlink:href="#id-tBXipXk0b1705159932197"></use>
</svg>
</g></svg></svg>